<?xml version="1.0" encoding="UTF-8"?>
<svg version="1.1" xmlns="http://www.w3.org/2000/svg" width="3219" height="1073">
<path d="M0 0 C2.02311772 1.28743855 4.00984224 2.28500833 6.19140625 3.26953125 C25.52178757 12.74064178 40.35476609 33.68612123 47.30078125 53.5703125 C54.72018435 76.44680541 55.46727138 102.90174786 44.53515625 124.83984375 C44.09171875 125.68289063 43.64828125 126.5259375 43.19140625 127.39453125 C42.78196777 128.23866577 42.78196777 128.23866577 42.36425781 129.09985352 C39.52493615 134.94321294 36.26645472 140.50392337 32.94140625 146.08203125 C32.36511475 147.05374268 31.78882324 148.0254541 31.19506836 149.02661133 C27.49206228 155.2560692 23.71240126 161.4312307 19.88671875 167.5859375 C17.68836823 171.22790529 15.69314906 174.96444306 13.6875 178.71484375 C12.1231348 181.51681379 10.43506247 184.2008304 8.69140625 186.89453125 C5.7785492 191.39505545 3.18029468 195.9957341 0.6484375 200.71875 C-2.2851761 206.10621734 -5.51572745 211.31504147 -8.75390625 216.5234375 C-12.46617799 222.50118306 -15.99454985 228.51054673 -19.3125 234.71484375 C-20.8768652 237.51681379 -22.56493753 240.2008304 -24.30859375 242.89453125 C-27.77000884 248.25021526 -30.81127817 253.76964768 -33.80859375 259.39453125 C-34.93161266 261.45811061 -36.05656009 263.52064182 -37.18359375 265.58203125 C-37.68632813 266.50371094 -38.1890625 267.42539062 -38.70703125 268.375 C-39.07054687 269.04144531 -39.4340625 269.70789063 -39.80859375 270.39453125 C-40.46859375 270.39453125 -41.12859375 270.39453125 -41.80859375 270.39453125 C-41.95748047 271.20664062 -41.95748047 271.20664062 -42.109375 272.03515625 C-43.00122959 275.04454268 -44.41246549 277.42973994 -45.99609375 280.14453125 C-46.5075293 281.02516235 -46.5075293 281.02516235 -47.02929688 281.92358398 C-47.82123156 283.28544585 -48.61552752 284.64593616 -49.41162109 286.00537109 C-51.00548268 288.73125881 -52.58879119 291.4631519 -54.171875 294.1953125 C-60.25473981 304.67837202 -66.3783339 315.12009432 -72.80859375 325.39453125 C-74.18663181 327.60097006 -75.56157559 329.80934409 -76.93359375 332.01953125 C-77.53429687 332.98117187 -78.135 333.9428125 -78.75390625 334.93359375 C-81.02089265 338.66994438 -83.06740455 342.52406759 -85.14892578 346.36572266 C-88.07926223 351.71343581 -91.13279805 356.98988976 -94.18359375 362.26953125 C-94.67848801 363.12676285 -94.67848801 363.12676285 -95.18338013 364.00131226 C-99.92954288 372.21785243 -104.75621712 380.36226064 -109.80859375 388.39453125 C-111.18710412 390.600675 -112.56202428 392.80906562 -113.93359375 395.01953125 C-114.53429687 395.98117187 -115.135 396.9428125 -115.75390625 397.93359375 C-117.48803972 400.78890765 -119.08172092 403.71075667 -120.671875 406.6484375 C-123.61420063 412.07858317 -126.71037712 417.40173529 -129.87109375 422.70703125 C-131.01445043 424.6327368 -132.15767574 426.55852034 -133.30078125 428.484375 C-133.88053711 429.46003418 -134.46029297 430.43569336 -135.05761719 431.44091797 C-136.77588719 434.3393606 -138.48526729 437.24284018 -140.19140625 440.1484375 C-143.37853828 445.5749479 -146.58757261 450.98807923 -149.80859375 456.39453125 C-150.2689502 457.17151367 -150.72930664 457.94849609 -151.20361328 458.74902344 C-156.35823195 467.41272602 -161.59167914 475.26266445 -168.80859375 482.39453125 C-169.61554688 483.22339844 -170.4225 484.05226563 -171.25390625 484.90625 C-187.26713994 500.51317776 -209.61945529 509.3503365 -231.80859375 510.39453125 C-233.0615625 510.45640625 -233.0615625 510.45640625 -234.33984375 510.51953125 C-261.30940156 511.16940011 -284.31413502 501.39494902 -304.80859375 484.39453125 C-305.48148437 483.88535156 -306.154375 483.37617187 -306.84765625 482.8515625 C-323.30678805 470.03748957 -333.30432769 446.24930653 -336.80859375 426.39453125 C-337.24429619 421.67702884 -337.33403655 417.00538977 -337.30859375 412.26953125 C-337.30214844 411.00343018 -337.29570312 409.7373291 -337.2890625 408.43286133 C-336.95529811 391.16823946 -332.12671347 377.32448972 -323.80859375 362.39453125 C-323.03996101 360.98329265 -322.2717383 359.57183065 -321.50390625 358.16015625 C-317.98872504 351.75911393 -314.35204252 345.53590489 -310.19921875 339.5234375 C-308.03400963 336.20872128 -306.23724069 332.70593726 -304.375 329.21484375 C-302.79030858 326.36160882 -301.08349486 323.63295011 -299.30859375 320.89453125 C-296.4496473 316.47160972 -293.88068111 311.9626874 -291.390625 307.32421875 C-286.38193207 298.04886148 -281.01234457 289.05115919 -275.37988281 280.14575195 C-272.53424039 275.62333065 -269.93665439 271.02246381 -267.43359375 266.30078125 C-264.95298695 261.86431139 -262.20598072 257.6009725 -259.48706055 253.30786133 C-256.53566091 248.62388803 -253.82998868 243.86020225 -251.234375 238.96875 C-249.69971075 236.19794522 -248.02978117 233.55318458 -246.30859375 230.89453125 C-243.45537276 226.48046727 -240.89008784 221.98143624 -238.40625 217.3515625 C-234.03570228 209.26230914 -229.52874723 201.30851067 -224.32275391 193.72460938 C-222.77782376 191.34718059 -221.42648511 188.92976299 -220.08984375 186.4296875 C-216.64680955 180.06235263 -213.05504843 173.7867429 -209.43359375 167.51953125 C-208.93869949 166.66229965 -208.93869949 166.66229965 -208.43380737 165.78775024 C-203.68764462 157.57121007 -198.86097038 149.42680186 -193.80859375 141.39453125 C-189.47970025 134.46664625 -185.28655977 127.52971036 -181.4296875 120.328125 C-179.15263647 116.20748566 -176.71214729 112.19180588 -174.27246094 108.16601562 C-171.64736268 103.82391355 -169.11216125 99.4396718 -166.62109375 95.01953125 C-164.01459181 90.40146208 -161.23145177 85.97025068 -158.23828125 81.59375 C-155.48178274 77.3535624 -153.18239772 72.85606537 -150.80859375 68.39453125 C-149.68574972 66.33085673 -148.56081781 64.26831657 -147.43359375 62.20703125 C-146.93085938 61.28535156 -146.428125 60.36367188 -145.91015625 59.4140625 C-145.54664063 58.74761719 -145.183125 58.08117187 -144.80859375 57.39453125 C-144.14859375 57.39453125 -143.48859375 57.39453125 -142.80859375 57.39453125 C-142.72480469 56.87890625 -142.64101563 56.36328125 -142.5546875 55.83203125 C-141.50445994 52.40092132 -139.68578594 49.46505466 -137.87109375 46.39453125 C-134.68571505 40.97827457 -134.68571505 40.97827457 -131.80859375 35.39453125 C-131.14859375 35.39453125 -130.48859375 35.39453125 -129.80859375 35.39453125 C-129.66357422 34.55921875 -129.66357422 34.55921875 -129.515625 33.70703125 C-124.62119696 17.69873624 -105.77976159 5.4407964 -91.98046875 -2.1640625 C-89.6161104 -3.38613116 -87.23963599 -4.52309659 -84.80859375 -5.60546875 C-84.18210937 -5.8890625 -83.555625 -6.17265625 -82.91015625 -6.46484375 C-76.48713564 -9.12077632 -69.60690095 -10.29628198 -62.80859375 -11.60546875 C-61.38740234 -11.88777344 -61.38740234 -11.88777344 -59.9375 -12.17578125 C-39.8092828 -14.9399559 -17.13416309 -11.14990843 0 0 Z " fill="#D3E6CD" transform="translate(591.80859375,287.60546875)"/>
<path d="M0 0 C3.33059006 1.35526931 6.57409545 1.24948513 10.11503601 1.25233459 C11.2839312 1.26499359 11.2839312 1.26499359 12.47644043 1.27790833 C15.04714069 1.30365927 17.61772629 1.31581786 20.18852234 1.32826233 C21.97403881 1.34443587 23.75954642 1.36161572 25.54504395 1.37976074 C30.24144918 1.42543052 34.93786614 1.46025032 39.63438416 1.49195862 C47.16280985 1.54386013 54.69110604 1.60881018 62.21936989 1.68017387 C64.85459864 1.70307614 67.48981069 1.71929966 70.12509155 1.7348938 C71.72981452 1.74829393 73.33453573 1.76190816 74.93925476 1.77577209 C75.67743439 1.77838547 76.41561401 1.78099884 77.17616272 1.78369141 C82.21941448 1.83571697 82.21941448 1.83571697 83.33305359 2.94935608 C83.61349403 6.14892653 83.5649414 9.36397017 83.58305359 12.57435608 C83.61399109 13.91046936 83.61399109 13.91046936 83.64555359 15.27357483 C83.67894565 20.94187715 83.16482677 24.99052039 80.33305359 29.94935608 C70.58787261 38.34961389 50.54815574 38.17616169 38.33305359 37.94935608 C38.6591864 38.78337952 38.98531921 39.61740295 39.32133484 40.47669983 C48.27139986 63.52509737 52.43322314 90.05901523 42.45805359 113.69935608 C41.76023323 115.12123065 41.05170841 116.53789733 40.33305359 117.94935608 C39.97469421 118.7356842 39.61633484 119.52201233 39.24711609 120.33216858 C32.47735684 134.82581421 21.87948724 147.45662291 8.33305359 155.94935608 C7.54156921 156.46111389 6.75008484 156.9728717 5.93461609 157.50013733 C-3.37140106 163.32769176 -13.05115469 167.70228421 -23.60444641 170.69935608 C-24.29473938 170.89795227 -24.98503235 171.09654846 -25.69624329 171.30116272 C-37.58911094 174.49456727 -49.5858626 175.31105649 -61.85444641 175.26185608 C-62.52482941 175.26169495 -63.1952124 175.26153381 -63.88591003 175.2613678 C-73.77954256 175.24490609 -83.30842957 174.54776279 -93.01460266 172.60560608 C-99.1685196 171.44234384 -99.1685196 171.44234384 -105.01069641 173.12904358 C-111.51061863 178.23948968 -116.03071584 184.04066438 -118.66694641 191.94935608 C-119.18021581 198.62185822 -117.69725797 203.19861138 -113.72944641 208.57435608 C-97.66272822 221.03425998 -72.21730207 220.46433148 -52.82933044 221.3611908 C-47.27085575 221.62088049 -41.71518726 221.93184218 -36.15913391 222.23841858 C-35.07304337 222.29752914 -33.98695282 222.35663971 -32.86795044 222.4175415 C42.34455085 226.58273237 42.34455085 226.58273237 67.14555359 253.94935608 C72.66602566 260.79474145 75.32899576 268.67544107 76.93852234 277.23451233 C77.17852468 278.97168158 77.17852468 278.97168158 78.33305359 279.94935608 C78.58694427 283.67152148 78.51828899 287.40706645 78.52055359 291.13685608 C78.53279968 292.17906311 78.54504578 293.22127014 78.55766296 294.2950592 C78.56782177 299.62165946 78.39253609 303.96583016 76.33305359 308.94935608 C75.91495307 310.26074084 75.5096293 311.57623936 75.11430359 312.89466858 C74.9041864 313.57916077 74.69406921 314.26365295 74.47758484 314.96888733 C74.04571015 316.37967797 73.61604368 317.79114637 73.18852234 319.20326233 C72.14054713 322.60435978 71.07491007 325.83659403 69.33305359 328.94935608 C68.67305359 328.94935608 68.01305359 328.94935608 67.33305359 328.94935608 C67.08555359 329.81560608 66.83805359 330.68185608 66.58305359 331.57435608 C65.25505335 335.15995672 63.64674511 337.91263595 61.33305359 340.94935608 C60.67305359 340.94935608 60.01305359 340.94935608 59.33305359 340.94935608 C59.06492859 341.53201233 58.79680359 342.11466858 58.52055359 342.71498108 C57.31824368 344.97722208 55.99479446 346.75511926 54.33305359 348.69935608 C53.81742859 349.31294983 53.30180359 349.92654358 52.77055359 350.55873108 C51.33305359 351.94935608 51.33305359 351.94935608 49.33305359 351.94935608 C49.03721375 352.78080139 49.03721375 352.78080139 48.73539734 353.62904358 C38.84203953 369.99855483 9.67820432 379.38530676 -7.66694641 383.94935608 C-55.28874213 395.45316653 -111.55712325 393.66188892 -154.65034485 368.21351624 C-159.38940846 365.24270856 -163.5778697 361.76438532 -167.66694641 357.94935608 C-168.30503235 357.40150452 -168.94311829 356.85365295 -169.60054016 356.28919983 C-180.91216383 346.03567904 -186.90267066 330.82502541 -187.87007141 315.79310608 C-188.10430926 299.08413972 -184.43101469 286.58156844 -173.66694641 273.94935608 C-173.10491516 273.27904358 -172.54288391 272.60873108 -171.96382141 271.91810608 C-163.6610401 262.82114568 -151.68338016 257.10763917 -140.66694641 251.94935608 C-143.07508089 249.34054373 -145.59870923 247.24663726 -148.47944641 245.19935608 C-157.55140069 238.43754629 -163.98313168 229.34087822 -165.66694641 217.94935608 C-166.18243499 209.74119171 -166.12660927 202.47141053 -162.66694641 194.94935608 C-162.12167297 193.75310608 -161.57639954 192.55685608 -161.01460266 191.32435608 C-160.40259978 190.03084532 -159.78668997 188.73917605 -159.16694641 187.44935608 C-158.87038147 186.8248053 -158.57381653 186.20025452 -158.26826477 185.55677795 C-156.02183821 181.06765335 -156.02183821 181.06765335 -152.66694641 179.94935608 C-152.36788391 179.19525452 -152.06882141 178.44115295 -151.76069641 177.66419983 C-148.42458665 169.38349883 -138.18433216 164.02793771 -130.66694641 159.94935608 C-133.54465818 156.90236715 -136.34201946 154.48377328 -139.86616516 152.23451233 C-148.85330241 145.82069854 -156.64594702 137.7982395 -161.66694641 127.94935608 C-161.66694641 127.28935608 -161.66694641 126.62935608 -161.66694641 125.94935608 C-162.32694641 125.94935608 -162.98694641 125.94935608 -163.66694641 125.94935608 C-175.63413616 98.28749125 -178.35084661 72.18991317 -167.58491516 43.59779358 C-165.29609842 37.85101086 -162.43017402 32.85962175 -158.66694641 27.94935608 C-157.97729797 27.03025452 -157.28764954 26.11115295 -156.57710266 25.16419983 C-137.15700705 0.35152934 -110.04542324 -9.04378668 -79.96382141 -13.61314392 C-54.56463043 -16.64679971 -22.28286844 -14.04445885 0 0 Z M-113.66694641 42.94935608 C-124.30415325 55.742209 -126.88158342 71.58856358 -125.66694641 87.94935608 C-123.8127285 102.61614869 -119.29538667 117.10563223 -107.41694641 126.82435608 C-102.14796613 130.52615248 -96.58260169 133.42447 -90.66694641 135.94935608 C-89.7117511 136.36572327 -88.75655579 136.78209045 -87.77241516 137.21107483 C-69.28148343 143.83989941 -45.91537111 141.70090799 -28.29194641 133.63685608 C-14.14589378 125.88463187 -6.69422984 115.12863434 -1.66694641 99.94935608 C-1.30729797 98.98127014 -0.94764954 98.0131842 -0.57710266 97.01576233 C3.02449608 84.88162066 1.83061813 71.60900869 -2.66694641 59.94935608 C-2.99436829 58.99931702 -3.32179016 58.04927795 -3.65913391 57.07044983 C-8.38321126 44.31544099 -17.5280152 35.27711192 -29.76850891 29.48060608 C-56.67780722 18.43430701 -93.18477778 20.60184709 -113.66694641 42.94935608 Z M-111.29194641 262.44935608 C-112.19429016 263.00494202 -113.09663391 263.56052795 -114.02632141 264.13294983 C-120.04769336 268.27486988 -125.68450913 272.57356848 -130.66694641 277.94935608 C-131.24444641 278.53330139 -131.82194641 279.1172467 -132.41694641 279.71888733 C-139.79830165 287.5154438 -142.09728485 296.84128801 -141.86616516 307.47279358 C-141.03416402 317.81570968 -136.85771315 325.50883768 -129.66694641 332.94935608 C-104.68898047 352.8447908 -67.04147383 354.11836481 -36.66694641 350.94935608 C-31.26080981 350.25416089 -25.97703244 349.18503647 -20.66694641 347.94935608 C-18.91511047 347.55103577 -18.91511047 347.55103577 -17.12788391 347.14466858 C0.05798972 342.760913 15.8144549 334.43015395 25.33305359 318.94935608 C29.69253639 309.58454116 31.55804714 298.3883201 28.14555359 288.32435608 C23.29520453 279.29267163 13.9834929 273.99425863 4.46464539 270.88661194 C-7.04868328 267.44078137 -18.43418732 266.25196479 -30.35444641 265.44935608 C-32.03712475 265.32862339 -33.71974088 265.2070209 -35.40229797 265.08460999 C-39.88284432 264.76132349 -44.36416555 264.45052664 -48.84584045 264.14332581 C-53.69409225 263.80997637 -58.54180232 263.4688843 -63.38960266 263.12904358 C-69.05556957 262.7320825 -74.72161838 262.33675022 -80.38838196 261.9513092 C-81.68788536 261.86227325 -81.68788536 261.86227325 -83.01364136 261.7714386 C-84.68332089 261.65746867 -86.35310866 261.54507123 -88.02301025 261.43440247 C-92.38478898 261.13838214 -96.70747892 260.72436683 -101.04975891 260.20716858 C-105.16759751 259.82021993 -107.69307346 260.21005735 -111.29194641 262.44935608 Z " fill="#D0E2CA" transform="translate(2732.666946411133,468.05064392089844)"/>
<path d="M0 0 C2.40407017 0.0236386 4.80702377 0.02052017 7.21118164 0.01391602 C21.74110994 0.03805288 36.33562091 0.786913 50.28344727 5.14868164 C51.60614624 5.54615601 51.60614624 5.54615601 52.95556641 5.95166016 C69.76251307 11.08878481 85.11620761 18.12464672 99.47094727 28.33618164 C100.21086914 28.86211914 100.95079102 29.38805664 101.71313477 29.92993164 C103.66713259 31.35931527 105.57255628 32.83394249 107.47094727 34.33618164 C108.59243164 35.1850293 108.59243164 35.1850293 109.73657227 36.05102539 C115.27845563 40.47871892 115.27845563 40.47871892 116.15844727 44.39868164 C115.38227431 47.71505699 114.15760997 50.3845219 112.47094727 53.33618164 C111.81094727 53.33618164 111.15094727 53.33618164 110.47094727 53.33618164 C110.37426758 54.02711914 110.27758789 54.71805664 110.17797852 55.42993164 C109.32661838 58.92944514 107.88253858 61.67596286 106.15844727 64.83618164 C105.56418945 65.93961914 104.96993164 67.04305664 104.35766602 68.17993164 C99.15587133 76.88189874 99.15587133 76.88189874 93.47094727 78.33618164 C85.21513243 79.10060894 79.5665754 75.59005401 72.90844727 71.14868164 C44.15714272 52.34485808 12.91826051 43.13151482 -21.52905273 50.33618164 C-38.92928898 54.87229211 -54.01164919 63.53697508 -64.06420898 78.79321289 C-72.28891847 93.07130855 -73.79123007 110.16933595 -70.80639648 126.22290039 C-65.33136333 143.53464491 -51.27172733 154.16437639 -35.65611267 162.28660583 C-32.06387905 164.05915649 -28.37585218 165.55848721 -24.65405273 167.03540039 C-23.7959903 167.37705734 -22.93792786 167.71871429 -22.05386353 168.07072449 C-11.9125914 172.04979155 -1.59642692 175.514266 8.72079468 179.00418091 C46.61868163 191.85520268 46.61868163 191.85520268 64.47094727 200.33618164 C65.27806152 200.71500488 66.08517578 201.09382812 66.91674805 201.48413086 C77.48094011 206.51708168 86.69295865 212.59886843 95.47094727 220.33618164 C95.97352051 220.77687988 96.47609375 221.21757813 96.99389648 221.67163086 C113.02876861 236.0057542 123.99589585 256.77972846 125.47094727 278.33618164 C127.13143558 315.6235384 121.34040108 351.59234407 95.47094727 380.33618164 C94.81481445 381.12250977 94.15868164 381.90883789 93.48266602 382.71899414 C88.69501141 388.37974808 83.40550425 392.91257015 77.47094727 397.33618164 C76.71297852 397.92141602 75.95500977 398.50665039 75.17407227 399.10961914 C43.11675899 422.8836669 -2.24934211 428.47733061 -40.91967773 423.08227539 C-69.5249839 418.62129917 -96.27433709 409.08868637 -119.54858398 391.56274414 C-121.65131026 389.99190014 -123.70791143 388.57002176 -125.91577148 387.17211914 C-126.7781543 386.56625977 -127.64053711 385.96040039 -128.52905273 385.33618164 C-128.52905273 384.67618164 -128.52905273 384.01618164 -128.52905273 383.33618164 C-129.07045898 383.11188477 -129.61186523 382.88758789 -130.16967773 382.65649414 C-133.26437567 380.92469298 -135.70830879 378.61998896 -138.27905273 376.21118164 C-138.7856543 375.74325195 -139.29225586 375.27532227 -139.81420898 374.79321289 C-141.05624415 373.64491623 -142.29316767 372.49109492 -143.52905273 371.33618164 C-142.88154067 368.05613854 -141.67552773 365.63313117 -139.94702148 362.78149414 C-139.42688477 361.91911133 -138.90674805 361.05672852 -138.37084961 360.16821289 C-137.55197266 358.82823242 -137.55197266 358.82823242 -136.71655273 357.46118164 C-136.18223633 356.5755957 -135.64791992 355.69000977 -135.09741211 354.77758789 C-124.93467238 338.00219217 -124.93467238 338.00219217 -115.78686523 335.43774414 C-109.43869468 335.1521863 -104.64273572 338.2774536 -99.77905273 341.96118164 C-98.86736328 342.62996338 -98.86736328 342.62996338 -97.93725586 343.31225586 C-95.16427233 345.34980226 -92.41711756 347.42059177 -89.66967773 349.49243164 C-67.61968691 365.93206977 -43.48683495 375.50275971 -15.80126953 375.57641602 C-13.62874489 375.58601727 -11.45721115 375.61703782 -9.28491211 375.64868164 C11.14672404 375.80500577 29.99450726 370.70650569 46.47094727 358.33618164 C47.54344727 357.57305664 48.61594727 356.80993164 49.72094727 356.02368164 C56.62193369 349.27953581 61.63280254 341.14052798 65.47094727 332.33618164 C65.8409082 331.53180664 66.21086914 330.72743164 66.59204102 329.89868164 C72.37255816 316.00850126 73.91164468 296.67752324 68.47485352 282.54711914 C59.72552961 263.27818012 45.458665 252.63902048 26.47094727 244.33618164 C25.53154297 243.9252124 24.59213867 243.51424316 23.62426758 243.09082031 C9.11107623 237.02546503 -6.0117497 232.5684301 -20.98852539 227.80322266 C-73.05597549 211.19809007 -73.05597549 211.19809007 -93.52905273 193.33618164 C-94.19549805 192.78961914 -94.86194336 192.24305664 -95.54858398 191.67993164 C-98.98114628 188.84716444 -101.97030886 186.02077282 -104.52905273 182.33618164 C-104.52905273 181.67618164 -104.52905273 181.01618164 -104.52905273 180.33618164 C-105.18905273 180.33618164 -105.84905273 180.33618164 -106.52905273 180.33618164 C-107.92029529 178.36073767 -109.17520844 176.40978547 -110.40405273 174.33618164 C-110.76337891 173.73821777 -111.12270508 173.14025391 -111.49291992 172.52416992 C-122.13787725 154.65205038 -126.14550566 136.64772699 -125.96655273 116.02368164 C-125.96284668 115.25549103 -125.95914062 114.48730042 -125.95532227 113.6958313 C-125.77116075 86.86370839 -117.3950047 59.64965472 -98.17358398 39.91821289 C-90.75857293 32.67844582 -83.27631463 25.92912788 -74.52905273 20.33618164 C-73.16006836 19.45833008 -73.16006836 19.45833008 -71.76342773 18.56274414 C-50.20077002 5.35994035 -25.0855826 -0.26218316 0 0 Z " fill="#D1E3CB" transform="translate(1981.529052734375,332.663818359375)"/>
<path d="M0 0 C1.49648827 -0.00472824 1.49648827 -0.00472824 3.02320862 -0.009552 C4.10343796 -0.00752777 5.1836673 -0.00550354 6.29663086 -0.00341797 C7.40123154 -0.00437469 8.50583221 -0.00533142 9.64390564 -0.00631714 C11.98167986 -0.00699847 14.31945596 -0.00514743 16.65722656 -0.00097656 C20.24996149 0.00437737 23.84257169 -0.00092577 27.43530273 -0.00732422 C29.70157905 -0.00666353 31.9678553 -0.00538256 34.23413086 -0.00341797 C35.85751122 -0.00645432 35.85751122 -0.00645432 37.51368713 -0.009552 C39.00544716 -0.00482376 39.00544716 -0.00482376 40.52734375 0 C41.40733536 0.00079559 42.28732697 0.00159119 43.19398499 0.00241089 C45.19897461 0.12939453 45.19897461 0.12939453 46.19897461 1.12939453 C46.30026206 2.46882931 46.33293608 3.81353427 46.33763981 5.15678501 C46.34311425 6.02962495 46.3485887 6.9024649 46.35422903 7.80175453 C46.35520714 8.77157877 46.35618525 9.741403 46.35719299 10.74061584 C46.36459996 12.27322962 46.36459996 12.27322962 46.37215656 13.83680528 C46.3876149 17.28858134 46.39591462 20.74033869 46.40429688 24.19213867 C46.41386886 26.65531074 46.42387852 29.11848114 46.43429565 31.58164978 C46.45579298 36.89912939 46.4742229 42.21660631 46.48990059 47.5341053 C46.51257339 55.22239887 46.54071975 62.91066466 46.57021987 70.5989347 C46.61792762 83.07139669 46.66118314 95.54387002 46.70166016 108.01635742 C46.74099891 120.13518151 46.78242123 132.2539955 46.82666016 144.37280273 C46.82938443 145.11928891 46.8321087 145.86577508 46.83491553 146.63488204 C46.84859474 150.37962935 46.86231506 154.1243765 46.87605584 157.86912358 C46.9900706 188.95585977 47.09679503 220.04261708 47.19897461 251.12939453 C49.4359093 251.15142866 51.67290691 251.16713494 53.90991211 251.18017578 C55.77848877 251.19431519 55.77848877 251.19431519 57.68481445 251.20874023 C63.73064012 251.07223243 68.47452024 250.12700976 73.19897461 246.12939453 C73.85897461 246.12939453 74.51897461 246.12939453 75.19897461 246.12939453 C75.52897461 245.13939453 75.85897461 244.14939453 76.19897461 243.12939453 C76.85897461 243.12939453 77.51897461 243.12939453 78.19897461 243.12939453 C78.43229492 242.56736328 78.66561523 242.00533203 78.90600586 241.42626953 C80.51834537 238.56205311 82.51833081 236.65687432 84.88647461 234.37939453 C88.61034406 230.73566574 92.1037578 227.01535221 95.48803711 223.05908203 C97.31697324 220.99630932 99.23477919 219.06348734 101.19897461 217.12939453 C105.78736079 212.6028941 109.97019754 207.7749348 114.12084961 202.84814453 C114.74475586 202.11595703 115.36866211 201.38376953 116.01147461 200.62939453 C116.85645508 199.62392578 116.85645508 199.62392578 117.71850586 198.59814453 C119.19897461 197.12939453 119.19897461 197.12939453 121.19897461 197.12939453 C121.44260742 196.55705078 121.68624023 195.98470703 121.93725586 195.39501953 C123.42414759 192.72505915 125.17981369 190.99110446 127.38647461 188.87939453 C130.92952925 185.47905487 134.16759314 181.91105327 137.38037109 178.20410156 C140.22285498 174.96132695 143.17671777 171.82738317 146.13647461 168.69189453 C147.44903358 167.29872092 148.76153141 165.9054897 150.07397461 164.51220703 C150.7481543 163.79709961 151.42233398 163.08199219 152.11694336 162.34521484 C154.23556426 160.09045367 156.34336449 157.82599347 158.44897461 155.55908203 C159.14901611 154.80812256 159.84905762 154.05716309 160.5703125 153.28344727 C161.90576455 151.8507911 163.23848059 150.41557749 164.56787109 148.97729492 C179.01658858 133.52135769 179.01658858 133.52135769 191.49645996 133.04095459 C194.13231263 132.99757751 196.7659005 132.99076216 199.40209961 132.99658203 C200.36170593 132.99562531 201.32131226 132.99466858 202.30999756 132.99368286 C204.32702704 132.99300539 206.34405875 132.99482937 208.36108398 132.99902344 C211.45293021 133.00440141 214.54463273 132.99905172 217.63647461 132.99267578 C219.6000166 132.99333618 221.56355849 132.99461655 223.52709961 132.99658203 C224.45210266 132.9945578 225.37710571 132.99253357 226.33013916 132.990448 C227.18823181 132.99360016 228.04632446 132.99675232 228.93041992 133 C229.68429993 133.00079559 230.43817993 133.00159119 231.21490479 133.00241089 C233.19897461 133.12939453 233.19897461 133.12939453 236.19897461 134.12939453 C234.84660884 137.06818937 233.29954802 139.42172364 231.19897461 141.87939453 C230.68334961 142.49298828 230.16772461 143.10658203 229.63647461 143.73876953 C228.19897461 145.12939453 228.19897461 145.12939453 226.19897461 145.12939453 C225.97338867 145.68369141 225.74780273 146.23798828 225.51538086 146.80908203 C223.81031175 149.81445608 221.6209751 151.85926456 219.13647461 154.25439453 C215.73443978 157.37045219 215.73443978 157.37045219 213.19897461 161.12939453 C212.53897461 161.12939453 211.87897461 161.12939453 211.19897461 161.12939453 C210.9965918 161.66048828 210.79420898 162.19158203 210.58569336 162.73876953 C208.59455627 166.1713777 205.85466272 168.63892908 203.01147461 171.37939453 C198.59686952 175.69550547 194.37266176 180.04271537 190.46850586 184.83642578 C190.04956055 185.26310547 189.63061523 185.68978516 189.19897461 186.12939453 C188.53897461 186.12939453 187.87897461 186.12939453 187.19897461 186.12939453 C186.9450293 186.71205078 186.69108398 187.29470703 186.42944336 187.89501953 C185.06577128 190.37127486 183.55672258 191.93460079 181.51147461 193.87939453 C178.14936919 197.08653317 175.1118151 200.49154596 172.0703125 203.99755859 C169.04325691 207.44599295 165.90541711 210.78774018 162.76147461 214.12939453 C161.7753418 215.18030273 161.7753418 215.18030273 160.76928711 216.25244141 C156.89014878 220.37354579 152.95612604 224.42152589 148.90991211 228.37939453 C146.33706688 231.01098052 143.98876198 233.82546562 141.64428711 236.66064453 C141.16733398 237.14533203 140.69038086 237.63001953 140.19897461 238.12939453 C139.53897461 238.12939453 138.87897461 238.12939453 138.19897461 238.12939453 C137.79606201 239.01340942 137.79606201 239.01340942 137.38500977 239.9152832 C136.1930854 242.14038861 134.93920415 243.71485268 133.22241211 245.55517578 C132.63733887 246.18415771 132.05226563 246.81313965 131.44946289 247.46118164 C130.83055176 248.11481689 130.21164062 248.76845215 129.57397461 249.44189453 C128.63207275 250.44458374 128.63207275 250.44458374 127.67114258 251.4675293 C123.40838716 255.96380767 119.04793315 260.25926303 114.19897461 264.12939453 C114.97241211 264.86802734 115.74584961 265.60666016 116.54272461 266.36767578 C122.42685945 272.06807939 127.69809773 277.74722986 132.37475586 284.51220703 C134.74815053 287.91729146 137.33718477 291.1281227 139.94897461 294.35205078 C141.19897461 296.12939453 141.19897461 296.12939453 141.19897461 298.12939453 C141.85897461 298.12939453 142.51897461 298.12939453 143.19897461 298.12939453 C144.73992607 299.94968182 146.16222932 301.77448225 147.57397461 303.69189453 C148.47752452 304.8934679 149.38253198 306.09394629 150.28881836 307.29345703 C150.76432129 307.92413086 151.23982422 308.55480469 151.72973633 309.20458984 C154.14484094 312.36854544 156.64017736 315.46686992 159.13647461 318.56689453 C163.49059192 323.98708471 167.81684966 329.4273494 172.1003418 334.90356445 C174.49479779 337.96464886 176.90234886 341.01393345 179.33178711 344.04736328 C179.84281982 344.68859131 180.35385254 345.32981934 180.88037109 345.99047852 C181.86561391 347.22614453 182.85456912 348.45886191 183.84765625 349.68823242 C187.19897461 353.90456568 187.19897461 353.90456568 187.19897461 356.12939453 C187.85897461 356.12939453 188.51897461 356.12939453 189.19897461 356.12939453 C191.10902618 358.51091453 192.91490945 360.90589874 194.69897461 363.37939453 C199.18472173 369.48561191 203.81291389 375.35992978 208.70678711 381.14501953 C212.85853077 386.11670003 216.82151329 391.23487863 220.8034668 396.34277344 C222.65506711 398.71331422 224.5173593 401.07534564 226.37963867 403.4375 C228.19824749 405.74642631 230.01116557 408.05977754 231.82299805 410.37402344 C232.76476854 411.57546592 233.70820987 412.77560005 234.65307617 413.97460938 C236.06891059 415.77257703 237.47835808 417.57537936 238.88647461 419.37939453 C239.32096924 419.92861572 239.75546387 420.47783691 240.203125 421.04370117 C243.19897461 424.90127831 243.19897461 424.90127831 243.19897461 427.12939453 C235.79756459 427.23112816 228.39633608 427.30100023 220.99438477 427.34912109 C218.4783657 427.36918969 215.962393 427.39645083 213.4465332 427.43115234 C209.82223033 427.47987765 206.1985462 427.50241175 202.57397461 427.52001953 C200.89694458 427.55098724 200.89694458 427.55098724 199.18603516 427.58258057 C190.87242318 427.58494903 185.36699243 426.23195743 179.36303711 420.35205078 C178.501842 419.3107635 177.65584307 418.25675653 176.82397461 417.19189453 C176.35975098 416.62124268 175.89552734 416.05059082 175.41723633 415.46264648 C173.99223893 413.69895194 172.59150795 411.91879988 171.19897461 410.12939453 C170.78389648 409.59604492 170.36881836 409.06269531 169.94116211 408.51318359 C168.32793892 406.4303043 166.72169057 404.34229653 165.1315918 402.24169922 C161.01236164 396.81373827 156.6804804 391.56254751 152.31274414 386.33325195 C151.77762207 385.68461182 151.2425 385.03597168 150.69116211 384.36767578 C149.96968994 383.50203003 149.96968994 383.50203003 149.23364258 382.61889648 C148.19897461 381.12939453 148.19897461 381.12939453 148.19897461 379.12939453 C147.53897461 379.12939453 146.87897461 379.12939453 146.19897461 379.12939453 C144.67973179 377.32972352 143.27842686 375.52460367 141.88647461 373.62939453 C138.01484958 368.47317174 134.0396428 363.42604099 129.94897461 358.44189453 C125.21188281 352.65602609 120.58265531 346.79712459 116.01147461 340.87939453 C111.34127657 334.83617232 106.57378307 328.9160477 101.64819336 323.07861328 C97.88462128 318.54672026 94.26707492 313.90293522 90.64428711 309.25830078 C89.08529886 307.26349314 87.4991735 305.28939758 85.87866211 303.34423828 C84.19897461 301.12939453 84.19897461 301.12939453 84.19897461 299.12939453 C83.53897461 299.12939453 82.87897461 299.12939453 82.19897461 299.12939453 C78.19897461 294.6588063 78.19897461 294.6588063 78.19897461 292.12939453 C67.80712672 287.43630194 57.70653307 287.76870333 46.19897461 287.12939453 C46.19897461 333.32939453 46.19897461 379.52939453 46.19897461 427.12939453 C27.04069476 428.25635217 27.04069476 428.25635217 20.42553711 428.26220703 C19.72423676 428.26316376 19.0229364 428.26412048 18.30038452 428.2651062 C16.86098131 428.26577129 15.42157476 428.26403781 13.98217773 428.25976562 C11.77573153 428.25427447 9.56947824 428.25982575 7.36303711 428.26611328 C5.94637 428.26545443 4.529703 428.2641773 3.11303711 428.26220703 C1.85442871 428.2610791 0.59582031 428.25995117 -0.70092773 428.25878906 C-3.80102539 428.12939453 -3.80102539 428.12939453 -6.80102539 427.12939453 C-6.80102539 286.54939453 -6.80102539 145.96939453 -6.80102539 1.12939453 C-4.34659691 -0.09781971 -2.74385025 0.00247845 0 0 Z " fill="#D0E2CA" transform="translate(1490.801025390625,324.87060546875)"/>
<path d="M0 0 C0.61617187 0.49242187 1.23234375 0.98484375 1.8671875 1.4921875 C20.26143706 16.61634825 30.85529546 39.01521031 36.38085938 61.69262695 C36.85358117 63.45433581 37.41028726 65.19371726 38.00317383 66.91870117 C41.23441131 76.90680999 41.34716776 87.40751335 41.31567383 97.80517578 C41.31246306 100.02554285 41.3362589 102.2446354 41.36132812 104.46484375 C41.36359721 105.89322751 41.36430644 107.3216148 41.36328125 108.75 C41.36775269 110.66039062 41.36775269 110.66039062 41.37231445 112.609375 C40.96528193 116.31617345 40.31962 118.10419284 38 121 C33.77557989 124.24974543 29.98691575 124.4199187 24.84391785 124.36076355 C24.0270188 124.36332682 23.21011976 124.3658901 22.3684662 124.36853105 C19.63370773 124.37346885 16.89950245 124.35697617 14.16479492 124.34057617 C12.20349134 124.3397299 10.24218681 124.34020505 8.28088379 124.34190369 C2.95688633 124.34276505 -2.3669087 124.32511629 -7.69085908 124.30418181 C-13.25488909 124.28543866 -18.81892364 124.28366643 -24.38298035 124.28010559 C-34.9191089 124.2707782 -45.45514416 124.24615496 -55.99123162 124.21605712 C-67.98626946 124.18253477 -79.98131174 124.16603254 -91.97638476 124.15097082 C-116.65097491 124.11960606 -141.32548223 124.06683201 -166 124 C-165.70191874 127.63847536 -165.39648735 131.27629955 -165.08984375 134.9140625 C-165.0064978 135.93250244 -164.92315186 136.95094238 -164.83728027 138.00024414 C-163.8303302 149.85145423 -162.45500955 161.88868206 -158 173 C-157.6599292 173.8962207 -157.6599292 173.8962207 -157.31298828 174.81054688 C-151.36140247 191.8190684 -151.36140247 191.8190684 -140 205 C-140 205.66 -140 206.32 -140 207 C-139.34 207 -138.68 207 -138 207 C-137.46375 207.70125 -136.9275 208.4025 -136.375 209.125 C-133.33045152 212.81050605 -129.92900365 215.31245237 -126 218 C-125.2575 218.50789062 -124.515 219.01578125 -123.75 219.5390625 C-101.78202387 233.63036298 -72.22628575 235.42557172 -47.19628906 229.97070312 C-31.88340458 226.20615627 -18.0697337 219.30971508 -4.453125 211.515625 C-1.55228751 209.8633843 1.35799 208.24284777 4.3203125 206.703125 C4.93148926 206.38504883 5.54266602 206.06697266 6.17236328 205.73925781 C9.66659808 204.32588045 12.25128507 204.51629485 16 205 C21.11999194 207.83366266 24.23555109 211.35582236 27.6875 215.9375 C28.39616211 216.84918945 28.39616211 216.84918945 29.11914062 217.77929688 C30.44239374 219.49971151 31.725993 221.24294725 33 223 C33.64582031 223.86753906 34.29164063 224.73507812 34.95703125 225.62890625 C36 228 36 228 35.42578125 230.546875 C30.15392802 239.61735124 20.65541041 245.48205136 12 251 C10.95328125 251.680625 9.9065625 252.36125 8.828125 253.0625 C-5.62389973 261.91350079 -22.29894971 267.40454135 -38.89697266 270.59423828 C-40.29796454 270.86454807 -41.69623124 271.1493898 -43.09130859 271.44873047 C-66.78099887 276.47217769 -94.66370946 276.60479061 -118 270 C-118.84981445 269.76925781 -119.69962891 269.53851562 -120.57519531 269.30078125 C-138.10159728 264.42050137 -153.88753625 256.50258944 -168 245 C-168.67474365 244.45093994 -169.3494873 243.90187988 -170.04467773 243.33618164 C-178.84375183 236.06336594 -187.64456749 227.13706867 -193 217 C-193 216.34 -193 215.68 -193 215 C-193.66 215 -194.32 215 -195 215 C-210 188.06113537 -210 188.06113537 -210 177 C-210.66 177 -211.32 177 -212 177 C-212.63551489 174.1895434 -213.2582821 171.37709551 -213.875 168.5625 C-214.04902344 167.79873047 -214.22304687 167.03496094 -214.40234375 166.24804688 C-217.54812718 151.74248996 -218.35119296 137.29914796 -218.31567383 122.49951172 C-218.31251869 119.76619304 -218.3360708 117.03396709 -218.36132812 114.30078125 C-218.42606449 95.9556268 -216.67654045 77.37735195 -209.859375 60.1953125 C-209.21006333 58.53661631 -208.60261141 56.86145016 -208.015625 55.1796875 C-204.66545238 45.84050765 -200.02492482 37.52814038 -195 29 C-194.34 29 -193.68 29 -193 29 C-192.75121094 28.28070313 -192.50242187 27.56140625 -192.24609375 26.8203125 C-187.81494621 16.79119487 -176.18645248 5.05787756 -167 -1 C-166.34 -1 -165.68 -1 -165 -1 C-165 -1.66 -165 -2.32 -165 -3 C-162.77716515 -4.51832982 -160.5727756 -5.89968566 -158.25 -7.25 C-157.56478271 -7.65186523 -156.87956543 -8.05373047 -156.17358398 -8.46777344 C-107.96086276 -36.47925794 -43.91521519 -35.90027097 0 0 Z M-108 14 C-108.96679688 14.29003906 -109.93359375 14.58007812 -110.9296875 14.87890625 C-122.25058808 18.62640658 -133.81021708 25.33098159 -141 35 C-141.77988281 35.75023437 -142.55976563 36.50046875 -143.36328125 37.2734375 C-150.80812413 44.9719565 -155.25800321 55.10227568 -159 65 C-159.29648438 65.71800781 -159.59296875 66.43601562 -159.8984375 67.17578125 C-163.11682149 75.12614565 -164 82.40404642 -164 91 C-112.19 91 -60.38 91 -7 91 C-7 70.03306741 -10.27725929 48.51006485 -25.75 32.9375 C-26.82730946 31.95170955 -27.91073217 30.97256057 -29 30 C-29.61875 29.35160156 -30.2375 28.70320313 -30.875 28.03515625 C-46.72615951 12.85417444 -66.94325547 10.58085957 -87.79296875 10.78125 C-94.85531751 10.95094152 -101.22898146 11.89647024 -108 14 Z " fill="#D0E2CA" transform="translate(3037,482)"/>
<path d="M0 0 C2.18695402 2.14671143 2.18695402 2.14671143 4.77734375 4.1171875 C11.14300789 9.30479042 15.18851349 17.02159737 19.18359375 24.078125 C19.61671875 24.81289063 20.04984375 25.54765625 20.49609375 26.3046875 C24.57428091 33.72189039 26.50907116 41.75157329 28.5769043 49.90332031 C29.18163708 52.17899737 29.18163708 52.17899737 30.15208626 54.73825932 C31.27466968 58.37301514 31.86674919 61.92587273 32.29440308 65.69078064 C32.37871169 66.42825529 32.4630203 67.16572994 32.54988372 67.92555231 C33.49970949 77.03242863 33.44810834 86.12975506 33.41064453 95.27563477 C33.41007886 97.23870844 33.41040001 99.20178253 33.41152954 101.16485596 C33.41209799 106.43851254 33.40042696 111.71207616 33.38638163 116.98571134 C33.37378858 122.5176452 33.37269706 128.04958173 33.37033081 133.58152771 C33.36414104 144.03223382 33.34776447 154.48289756 33.32763183 164.93358511 C33.30519445 176.8418484 33.29425978 188.75011382 33.28424096 200.65839303 C33.26339574 225.13166041 33.22826898 249.60489032 33.18359375 274.078125 C29.22617311 274.30697698 25.26777957 274.50738997 21.30859375 274.703125 C20.2 274.76757812 19.09140625 274.83203125 17.94921875 274.8984375 C1.65753809 275.66510483 1.65753809 275.66510483 -4.75390625 270.890625 C-9.79678823 264.01396775 -10.95536726 256.36986997 -12.50390625 248.140625 C-12.72884766 246.97982422 -12.95378906 245.81902344 -13.18554688 244.62304688 C-13.73620748 241.77601439 -14.27960385 238.92779708 -14.81640625 236.078125 C-15.29851563 236.51125 -15.780625 236.944375 -16.27734375 237.390625 C-16.90898437 237.9475 -17.540625 238.504375 -18.19140625 239.078125 C-18.81789063 239.635 -19.444375 240.191875 -20.08984375 240.765625 C-21.81640625 242.078125 -21.81640625 242.078125 -23.81640625 242.078125 C-24.14640625 243.068125 -24.47640625 244.058125 -24.81640625 245.078125 C-50.79788082 270.07807719 -86.14341639 279.64882918 -121.27734375 279.2890625 C-144.5366015 278.74752761 -165.31662903 270.81029345 -181.81640625 254.078125 C-186.72096728 248.57124945 -192.81640625 240.66953766 -192.81640625 233.078125 C-193.47640625 233.078125 -194.13640625 233.078125 -194.81640625 233.078125 C-195.29941828 231.37087492 -195.77762583 229.66226526 -196.25390625 227.953125 C-196.65416016 226.52613281 -196.65416016 226.52613281 -197.0625 225.0703125 C-201.07890105 209.12957052 -200.52052027 190.50979061 -194.81640625 175.078125 C-194.15640625 175.078125 -193.49640625 175.078125 -192.81640625 175.078125 C-192.54828125 173.86125 -192.28015625 172.644375 -192.00390625 171.390625 C-186.12457561 153.86304305 -165.92421439 141.59960369 -150.38671875 133.82421875 C-134.14994963 126.00301988 -117.001644 121.40581509 -99.50390625 117.328125 C-98.30822021 117.0482373 -98.30822021 117.0482373 -97.08837891 116.76269531 C-82.00956934 113.41184874 -66.81023275 111.60587069 -51.4152832 110.57006836 C-48.72339483 110.38856777 -46.0326517 110.19422718 -43.34179688 109.99804688 C-35.1545568 109.4145144 -27.02974647 108.89864514 -18.81640625 109.078125 C-18.88653094 104.26199228 -18.975048 99.44662815 -19.07885742 94.63110352 C-19.11160988 93.00130937 -19.13978649 91.37141524 -19.1628418 89.74145508 C-19.44180546 70.51670363 -20.94858447 51.38128901 -33.81640625 36.078125 C-34.42742188 35.25441406 -35.0384375 34.43070313 -35.66796875 33.58203125 C-43.62159976 24.31243583 -56.0321218 20.22223029 -67.81640625 19.078125 C-97.18821924 17.28576385 -122.68058682 26.86382309 -145.98046875 44.73828125 C-150.94995274 48.36494723 -156.73321975 49.83852331 -162.81640625 49.078125 C-172.60319274 45.75961694 -177.11835144 37.77159299 -181.81640625 29.078125 C-183.01949784 26.59224174 -183.83862162 24.83937173 -183.7578125 22.0703125 C-174.73467169 2.97569916 -140.6279959 -10.50683663 -121.72265625 -17.28125 C-111.01906852 -20.87835735 -100.03514932 -22.78219316 -88.81640625 -23.921875 C-87.64980469 -24.045625 -86.48320312 -24.169375 -85.28125 -24.296875 C-54.87949121 -26.94338284 -22.7237741 -21.89673899 0 0 Z M-52.00390625 144.328125 C-53.06899918 144.4279921 -53.06899918 144.4279921 -54.15560913 144.52987671 C-81.4751039 147.12037701 -115.93890882 151.21153797 -136.81640625 171.078125 C-137.45964844 171.68140625 -138.10289062 172.2846875 -138.765625 172.90625 C-147.13777683 181.54167704 -148.37133577 191.06544197 -148.30029297 202.64111328 C-148.05512023 210.4029592 -146.29319605 217.1245454 -142.81640625 224.078125 C-142.15640625 224.078125 -141.49640625 224.078125 -140.81640625 224.078125 C-140.56890625 224.635 -140.32140625 225.191875 -140.06640625 225.765625 C-137.09211694 231.26806023 -133.78497715 234.00604734 -128.19140625 236.765625 C-127.04414063 237.34699219 -125.896875 237.92835938 -124.71484375 238.52734375 C-116.60660358 242.04465556 -108.16373332 242.41251819 -99.44140625 242.328125 C-98.42844482 242.32135742 -97.4154834 242.31458984 -96.37182617 242.30761719 C-70.52688543 241.95013188 -46.45012422 230.71184297 -28.19140625 212.453125 C-25.81640625 210.078125 -25.81640625 210.078125 -23.12890625 207.953125 C-20.62486956 206.11251427 -20.62486956 206.11251427 -18.81640625 203.078125 C-18.52548428 200.34835296 -18.52548428 200.34835296 -18.58935547 197.22973633 C-18.58950653 196.0287178 -18.58965759 194.82769928 -18.58981323 193.59028625 C-18.6001358 192.29334335 -18.61045837 190.99640045 -18.62109375 189.66015625 C-18.6248247 188.31923127 -18.62767128 186.97830356 -18.62966919 185.63737488 C-18.63729926 182.11097667 -18.65694222 178.58474366 -18.67907715 175.05841064 C-18.69954915 171.45888504 -18.7086738 167.85933269 -18.71875 164.25976562 C-18.7401888 157.19915124 -18.77431712 150.13864891 -18.81640625 143.078125 C-29.95559507 142.92270651 -40.91074106 143.26360859 -52.00390625 144.328125 Z " fill="#CFE2C9" transform="translate(2490.81640625,477.921875)"/>
<path d="M0 0 C15.05915124 13.42903693 23.95130106 29.68849154 29.2734375 49.02734375 C29.61503906 50.02121094 29.95664063 51.01507812 30.30859375 52.0390625 C31.24583938 54.9418678 31.84758812 57.70677575 32.3359375 60.71484375 C32.49191406 61.64683594 32.64789062 62.57882812 32.80859375 63.5390625 C34.32121936 74.89011017 34.41615423 86.09734585 34.40283203 97.52783203 C34.40418889 99.48839856 34.40597043 101.44896484 34.40814209 103.40953064 C34.41267949 108.70423848 34.41094292 113.99892673 34.407763 119.29363489 C34.40522386 124.83848783 34.40758094 130.38333913 34.40914917 135.92819214 C34.4109648 145.22687073 34.40857886 154.52554137 34.40380859 163.82421875 C34.39835112 174.58703626 34.4001418 185.34983488 34.405635 196.11265194 C34.41016433 205.35612657 34.41081805 214.59959549 34.40819633 223.84307086 C34.40663462 229.36333138 34.40643724 234.88358298 34.40973282 240.40384293 C34.41260945 245.58309637 34.41063973 250.76232523 34.40483856 255.941576 C34.40351053 257.84720761 34.40390581 259.75284126 34.40610123 261.65847206 C34.40881063 264.24777649 34.4054344 266.83700081 34.40042114 269.42630005 C34.40265186 270.1901826 34.40488259 270.95406515 34.40718091 271.74109566 C34.38758843 276.91319282 34.38758843 276.91319282 33.2734375 278.02734375 C31.75468771 278.12572497 30.23140491 278.15532904 28.70947266 278.15673828 C27.73821442 278.15989044 26.76695618 278.1630426 25.76626587 278.16629028 C24.70902313 278.16426605 23.6517804 278.16224182 22.5625 278.16015625 C20.94388565 278.16159134 20.94388565 278.16159134 19.29257202 278.16305542 C17.00429222 278.16373752 14.71601049 278.16188117 12.42773438 278.15771484 C8.92052867 278.15237737 5.41345164 278.1576535 1.90625 278.1640625 C-0.31250028 278.16340152 -2.53125049 278.16211995 -4.75 278.16015625 C-5.80319427 278.16218048 -6.85638855 278.16420471 -7.9414978 278.16629028 C-8.91906036 278.16313812 -9.89662292 278.15998596 -10.90380859 278.15673828 C-11.76461029 278.15594269 -12.62541199 278.15514709 -13.51229858 278.15432739 C-15.7265625 278.02734375 -15.7265625 278.02734375 -18.7265625 277.02734375 C-18.72802906 276.00803583 -18.72949562 274.98872791 -18.73100662 273.93853188 C-18.76769352 249.0717816 -18.82726301 224.20516505 -18.91046524 199.33852577 C-18.95017906 187.31292132 -18.98261035 175.28738159 -18.99755859 163.26171875 C-19.0106149 152.77325827 -19.0376806 142.28494064 -19.08117557 131.79656065 C-19.10370114 126.24928691 -19.11947855 120.70218879 -19.11844635 115.15486526 C-19.11769445 109.91973852 -19.1358559 104.68499866 -19.16773033 99.44997215 C-19.17615908 97.54183279 -19.17802786 95.63364968 -19.17236519 93.72550011 C-19.1336428 78.65468626 -20.1106544 62.81344834 -27.6015625 49.33984375 C-27.95033447 48.68322754 -28.29910645 48.02661133 -28.65844727 47.35009766 C-35.4880125 34.82531112 -45.34699421 28.61412977 -58.7265625 24.02734375 C-79.77130261 17.9561407 -103.38892952 22.98355994 -122.3515625 32.83984375 C-133.37996383 39.13495723 -142.6667667 47.21990607 -151.7265625 56.02734375 C-152.57109828 56.7026221 -153.41563406 57.37790045 -154.28576183 58.07364178 C-157.5875724 62.06928325 -157.43081055 64.7983123 -157.36579895 69.82881165 C-157.37833246 71.1582908 -157.37833246 71.1582908 -157.39111918 72.51462811 C-157.41306633 75.48451716 -157.39943672 78.45317171 -157.38598633 81.4230957 C-157.39443807 83.55189453 -157.40508149 85.68068562 -157.41775513 87.8094635 C-157.44594669 93.59008227 -157.44342174 99.37033054 -157.43546128 105.1509974 C-157.43234037 111.19155643 -157.45735844 117.2319966 -157.47941589 123.27250671 C-157.51689924 134.71171882 -157.52900644 146.15081203 -157.5320403 157.59007949 C-157.53672646 170.6129797 -157.56963562 183.63576047 -157.60493815 196.65860808 C-157.67692622 223.44817216 -157.713398 250.23769076 -157.7265625 277.02734375 C-161.32755001 277.64868324 -164.7431428 278.15290742 -168.39916992 278.15673828 C-169.26994675 278.15989044 -170.14072357 278.1630426 -171.03788757 278.16629028 C-171.95995499 278.16426605 -172.8820224 278.16224182 -173.83203125 278.16015625 C-174.79305252 278.16111298 -175.75407379 278.1620697 -176.74421692 278.16305542 C-178.76722276 278.16373366 -180.79023081 278.16190425 -182.81323242 278.15771484 C-185.91394909 278.15234395 -189.01452208 278.15768092 -192.11523438 278.1640625 C-194.08333365 278.163402 -196.05143284 278.16212142 -198.01953125 278.16015625 C-198.94767136 278.16218048 -199.87581146 278.16420471 -200.83207703 278.16629028 C-201.69339737 278.16313812 -202.55471771 278.15998596 -203.44213867 278.15673828 C-204.57748299 278.15554489 -204.57748299 278.15554489 -205.73576355 278.15432739 C-207.7265625 278.02734375 -207.7265625 278.02734375 -210.7265625 277.02734375 C-210.74942752 239.71789864 -210.76706004 202.40845458 -210.77762783 165.09900388 C-210.77887861 160.69905922 -210.78017292 156.29911457 -210.78149414 151.89916992 C-210.78175645 151.0231821 -210.78201876 150.14719429 -210.78228902 149.24466138 C-210.786646 135.04160945 -210.7945337 120.83856154 -210.8037153 106.635512 C-210.81305107 92.07303762 -210.81861795 77.51056536 -210.82065099 62.94808811 C-210.82202638 53.95481913 -210.82637782 44.96156153 -210.83447897 35.96829604 C-210.83974548 29.80989485 -210.84136701 23.65149958 -210.84006388 17.4930963 C-210.83942035 13.93457136 -210.84043967 10.37606637 -210.84576797 6.81754494 C-210.85148925 2.96869287 -210.84956358 -0.88013277 -210.84681702 -4.72898865 C-210.84972986 -5.86612366 -210.8526427 -7.00325867 -210.85564381 -8.17485231 C-210.85365276 -9.19747826 -210.85166171 -10.22010422 -210.84961033 -11.27371883 C-210.84999005 -12.16340357 -210.85036977 -13.0530883 -210.850761 -13.96973318 C-210.7265625 -15.97265625 -210.7265625 -15.97265625 -209.7265625 -16.97265625 C-205.29457204 -17.21688383 -200.85668608 -17.20125891 -196.41870117 -17.21289062 C-194.19736062 -17.22251202 -191.97697913 -17.253479 -189.75585938 -17.28515625 C-173.29243395 -17.41087653 -173.29243395 -17.41087653 -168.16479492 -12.46679688 C-163.11386581 -6.47967584 -163.45499276 2.59226195 -162.94433594 10.04785156 C-162.71737453 12.1108595 -162.24278617 14.01977828 -161.7265625 16.02734375 C-161.60450921 18.70275191 -161.68188937 21.34695613 -161.7265625 24.02734375 C-158.18424721 20.96207378 -154.65140024 17.89701063 -151.23828125 14.6875 C-111.49913527 -22.57898801 -45.0146931 -37.94928011 0 0 Z " fill="#CFE2C9" transform="translate(1405.7265625,474.97265625)"/>
<path d="M0 0 C18.48 0 36.96 0 56 0 C56 121.11 56 242.22 56 367 C115.07 367 174.14 367 235 367 C235 383.17 235 399.34 235 416 C205.51265863 416.02203786 176.02532205 416.04050495 146.53797461 416.05106533 C143.058194 416.05231606 139.5784134 416.05361038 136.09863281 416.05493164 C135.40585943 416.05519395 134.71308604 416.05545626 133.99931952 416.05572652 C122.77612914 416.06008003 111.55294387 416.06796584 100.32975653 416.0771528 C88.81717092 416.08649818 77.30458891 416.09198262 65.79199958 416.09408849 C59.32411939 416.09539448 52.85625081 416.09847332 46.38837433 416.10573006 C40.30476709 416.11250057 34.22117626 416.11461484 28.13756561 416.11310768 C25.90101533 416.11338354 23.66446451 416.11538256 21.42791748 416.11920547 C18.38146968 416.12415877 15.33508441 416.12299217 12.28863525 416.12025452 C10.9520623 416.12462378 10.9520623 416.12462378 9.58848786 416.12908131 C8.7723759 416.12709026 7.95626393 416.12509921 7.1154213 416.12304783 C6.41217924 416.12342755 5.70893719 416.12380727 4.98438478 416.1241985 C2.88665012 415.99290567 1.01909359 415.57036199 -1 415 C-1.02286398 362.27586964 -1.040497 309.55173977 -1.05106533 256.82760543 C-1.05231611 250.61008655 -1.05361043 244.39256769 -1.05493164 238.17504883 C-1.05519395 236.93719662 -1.05545626 235.69934442 -1.05572652 234.42398154 C-1.06008375 214.35255747 -1.06797158 194.28113626 -1.0771528 174.20971388 C-1.08648787 153.63105341 -1.0920553 133.05239444 -1.09408849 112.47373194 C-1.09546403 99.7646191 -1.09981624 87.05551431 -1.10791647 74.34640395 C-1.11318213 65.64400433 -1.11480471 56.94160891 -1.11350138 48.23920781 C-1.11285771 43.21034169 -1.11387868 38.18148968 -1.11920547 33.15262604 C-1.12403841 28.5567325 -1.12433936 23.9608627 -1.12089889 19.36496811 C-1.1204731 17.69470517 -1.12176972 16.0244408 -1.12488318 14.3541807 C-1.12884549 12.0989704 -1.12676445 9.84384795 -1.12304783 7.58863926 C-1.12342755 6.33138525 -1.12380727 5.07413123 -1.1241985 3.77877861 C-1 1 -1 1 0 0 Z " fill="#CFE2C9" transform="translate(839,337)"/>
<path d="M0 0 C5.03268205 4.3991976 5.03268205 4.3991976 7.10546875 6.56640625 C7.10546875 7.22640625 7.10546875 7.88640625 7.10546875 8.56640625 C7.76546875 8.56640625 8.42546875 8.56640625 9.10546875 8.56640625 C20.83520674 22.00868599 28.37417391 38.19571609 32.10546875 55.56640625 C32.27747803 56.30479736 32.4494873 57.04318848 32.62670898 57.80395508 C36.21956006 78.53476073 33.71223763 101.94549385 24.10546875 120.56640625 C23.8115625 121.22253906 23.51765625 121.87867188 23.21484375 122.5546875 C21.10015007 127.19740135 18.34375105 131.3598977 15.48046875 135.56640625 C15.08375977 136.15534668 14.68705078 136.74428711 14.27832031 137.35107422 C13.27423617 138.79492503 12.19534971 140.1861709 11.10546875 141.56640625 C10.44546875 141.56640625 9.78546875 141.56640625 9.10546875 141.56640625 C8.85925781 142.13230469 8.61304688 142.69820312 8.359375 143.28125 C-0.08319726 158.66724618 -21.63032141 168.94065868 -37.67797852 173.63330078 C-64.19044066 181.16674945 -92.12246825 178.80677288 -116.48217773 165.69702148 C-123.13883108 161.95180155 -129.20467431 157.66673327 -134.89453125 152.56640625 C-136.32732422 151.29216797 -136.32732422 151.29216797 -137.7890625 149.9921875 C-150.15175282 138.55101427 -159.95774588 123.45777249 -164.51953125 107.19140625 C-164.72320312 106.50046875 -164.926875 105.80953125 -165.13671875 105.09765625 C-172.02562046 81.16313878 -171.11643536 53.73466475 -158.89453125 31.56640625 C-158.45496094 30.6846875 -158.01539063 29.80296875 -157.5625 28.89453125 C-153.82205969 21.59912701 -149.29085339 14.75059142 -143.89453125 8.56640625 C-143.23453125 8.56640625 -142.57453125 8.56640625 -141.89453125 8.56640625 C-141.64703125 7.98890625 -141.39953125 7.41140625 -141.14453125 6.81640625 C-139.71153137 4.23700646 -138.11028449 2.50519033 -135.89453125 0.56640625 C-135.23453125 0.56640625 -134.57453125 0.56640625 -133.89453125 0.56640625 C-133.89453125 -0.09359375 -133.89453125 -0.75359375 -133.89453125 -1.43359375 C-94.60625228 -33.85987879 -38.50172118 -32.37054291 0 0 Z " fill="#D3E5CD" transform="translate(225.89453125,300.43359375)"/>
<path d="M0 0 C0 33 0 66 0 100 C27.59949699 99.96038385 27.59949699 99.96038385 55.19897461 99.90991211 C60.52648926 99.90539551 60.52648926 99.90539551 63.01734924 99.90455627 C64.76397455 99.90301665 66.51059877 99.89949135 68.25721741 99.89442444 C70.89667621 99.88714756 73.53606984 99.88609256 76.17553711 99.88647461 C76.95888144 99.8828765 77.74222578 99.87927839 78.54930782 99.87557125 C83.88597366 99.88597366 83.88597366 99.88597366 85 101 C85.08858646 103.73894085 85.11523479 106.4525327 85.09765625 109.19140625 C85.09553383 110.42116432 85.09553383 110.42116432 85.09336853 111.67576599 C85.08775289 114.30471382 85.07519779 116.93357773 85.0625 119.5625 C85.05748701 121.34049357 85.05292376 123.11848846 85.04882812 124.89648438 C85.03777839 129.26435545 85.02050331 133.63216348 85 138 C77.29619617 138.13259449 69.59235969 138.26309533 61.88847923 138.39115143 C58.30861082 138.45071796 54.72875584 138.51092161 51.14892578 138.57275391 C47.67350472 138.63275647 44.19805602 138.69086062 40.72258377 138.74781799 C38.79683629 138.77982243 36.87111913 138.81363608 34.94540405 138.84753418 C23.63014246 139.03028304 12.31645814 139.0221915 1 139 C0.95320007 162.11417248 0.91797205 185.2283371 0.89637566 208.34254742 C0.88607985 219.0757932 0.87205203 229.80900948 0.84912109 240.54223633 C0.82913521 249.90147463 0.81627125 259.26069155 0.81182301 268.61995059 C0.80922442 273.57180702 0.80315215 278.52360231 0.78853989 283.47543907 C0.77487371 288.14489587 0.77079547 292.81426686 0.77378464 297.48374176 C0.77323849 299.18920929 0.76931524 300.89467996 0.76158905 302.60013008 C0.23618868 323.13428482 0.23618868 323.13428482 9 341 C18.05056757 348.27980435 27.63539631 349.9409245 39 349 C46.9478737 347.51484988 53.55605809 343.81774394 60.31640625 339.53125 C63.88604174 337.35685275 66.43142965 336.06862056 70.625 335.5625 C78.75555995 339.02551627 83.36197038 350.32415729 87 358 C87 358.66 87 359.32 87 360 C87.66 360 88.32 360 89 360 C90.29258459 362.12896286 91.06313218 363.42011925 90.7890625 365.9375 C87.59091604 374.29701154 72.98039125 380.2062854 65.09765625 383.88867188 C43.15475091 393.60368007 16.25509724 397.28189914 -7 390 C-8.1034375 389.6596875 -9.206875 389.319375 -10.34375 388.96875 C-24.83555482 383.95756515 -35.93078537 374.27623641 -43.55078125 361.01953125 C-52.48064892 342.41363445 -53.13613404 323.87116585 -53.20532227 303.61181641 C-53.21492456 301.80681649 -53.22493592 300.00181871 -53.23532104 298.19682312 C-53.26212184 293.34038285 -53.28326418 288.48393312 -53.30332303 283.62746096 C-53.32533759 278.53591512 -53.35264988 273.44439763 -53.37937927 268.35287476 C-53.42909865 258.73083827 -53.47411361 249.10878587 -53.51740164 239.48671854 C-53.56695252 228.52406857 -53.62180389 217.56144709 -53.67708123 206.59882474 C-53.79058225 184.06590978 -53.89748948 161.53296745 -54 139 C-54.65157074 139.00163651 -55.30314148 139.00327301 -55.97445679 139.00495911 C-58.96994937 139.01151587 -61.96544044 139.01553969 -64.9609375 139.01953125 C-66.49802368 139.02345886 -66.49802368 139.02345886 -68.06616211 139.02746582 C-92.39025641 139.051722 -92.39025641 139.051722 -97 135 C-99.08389518 129.22391816 -99.28339828 123.77956461 -99.1875 117.6875 C-99.18685547 116.89021484 -99.18621094 116.09292969 -99.18554688 115.27148438 C-99.16032575 111.93949302 -99.06011284 109.18033851 -98 106 C-90.38859324 103.71657797 -82.37026384 103.06756974 -74.49658203 102.14013672 C-72.24048596 101.87387717 -69.98547345 101.59955331 -67.73046875 101.32421875 C-55.72761696 99.88333863 -55.72761696 99.88333863 -51 100 C-50.96261719 99.35417969 -50.92523437 98.70835937 -50.88671875 98.04296875 C-50.44792992 91.75366217 -49.64978486 85.60141258 -48.609375 79.390625 C-47.47665963 72.4238418 -46.53123162 65.45661009 -45.75390625 58.44140625 C-45.65486496 57.55019577 -45.55582367 56.65898529 -45.45378113 55.74076843 C-45.05355619 52.10677 -44.65905363 48.47222257 -44.27319336 44.83666992 C-43.20281718 34.81863191 -41.95375738 24.86986066 -40.08984375 14.96484375 C-39.86899864 13.7217318 -39.86899864 13.7217318 -39.64369202 12.45350647 C-38.69162423 7.67790021 -37.54134261 4.55521493 -34 1 C-24.85150905 -3.57424547 -9.44055348 -0.85823213 0 0 Z " fill="#CFE2C9" transform="translate(2210,364)"/>
<path d="M0 0 C1.49648827 -0.00472824 1.49648827 -0.00472824 3.02320862 -0.009552 C4.10343796 -0.00752777 5.1836673 -0.00550354 6.29663086 -0.00341797 C7.40123154 -0.00437469 8.50583221 -0.00533142 9.64390564 -0.00631714 C11.98167986 -0.00699847 14.31945596 -0.00514743 16.65722656 -0.00097656 C20.24996149 0.00437737 23.84257169 -0.00092577 27.43530273 -0.00732422 C29.70157905 -0.00666353 31.9678553 -0.00538256 34.23413086 -0.00341797 C35.85751122 -0.00645432 35.85751122 -0.00645432 37.51368713 -0.009552 C39.00544716 -0.00482376 39.00544716 -0.00482376 40.52734375 0 C41.40733536 0.00079559 42.28732697 0.00159119 43.19398499 0.00241089 C45.19897461 0.12939453 45.19897461 0.12939453 46.19897461 1.12939453 C46.29684086 2.69227667 46.32452982 4.25959537 46.32481575 5.82553864 C46.3274235 6.84754789 46.33003124 7.86955714 46.33271801 8.92253637 C46.33048729 10.05898926 46.32825657 11.19544215 46.32595825 12.36633301 C46.32751824 13.56296271 46.32907823 14.75959241 46.3306855 15.99248362 C46.33399881 19.32897448 46.33278629 22.66540955 46.32969928 26.0018971 C46.32744706 29.59429958 46.3309239 33.18669701 46.3336792 36.77909851 C46.33813781 43.8225438 46.33716003 50.86597847 46.33426656 57.90942419 C46.33201288 63.63117077 46.33169985 69.35291436 46.33279037 75.07466125 C46.33294361 75.88741789 46.33309684 76.70017452 46.33325472 77.53756014 C46.33357443 79.18839387 46.33389864 80.83922761 46.33422731 82.49006134 C46.33708237 97.98864409 46.33379467 113.48722093 46.32842694 128.98580271 C46.32395888 142.29913185 46.32473481 155.61245227 46.3293457 168.92578125 C46.33469101 184.36696246 46.33680767 199.8081385 46.33373344 215.24932051 C46.33341487 216.89425627 46.3331005 218.53919204 46.33279037 220.18412781 C46.33255896 221.39830072 46.33255896 221.39830072 46.33232287 222.63700238 C46.33145759 228.35527763 46.33292084 234.0735496 46.33526993 239.79182434 C46.33806764 246.75560548 46.33733027 253.71937534 46.33198918 260.68315518 C46.32935178 264.2396603 46.32834775 267.79614659 46.33163834 271.3526516 C46.33514364 275.19926386 46.3309729 279.04584492 46.32595825 282.89245605 C46.32818897 284.02890894 46.3304197 285.16536183 46.33271801 286.33625269 C46.32880639 287.86926657 46.32880639 287.86926657 46.32481575 289.43325043 C46.3246534 290.32239309 46.32449105 291.21153575 46.32432377 292.12762213 C46.19897461 294.12939453 46.19897461 294.12939453 45.19897461 295.12939453 C43.64428206 295.22785914 42.08515061 295.25738066 40.52734375 295.25878906 C39.53283707 295.26194122 38.53833038 295.26509338 37.51368713 295.26834106 C36.43143356 295.26631683 35.34917999 295.2642926 34.23413086 295.26220703 C32.57866493 295.26364212 32.57866493 295.26364212 30.88975525 295.2651062 C28.55020084 295.26578825 26.21064455 295.26393223 23.87109375 295.25976562 C20.28047447 295.2544228 16.68998057 295.25970719 13.09936523 295.26611328 C10.83178683 295.2654524 8.56420851 295.26417104 6.29663086 295.26220703 C4.67628685 295.26524338 4.67628685 295.26524338 3.02320862 295.26834106 C2.02554977 295.2651889 1.02789093 295.26203674 0 295.25878906 C-1.3211808 295.25759567 -1.3211808 295.25759567 -2.66905212 295.25637817 C-4.80102539 295.12939453 -4.80102539 295.12939453 -6.80102539 294.12939453 C-6.80102539 197.43939453 -6.80102539 100.74939453 -6.80102539 1.12939453 C-4.34659691 -0.09781971 -2.74385025 0.00247845 0 0 Z " fill="#CEE0C8" transform="translate(1098.801025390625,457.87060546875)"/>
<path d="M0 0 C8.78466261 6.28519954 13.97995678 15.05484727 16.53515625 25.4921875 C17.81898349 35.8060805 15.28515913 44.97814027 9.265625 53.390625 C2.27657211 61.87845898 -5.83920625 66.57976231 -16.671875 68.23828125 C-27.94751755 69.26333966 -37.75790362 65.64364153 -46.42578125 58.4765625 C-54.34661838 50.76816161 -57.73387224 42.0124641 -57.90234375 31.1171875 C-57.81530529 20.05257292 -54.41707602 11.40048479 -46.46484375 3.4921875 C-32.58668297 -7.21791007 -15.27645715 -9.34502767 0 0 Z " fill="#D0E3CA" transform="translate(1139.46484375,335.5078125)"/>
<path d="M0 0 C0.66 0.33 1.32 0.66 2 1 C-3.61 6.61 -9.22 12.22 -15 18 C-15.66 17.67 -16.32 17.34 -17 17 C-15.625 15 -15.625 15 -14 13 C-13.34 13 -12.68 13 -12 13 C-11.7525 12.4225 -11.505 11.845 -11.25 11.25 C-9.81700012 8.67060021 -8.21575324 6.93878408 -6 5 C-5.34 5 -4.68 5 -4 5 C-4 4.34 -4 3.68 -4 3 C-2 1.375 -2 1.375 0 0 Z " fill="#94A290" transform="translate(96,296)"/>
<path d="M0 0 C0.66 0.33 1.32 0.66 2 1 C-3.28 6.28 -8.56 11.56 -14 17 C-14.66 16.67 -15.32 16.34 -16 16 C-11.03093773 10.1719243 -5.90436923 4.8836671 0 0 Z " fill="#92A18E" transform="translate(2321,623)"/>
<path d="M0 0 C0.66 0.33 1.32 0.66 2 1 C-2.95 5.95 -7.9 10.9 -13 16 C-13.66 15.67 -14.32 15.34 -15 15 C-10.3143947 9.52331848 -5.59753384 4.54799625 0 0 Z " fill="#8F9C8B" transform="translate(2593,476)"/>
<path d="M0 0 C0.66 0.33 1.32 0.66 2 1 C-1.96 4.96 -5.92 8.92 -10 13 C-10.66 12.67 -11.32 12.34 -12 12 C-8.32167983 7.47384007 -4.58913637 3.60575001 0 0 Z " fill="#869582" transform="translate(2592,634)"/>
<path d="M0 0 C0.66 0.33 1.32 0.66 2 1 C-0.64 3.64 -3.28 6.28 -6 9 C-6.66 8.67 -7.32 8.34 -8 8 C-5.58443874 4.80800833 -3.31996462 2.25283313 0 0 Z " fill="#8B9B86" transform="translate(1097,336)"/>
</svg>
