<?xml version="1.0" encoding="UTF-8"?>
<svg version="1.1" xmlns="http://www.w3.org/2000/svg" width="3219" height="1073">
<path d="M0 0 C0.66902344 0.41765625 1.33804687 0.8353125 2.02734375 1.265625 C3.3871422 2.1230979 4.7014119 3.05238165 6 4 C6 4.66 6 5.32 6 6 C6.59554688 6.27328125 7.19109375 6.5465625 7.8046875 6.828125 C18.78629821 12.69019477 27.23704472 27.97192662 32 39 C32.53367187 40.19496094 32.53367187 40.19496094 33.078125 41.4140625 C43.17792683 65.15613397 42.27407344 91.97377035 32.91015625 115.76953125 C29.54531917 123.50752359 25.2756978 130.74171058 21 138 C20.50371094 138.84626953 20.00742187 139.69253906 19.49609375 140.56445312 C13.63867949 150.55028587 7.73224642 160.49681983 1.625 170.33203125 C-0.23378385 173.38383262 -1.95311121 176.49460849 -3.66015625 179.6328125 C-5.33899029 182.59891578 -7.13666905 185.4814153 -8.9375 188.375 C-11.99339907 193.29998556 -14.83758725 198.28917463 -17.578125 203.39453125 C-20.50404047 208.7560302 -23.72110294 213.94297883 -26.9453125 219.12890625 C-30.65758424 225.10665181 -34.1859561 231.11601548 -37.50390625 237.3203125 C-39.59868377 241.0723161 -41.94593674 244.64460409 -44.28125 248.25 C-45.969297 250.9508752 -47.49979676 253.69110883 -49 256.5 C-51.47376982 261.13173923 -54.19481356 265.5294244 -57.09375 269.90625 C-58.76791582 272.6233388 -60.3029707 275.36180646 -61.8203125 278.16796875 C-64.86719858 283.80195878 -68.09299904 289.31302376 -71.375 294.8125 C-75.12140951 301.11398101 -78.83934542 307.42514782 -82.4375 313.8125 C-84.9725834 318.28742708 -87.66710514 322.56156707 -90.57421875 326.80078125 C-92.74233364 330.14502421 -94.55886453 333.66518207 -96.43359375 337.1796875 C-98.01828517 340.03292243 -99.72509889 342.76158114 -101.5 345.5 C-104.35894645 349.92292153 -106.92791264 354.43184385 -109.41796875 359.0703125 C-114.03735084 367.62472379 -118.93379751 375.97069037 -124.125 384.1875 C-128.00744697 390.33470771 -131.60246582 396.56963869 -135 403 C-136.12246225 405.0638822 -137.24742872 407.1264046 -138.375 409.1875 C-138.87773437 410.10917969 -139.38046875 411.03085937 -139.8984375 411.98046875 C-140.26195312 412.64691406 -140.62546875 413.31335938 -141 414 C-141.66 414 -142.32 414 -143 414 C-143.12310547 414.58644287 -143.24621094 415.17288574 -143.37304688 415.77709961 C-144.0035134 418.01245696 -144.8105797 419.6011163 -146.03125 421.56640625 C-146.62873047 422.5419043 -146.62873047 422.5419043 -147.23828125 423.53710938 C-147.86283203 424.53967773 -147.86283203 424.53967773 -148.5 425.5625 C-151.66819501 430.57159976 -151.66819501 430.57159976 -154 436 C-154.66 436 -155.32 436 -156 436 C-156.09023438 436.52464844 -156.18046875 437.04929687 -156.2734375 437.58984375 C-157.25646065 440.85073239 -158.91565599 443.64067724 -160.625 446.5625 C-160.97965332 447.17585205 -161.33430664 447.7892041 -161.69970703 448.42114258 C-165.58243842 455.08675732 -169.72146646 461.58219969 -174 468 C-174.66 468 -175.32 468 -176 468 C-176.27070313 468.59425781 -176.54140625 469.18851563 -176.8203125 469.80078125 C-184.70107998 484.49241069 -206.31583735 494.8207087 -221.74169922 499.47607422 C-246.03140022 506.11327442 -271.74473901 503.70761609 -294 492 C-294.58023926 491.69545898 -295.16047852 491.39091797 -295.75830078 491.07714844 C-320.88575277 477.73645964 -336.36268646 458.19173165 -345.921875 431.6171875 C-351.30845954 413.54480605 -351.20298404 392.83612132 -345 375 C-344.63777344 373.87980469 -344.27554687 372.75960938 -343.90234375 371.60546875 C-341.42509294 364.52640965 -338.01990842 358.42474495 -333.9765625 352.125 C-332.16419716 349.25960025 -330.52745627 346.36785886 -328.9375 343.375 C-326.93892181 339.63782128 -324.802986 336.05778581 -322.5 332.5 C-319.68512667 328.14583863 -317.16988959 323.70879389 -314.72265625 319.140625 C-309.69247658 309.96995731 -304.26996478 301.00770195 -298.75 292.125 C-295.81468152 287.39554899 -293.12025589 282.58665736 -290.49609375 277.6796875 C-288.40131623 273.9276839 -286.05406326 270.35539591 -283.71875 266.75 C-282.030703 264.0491248 -280.50020324 261.30889117 -279 258.5 C-276.46500366 253.75362387 -273.64272615 249.26420879 -270.71875 244.75 C-269.030703 242.0491248 -267.50020324 239.30889117 -266 236.5 C-263.98112145 232.71997208 -261.82976678 229.09683293 -259.5 225.5 C-256.64770168 221.08736344 -254.08223618 216.59064399 -251.6015625 211.9609375 C-247.01245661 203.47668807 -242.17171627 195.14206061 -237 187 C-232.60992139 179.99787045 -228.39343917 172.96740657 -224.49609375 165.6796875 C-222.40131623 161.9276839 -220.05406326 158.35539591 -217.71875 154.75 C-216.030703 152.0491248 -214.50020324 149.30889117 -213 146.5 C-210.98112145 142.71997208 -208.82976678 139.09683293 -206.5 135.5 C-203.64105355 131.07707847 -201.07208736 126.56815615 -198.58203125 121.9296875 C-193.57542458 112.65819366 -188.20912906 103.66324644 -182.57788086 94.76220703 C-179.6617983 90.12875671 -176.99250772 85.41123285 -174.42578125 80.57421875 C-172.36422777 76.85212631 -170.03099688 73.31978466 -167.71875 69.75 C-166.030703 67.0491248 -164.50020324 64.30889117 -163 61.5 C-160.98112145 57.71997208 -158.82976678 54.09683293 -156.5 50.5 C-154.23634642 47.00341963 -152.13979747 43.49161834 -150.1875 39.8125 C-143.4092549 27.26019426 -136.16394833 16.05838804 -126 6 C-124.94425781 4.91138672 -124.94425781 4.91138672 -123.8671875 3.80078125 C-89.29748076 -29.6516536 -37.19386198 -24.44666984 0 0 Z " fill="#121510" transform="translate(604,295)"/>
<path d="M0 0 C8.05416589 4.79124836 20.75255288 2.9447452 29.79226875 2.88766479 C31.87372475 2.87464136 33.95511548 2.86832275 36.03660583 2.86352539 C40.4411006 2.85224325 44.84553954 2.83294726 49.25 2.8125 C54.39151038 2.78881732 59.53299126 2.768507 64.67454338 2.75656128 C66.7197215 2.75010787 68.76480472 2.73761337 70.80995178 2.72485352 C72.6685508 2.71989868 72.6685508 2.71989868 74.56469727 2.71484375 C75.65355728 2.70960693 76.7424173 2.70437012 77.86427307 2.69897461 C80.320898 2.79775849 82.3474292 3.09789232 84.6875 3.8125 C84.83342789 7.52041544 84.92177895 11.22758726 85 14.9375 C85.04189453 15.98421875 85.08378906 17.0309375 85.12695312 18.109375 C85.265158 26.84392326 85.265158 26.84392326 82.48046875 30.4296875 C78.08803611 34.17707759 73.92985382 35.08293166 68.28515625 35.8828125 C67.06505859 36.05683594 65.84496094 36.23085938 64.58789062 36.41015625 C63.32138672 36.58417969 62.05488281 36.75820313 60.75 36.9375 C59.48736328 37.11925781 58.22472656 37.30101562 56.92382812 37.48828125 C51.45960846 38.25529045 46.21472141 38.91976402 40.6875 38.8125 C41.0175 40.7925 41.3475 42.7725 41.6875 44.8125 C42.3475 44.8125 43.0075 44.8125 43.6875 44.8125 C49.50102032 65.70684977 49.50102032 65.70684977 49.6875 73.8125 C49.73777344 74.96234375 49.78804687 76.1121875 49.83984375 77.296875 C50.21130137 92.33347938 48.59640626 107.27025639 41.6875 120.8125 C41.24535156 121.72 40.80320312 122.6275 40.34765625 123.5625 C34.95766343 134.07373253 28.10244655 143.60068537 18.6875 150.8125 C17.88957031 151.44542969 17.09164062 152.07835937 16.26953125 152.73046875 C-11.00656811 173.56022262 -46.55299047 179.64066872 -80.19140625 175.140625 C-83.30831639 174.65645617 -86.39823609 174.08063657 -89.4921875 173.46875 C-96.22357227 172.24066474 -96.22357227 172.24066474 -102.640625 173.984375 C-103.59195313 174.76554687 -103.59195313 174.76554687 -104.5625 175.5625 C-105.20703125 176.07296875 -105.8515625 176.5834375 -106.515625 177.109375 C-108.39913493 178.79211872 -108.39913493 178.79211872 -109.921875 181.015625 C-110.38078125 181.60859375 -110.8396875 182.2015625 -111.3125 182.8125 C-111.9725 182.8125 -112.6325 182.8125 -113.3125 182.8125 C-116.3107767 190.36173241 -117.46264508 196.57134003 -115.3125 204.5 C-110.34155742 212.73312365 -102.28645586 215.53608399 -93.3125 217.8125 C-79.96354457 220.60532528 -66.50073767 221.47856305 -52.90948486 222.14889526 C-47.28589069 222.42901427 -41.66450468 222.74798547 -36.04296875 223.06640625 C-34.93896729 223.12860855 -33.83496582 223.19081085 -32.69750977 223.25489807 C44.83352382 227.69880483 44.83352382 227.69880483 67.6875 252.8125 C67.6875 253.4725 67.6875 254.1325 67.6875 254.8125 C68.3475 254.8125 69.0075 254.8125 69.6875 254.8125 C70.6951952 256.5789657 71.69341714 258.35083823 72.6875 260.125 C73.5228125 261.60419922 73.5228125 261.60419922 74.375 263.11328125 C75.6875 265.8125 75.6875 265.8125 75.6875 268.8125 C76.3475 268.8125 77.0075 268.8125 77.6875 268.8125 C84.17940356 289.98847114 80.95874705 310.84043674 70.875 330.3125 C70.16205471 331.48914954 69.4297948 332.65414187 68.6875 333.8125 C68.07648437 334.77414062 67.46546875 335.73578125 66.8359375 336.7265625 C63.45071924 341.93751645 60.21200369 346.52178526 55.6875 350.8125 C54.84832031 351.61429688 54.00914062 352.41609375 53.14453125 353.2421875 C20.08899423 383.80757328 -24.46753443 392.47486836 -68.3125 390.8125 C-100.75879982 389.32735468 -135.71094175 383.34214679 -161.3125 361.8125 C-162.41658203 360.89210938 -162.41658203 360.89210938 -163.54296875 359.953125 C-166.86882498 357.11796887 -169.87780933 354.47947276 -172.3125 350.8125 C-172.3125 350.1525 -172.3125 349.4925 -172.3125 348.8125 C-173.3025 348.4825 -174.2925 348.1525 -175.3125 347.8125 C-176.69921875 345.6328125 -176.69921875 345.6328125 -178 342.9375 C-178.43699219 342.05320312 -178.87398437 341.16890625 -179.32421875 340.2578125 C-180.3125 337.8125 -180.3125 337.8125 -180.3125 334.8125 C-180.9725 334.8125 -181.6325 334.8125 -182.3125 334.8125 C-186.84520886 321.78096203 -188.20648405 303.57629326 -182.3125 290.8125 C-178.70215246 284.07631044 -174.91282271 278.10169367 -169.3125 272.8125 C-168.7246875 272.23886719 -168.136875 271.66523437 -167.53125 271.07421875 C-158.72544041 263.00889769 -148.2791866 257.3837842 -137.3125 252.8125 C-141.23842395 249.6464323 -145.2233721 246.56338469 -149.2265625 243.49609375 C-151.06428952 242.01283468 -152.76286642 240.59408511 -154.3125 238.8125 C-154.3125 238.1525 -154.3125 237.4925 -154.3125 236.8125 C-154.9725 236.8125 -155.6325 236.8125 -156.3125 236.8125 C-163.09990656 224.14267443 -164.57904975 210.06185398 -160.9375 196.0625 C-157.07741261 185.24878 -149.45233607 175.65820051 -140.3125 168.8125 C-139.25675781 167.98298828 -139.25675781 167.98298828 -138.1796875 167.13671875 C-134.99381028 164.67383581 -131.96507146 162.5337339 -128.3125 160.8125 C-128.3125 160.1525 -128.3125 159.4925 -128.3125 158.8125 C-129.83329274 157.65484666 -129.83329274 157.65484666 -131.8125 156.5625 C-140.80816388 151.14918015 -147.96400898 144.86462891 -154.375 136.5 C-155.03024658 135.64559326 -155.03024658 135.64559326 -155.69873047 134.77392578 C-163.3125 124.66139561 -163.3125 124.66139561 -163.3125 118.8125 C-163.9725 118.8125 -164.6325 118.8125 -165.3125 118.8125 C-174.31770684 92.49631301 -174.49987374 63.46476147 -162.21875 38.19018555 C-160.5203025 34.85483449 -158.82666106 31.60442956 -156.3125 28.8125 C-155.6525 28.8125 -154.9925 28.8125 -154.3125 28.8125 C-154.065 28.090625 -153.8175 27.36875 -153.5625 26.625 C-150.72629009 20.24352771 -145.56696804 16.18654024 -140.3125 11.8125 C-139.62027344 11.22082031 -138.92804687 10.62914062 -138.21484375 10.01953125 C-132.37880768 5.22148345 -126.15231189 1.97004438 -119.3125 -1.1875 C-118.55066406 -1.55746094 -117.78882812 -1.92742187 -117.00390625 -2.30859375 C-84.5416813 -17.61646864 -31.006299 -20.47585783 0 0 Z M-111.51953125 43.4921875 C-115.26234138 48.33582414 -119.3125 54.56562868 -119.3125 60.8125 C-119.9725 60.8125 -120.6325 60.8125 -121.3125 60.8125 C-126.71816285 78.47099863 -125.28200086 97.64705258 -116.65625 113.9140625 C-108.08491349 128.82673526 -95.64686751 134.85280931 -79.8203125 139.93359375 C-73.55316528 141.4315108 -67.09266879 141.18115196 -60.6875 141.1875 C-58.77130859 141.22423828 -58.77130859 141.22423828 -56.81640625 141.26171875 C-41.78026146 141.30742132 -27.34348679 137.04558289 -15.3125 127.8125 C-13.5981382 125.85322937 -11.92844832 123.85369788 -10.3125 121.8125 C-9.2915625 120.884375 -9.2915625 120.884375 -8.25 119.9375 C-4.88890993 116.25114315 -2.3125 111.85436456 -2.3125 106.8125 C-1.6525 106.8125 -0.9925 106.8125 -0.3125 106.8125 C5.44940696 91.17303824 4.90020928 70.67883006 -1.75390625 55.53125 C-7.88379326 43.12925122 -17.33684766 33.90011346 -30.1875 28.625 C-57.20611055 19.517175 -91.01382529 21.92948639 -111.51953125 43.4921875 Z M-111.3125 264.5625 C-112.34375 265.27921875 -113.375 265.9959375 -114.4375 266.734375 C-115.860625 267.76304687 -115.860625 267.76304687 -117.3125 268.8125 C-118.735625 269.62460937 -118.735625 269.62460937 -120.1875 270.453125 C-121.239375 271.12601563 -121.239375 271.12601563 -122.3125 271.8125 C-122.3125 272.4725 -122.3125 273.1325 -122.3125 273.8125 C-123.3025 274.1425 -124.2925 274.4725 -125.3125 274.8125 C-133.27073616 281.64791571 -139.24519198 292.71747434 -140.375 303.125 C-140.63062108 314.50765636 -136.8330162 323.96564787 -128.93359375 332.33203125 C-104.82134937 353.42575323 -68.80391643 354.38050435 -38.50439453 352.39892578 C-14.5591779 350.47352582 8.86796482 342.93112602 24.84765625 324.29296875 C26.5482325 322.0002598 27.74857243 319.9239729 28.875 317.3125 C29.36033203 316.21421875 29.36033203 316.21421875 29.85546875 315.09375 C32.77757558 307.08196414 32.98713081 297.49106351 30.1875 289.4375 C25.84044149 280.10943694 16.87582251 275.5124872 7.6875 271.8125 C-5.76041133 267.69832868 -19.41113318 266.67012151 -33.375 265.6875 C-35.59602016 265.52139828 -37.81696715 265.35431539 -40.0378418 265.1862793 C-56.03835889 263.9893255 -72.04987594 262.88634377 -88.07275391 262.03271484 C-90.31906171 261.88002685 -92.56180527 261.66777729 -94.79833984 261.40869141 C-101.73612783 260.63782607 -105.58167252 260.43981289 -111.3125 264.5625 Z " fill="#141712" transform="translate(2730.3125,467.1875)"/>
<path d="M0 0 C0.7420166 0.2376709 1.4840332 0.4753418 2.24853516 0.72021484 C24.34919584 7.91364986 42.73487066 19.52254073 60 35 C59.34 37.31 58.68 39.62 58 42 C57.34 42 56.68 42 56 42 C55.67 43.19625 55.34 44.3925 55 45.625 C53.49544387 50.15306606 51.40944891 54.17940626 49.0625 58.3125 C48.72669922 58.91078613 48.39089844 59.50907227 48.04492188 60.12548828 C45.57373184 64.37837287 43.05825431 67.76504741 38.8125 70.3125 C32.62853878 71.82413496 27.62383969 70.64511522 22.1875 67.4375 C19.53306022 65.7328139 16.94399354 63.96044648 14.3671875 62.140625 C-5.86873383 48.04875778 -28.11037453 40.57070108 -52.8125 40.6875 C-54.04427979 40.69241455 -55.27605957 40.6973291 -56.54516602 40.70239258 C-76.58541537 40.96045562 -97.23535627 46.39438073 -112.4140625 60.27734375 C-123.94785977 72.80543389 -129.41499444 88.58924692 -129.15234375 105.515625 C-128.39351501 117.89037065 -125.01314627 127.54409747 -117 137 C-116.52175781 137.57363281 -116.04351563 138.14726562 -115.55078125 138.73828125 C-100.34947166 155.39462803 -75.53469175 162.50182449 -54.9375 169.4375 C-50.77819838 170.84775762 -46.62084939 172.26365333 -42.46484375 173.68359375 C-41.44129791 174.03325195 -40.41775208 174.38291016 -39.3631897 174.74316406 C-31.90687045 177.30645931 -24.49833112 179.98435313 -17.11328125 182.74609375 C-16.15509995 183.10344101 -15.19691864 183.46078827 -14.20970154 183.82896423 C6.58039652 191.67504248 24.97181442 200.86725214 41.5625 215.8125 C42.10003906 216.29299805 42.63757812 216.77349609 43.19140625 217.26855469 C44.50112348 218.4699815 45.75595441 219.7306946 47 221 C47 221.66 47 222.32 47 223 C47.99 223.33 48.98 223.66 50 224 C63.78243064 241.78701097 69.39232525 262.11927564 69.26074219 284.23535156 C69.25004756 286.36552614 69.26068799 288.49485123 69.2734375 290.625 C69.29196015 304.4769372 67.42656992 317.21140347 62.9375 330.375 C62.34304077 332.13263672 62.34304077 332.13263672 61.73657227 333.92578125 C51.39171635 363.50001889 30.39676726 387.43798235 2.29296875 401.390625 C-39.9586769 421.54198278 -91.22461296 422.07562028 -135.09765625 406.5625 C-149.34473143 401.01509898 -162.70710277 394.0900843 -175 385 C-175.59893066 384.56042969 -176.19786133 384.12085938 -176.81494141 383.66796875 C-185.2505219 377.41839003 -192.77767896 370.62028567 -200 363 C-197.84067324 357.17040541 -194.5180761 352.21961054 -191.1875 347 C-190.57068359 346.01515625 -189.95386719 345.0303125 -189.31835938 344.015625 C-180.73585879 330.51711185 -180.73585879 330.51711185 -172 328 C-162.22076369 328.97792363 -154.54891386 335.72339844 -147.125 341.6875 C-119.85972995 363.22568483 -86.78892404 372.20980336 -52.375 368.3125 C-35.73023076 365.72969098 -20.61984269 360.49807889 -8 349 C-7.34 349 -6.68 349 -6 349 C-6 348.34 -6 347.68 -6 347 C-4.33333333 345.33333333 -2.66666667 343.66666667 -1 342 C-0.278125 340.906875 0.44375 339.81375 1.1875 338.6875 C1.785625 337.800625 2.38375 336.91375 3 336 C3.66 336 4.32 336 5 336 C5.37125 334.824375 5.37125 334.824375 5.75 333.625 C6.73690907 330.76296369 7.79695132 327.98861765 8.9375 325.1875 C15.14196653 309.74578667 18.78575224 291.07736786 12.20068359 275.05517578 C11.23838945 272.88888804 10.22910173 270.75425576 9.1875 268.625 C8.85621094 267.94638916 8.52492188 267.26777832 8.18359375 266.56860352 C5.99027681 262.32063366 3.56761033 259.25713791 0 256 C-0.60199219 255.37738281 -1.20398437 254.75476563 -1.82421875 254.11328125 C-6.61774347 249.48054562 -11.84563819 246.11932775 -17.625 242.875 C-18.32197998 242.47966064 -19.01895996 242.08432129 -19.73706055 241.67700195 C-37.33724424 232.09825445 -57.17077924 226.95731021 -76.17773438 220.89428711 C-113.42368902 209.00104024 -152.09741344 195.2932289 -171.75390625 158.73828125 C-179.50056669 142.6430895 -182.39916002 126.70170719 -182.375 108.9375 C-182.37445618 108.25913086 -182.37391235 107.58076172 -182.37335205 106.88183594 C-182.27201168 79.29131212 -173.33749219 56.40397214 -156 35 C-155.33121826 34.14849365 -155.33121826 34.14849365 -154.64892578 33.27978516 C-153.47816292 31.81558081 -152.24354343 30.40291831 -151 29 C-150.34 29 -149.68 29 -149 29 C-149 28.34 -149 27.68 -149 27 C-146.97692489 25.1983409 -144.95326192 23.52728278 -142.8125 21.875 C-142.17755615 21.38290039 -141.5426123 20.89080078 -140.88842773 20.38378906 C-125.42441491 8.58084048 -108.82870129 0.61615259 -90 -4 C-88.741875 -4.32097656 -87.48375 -4.64195312 -86.1875 -4.97265625 C-58.89497235 -11.06901879 -26.3942348 -8.48200273 0 0 Z " fill="#131611" transform="translate(2038,340)"/>
<path d="M0 0 C17.16 0 34.32 0 52 0 C52 82.83 52 165.66 52 251 C71.01571055 250.45304113 71.01571055 250.45304113 84.91796875 240.390625 C86.12469216 239.0050439 87.33051183 237.61867257 88.53393555 236.23022461 C92.73175798 231.40434902 97.03812382 226.70493564 101.4375 222.0625 C102.1190918 221.34030273 102.80068359 220.61810547 103.50292969 219.87402344 C106.4100251 216.79396583 109.32070813 213.71731914 112.23291016 210.64208984 C113.70166624 209.09078677 115.16969837 207.53879789 116.63696289 205.98608398 C118.01334578 204.52955124 119.39135809 203.07455597 120.77124023 201.62133789 C124.01599137 198.18652811 127.05011772 194.69355009 130 191 C131.65389583 189.32065962 133.32250726 187.65576981 135 186 C137.49754047 183.39228465 139.96674778 180.75808184 142.4375 178.125 C143.14197266 177.37541016 143.84644531 176.62582031 144.57226562 175.85351562 C148.49259077 171.67958454 152.40573287 167.4990239 156.31103516 163.31103516 C157.43636242 162.10437461 158.56233856 160.89831887 159.68896484 159.69287109 C162.88851695 156.26901296 166.07624469 152.83481856 169.25390625 149.390625 C170.68995659 147.843613 172.12615179 146.29673545 173.5625 144.75 C174.22958984 144.02232422 174.89667969 143.29464844 175.58398438 142.54492188 C180.55330467 137.21162288 184.89142543 133.25022173 192.45513916 132.87974548 C193.82747711 132.8830764 193.82747711 132.8830764 195.22753906 132.88647461 C196.26831604 132.88655014 197.30909302 132.88662567 198.38140869 132.88670349 C199.49820007 132.89186478 200.61499146 132.89702606 201.765625 132.90234375 C203.48842682 132.90446617 203.48842682 132.90446617 205.24603271 132.90663147 C208.91404831 132.91222857 212.58200285 132.92478056 216.25 132.9375 C218.73697829 132.94251537 221.22395753 132.94707822 223.7109375 132.95117188 C229.8073125 132.96219705 235.90365189 132.97893231 242 133 C240.78014577 136.65956269 238.71406708 138.40813025 236 141 C231.73708886 145.17509836 227.50260538 149.33559178 223.625 153.875 C220.29618257 157.76120081 216.69114601 161.33840417 213.05175781 164.92871094 C209.78796107 168.16555271 206.74318038 171.51772013 203.765625 175.015625 C200.93344484 178.19869474 197.87307151 181.14721518 194.8203125 184.1171875 C192.93616102 185.87753339 192.93616102 185.87753339 192 188 C191.34 188 190.68 188 190 188 C189.76667969 188.56203125 189.53335937 189.1240625 189.29296875 189.703125 C187.68062924 192.56734142 185.6806438 194.47252021 183.3125 196.75 C180.24992786 199.74685171 177.27824592 202.73771601 174.5 206 C171.01667458 210.0748335 167.22181292 213.79292992 163.41015625 217.55859375 C160.73783149 220.26556778 158.26510932 223.0930148 155.796875 225.984375 C152.98222683 229.14167599 149.94927718 232.07170119 146.91796875 235.01953125 C144.83682933 237.04935277 144.83682933 237.04935277 143 240 C142.34 240 141.68 240 141 240 C140.73429199 240.58644287 140.46858398 241.17288574 140.19482422 241.77709961 C138.96763571 244.06021187 137.64980505 245.67814951 135.8828125 247.56640625 C135.27566406 248.21673828 134.66851563 248.86707031 134.04296875 249.53710938 C133.41003906 250.20548828 132.77710938 250.87386719 132.125 251.5625 C131.49980469 252.23474609 130.87460938 252.90699219 130.23046875 253.59960938 C127.31948201 256.69830245 124.54756535 259.61700286 121 262 C120.34 262 119.68 262 119 262 C121.07386214 264.7917375 123.02187498 267.01726483 125.76171875 269.1796875 C129.5484882 272.28703201 132.29305507 276.01381097 135.1875 279.9375 C136.33649475 281.46670576 137.48624537 282.99534385 138.63671875 284.5234375 C139.4882251 285.65990723 139.4882251 285.65990723 140.35693359 286.81933594 C142.70070786 289.92997363 145.09127143 293.00200826 147.5 296.0625 C147.94190674 296.62469238 148.38381348 297.18688477 148.83911133 297.76611328 C152.83835662 302.83302388 156.92985706 307.82342638 161.0168457 312.81958008 C165.00808657 317.72202543 168.86929173 322.71199245 172.6875 327.75 C177.15822175 333.64853692 181.75368427 339.38118641 186.53125 345.03515625 C190.72111377 350.06697049 194.72118775 355.24709524 198.75097656 360.40722656 C200.48450506 362.61784812 202.24070265 364.80985433 204 367 C210.72244679 375.38247957 217.35538351 383.83387904 223.875 392.375 C227.72185915 397.40849895 231.68305694 402.34114356 235.6875 407.25 C243.5263748 416.86696381 243.5263748 416.86696381 246.3125 420.375 C247.11107422 421.37660156 247.11107422 421.37660156 247.92578125 422.3984375 C249 424 249 424 249 426 C241.74095422 426.07631204 234.48201263 426.12870984 227.22265625 426.16479492 C224.75516901 426.17984452 222.28770835 426.2002889 219.8203125 426.22631836 C216.26555809 426.26286926 212.71115861 426.27976518 209.15625 426.29296875 C208.06010376 426.30845261 206.96395752 426.32393646 205.83459473 426.33988953 C198.73805308 426.341435 192.58292579 426.00364284 186.91162109 421.24926758 C186.41227051 420.61657959 185.91291992 419.9838916 185.3984375 419.33203125 C184.82963867 418.62643066 184.26083984 417.92083008 183.67480469 417.19384766 C183.12211914 416.46987793 182.56943359 415.7459082 182 415 C181.46536133 414.31856934 180.93072266 413.63713867 180.37988281 412.93505859 C178.77414457 410.86751043 177.19666186 408.7810413 175.625 406.6875 C171.06698676 400.65617621 166.41010779 394.76413034 161.51171875 389.00390625 C160 387 160 387 160 385 C159.34 385 158.68 385 158 385 C156.6953125 383.55859375 156.6953125 383.55859375 155.125 381.4375 C151.90134861 377.17050915 148.60151059 372.97899686 145.25 368.8125 C141.23990302 363.81543762 137.26032687 358.79638293 133.3125 353.75 C129.37686786 348.72167907 125.36563146 343.76398693 121.3046875 338.8359375 C118.70095446 335.63202193 116.16193852 332.38181431 113.625 329.125 C109.99644519 324.47113577 106.27716634 319.91858291 102.4375 315.4375 C98.62313021 310.97585984 94.91442007 306.44778427 91.3125 301.8125 C90.87800537 301.25941162 90.44351074 300.70632324 89.99584961 300.13647461 C87 296.23972804 87 296.23972804 87 294 C86.34 294 85.68 294 85 294 C83.9171875 292.824375 83.9171875 292.824375 82.8125 291.625 C74.88607482 284.22700317 61.64340539 286.45920978 52 286 C52 332.2 52 378.4 52 426 C34.84 426 17.68 426 0 426 C0 285.42 0 144.84 0 0 Z " fill="#121610" transform="translate(1485,326)"/>
<path d="M0 0 C16.01886955 14.93237231 29.47265631 32.94969093 34.45703125 54.66015625 C35.00842456 57.03630438 35.74628393 59.26515037 36.5625 61.5625 C40.8805993 74.26811157 41.1961054 87.45150805 41.25 100.75 C41.2809375 102.68166016 41.2809375 102.68166016 41.3125 104.65234375 C41.31765625 105.89628906 41.3228125 107.14023437 41.328125 108.421875 C41.3374707 109.54174805 41.34681641 110.66162109 41.35644531 111.81542969 C40.93492218 115.58142128 40.10675451 117.84596995 38 121 C33.28459507 123.99581033 29.17256871 124.42367849 23.72366333 124.36076355 C22.49703313 124.36460846 22.49703313 124.36460846 21.24562252 124.36853105 C18.51396896 124.37346027 15.78287191 124.35699036 13.05126953 124.34057617 C11.08981845 124.33972971 9.12836642 124.34020541 7.16691589 124.34190369 C1.84710954 124.34276433 -3.47249383 124.32512726 -8.79225302 124.30418181 C-14.35360783 124.28542661 -19.91496731 124.28366548 -25.47634888 124.28010559 C-36.00536101 124.27078175 -46.53427968 124.2461633 -57.06325066 124.21605712 C-69.05105666 124.18252374 -81.03886713 124.16602976 -93.02670836 124.15097082 C-117.68452406 124.1196141 -142.34225679 124.06684692 -167 124 C-166.76071022 124.91603249 -166.76071022 124.91603249 -166.5165863 125.85057068 C-165.93746358 128.26020358 -165.72155669 130.5640386 -165.53515625 133.03515625 C-165.45716797 134.01033203 -165.37917969 134.98550781 -165.29882812 135.99023438 C-165.14338995 138.01093064 -164.98969457 140.03176185 -164.83789062 142.05273438 C-164.35871621 148.00150947 -163.58828118 153.77239487 -162.40014648 159.62280273 C-162 162 -162 162 -162 166 C-161.34 166 -160.68 166 -160 166 C-159.75507813 166.94617188 -159.51015625 167.89234375 -159.2578125 168.8671875 C-152.98474311 191.6256385 -140.41257531 209.90459823 -120 222 C-98.2421215 234.07391546 -67.77696519 235.95157143 -43.96875 229.265625 C-42.64270516 228.85368799 -41.31974208 228.43170345 -40 228 C-38.96166016 227.66258789 -38.96166016 227.66258789 -37.90234375 227.31835938 C-24.90520763 222.97401277 -13.03029187 216.7107563 -1.2265625 209.83203125 C9.34924801 203.82712189 9.34924801 203.82712189 16 205 C21.29146757 207.59385665 23.93234487 211.12784185 27 216 C27 216.66 27 217.32 27 218 C27.59296875 218.23460937 28.1859375 218.46921875 28.796875 218.7109375 C31.51094 220.29895425 32.58493241 221.97602884 34.25 224.625 C35.03117187 225.85089844 35.03117187 225.85089844 35.828125 227.1015625 C36.21484375 227.72804688 36.6015625 228.35453125 37 229 C35.71520959 230.50589388 34.42195918 232.00457375 33.125 233.5 C32.04605469 234.75296875 32.04605469 234.75296875 30.9453125 236.03125 C30.30335938 236.6809375 29.66140625 237.330625 29 238 C28.34 238 27.68 238 27 238 C26.67 238.99 26.34 239.98 26 241 C24.44140625 242.38671875 24.44140625 242.38671875 22.5625 243.6875 C21.94503906 244.12449219 21.32757812 244.56148437 20.69140625 245.01171875 C19 246 19 246 17 246 C17 246.66 17 247.32 17 248 C14.23337046 249.57002684 11.46092786 251.12951861 8.6875 252.6875 C7.92115234 253.12255859 7.15480469 253.55761719 6.36523438 254.00585938 C-31.24664424 275.07475403 -79.46802835 280.34323725 -121 269 C-121.8461084 268.77006348 -122.6922168 268.54012695 -123.56396484 268.30322266 C-143.97621696 262.54967942 -161.66982185 251.57515867 -177 237 C-177.9075 236.154375 -178.815 235.30875 -179.75 234.4375 C-182.02763458 231.97006254 -183.91549162 229.42735806 -185.7890625 226.6484375 C-186.95524013 224.9668398 -186.95524013 224.9668398 -188.4453125 223.58984375 C-200.85764816 210.89682714 -207.91686484 190.2981342 -212.10546875 173.34765625 C-212.88075256 170.11817424 -212.88075256 170.11817424 -214.015625 167.65234375 C-225.03329341 137.9658483 -221.47127238 93.35614353 -211 64 C-210.09452964 61.3156978 -209.20411137 58.62643198 -208.3125 55.9375 C-207.87132892 54.61320288 -207.42994132 53.28897787 -206.98828125 51.96484375 C-206.66214844 50.98644531 -206.33601563 50.00804687 -206 49 C-205.34 49 -204.68 49 -204 49 C-203.85304688 48.46632813 -203.70609375 47.93265625 -203.5546875 47.3828125 C-201.61346298 40.93437702 -198.64281647 35.63539318 -195 30 C-194.18208984 28.69675781 -194.18208984 28.69675781 -193.34765625 27.3671875 C-190.32538244 22.65273594 -190.32538244 22.65273594 -189 21 C-188.34 21 -187.68 21 -187 21 C-186.773125 20.46375 -186.54625 19.9275 -186.3125 19.375 C-184.54429911 16.17539839 -182.46329797 13.70962777 -180 11 C-179.34 11 -178.68 11 -178 11 C-177.7628125 10.42765625 -177.525625 9.8553125 -177.28125 9.265625 C-175.72406762 6.5120708 -173.87507203 4.83204366 -171.5 2.75 C-170.7059375 2.04359375 -169.911875 1.3371875 -169.09375 0.609375 C-167 -1 -167 -1 -165 -1 C-165 -1.66 -165 -2.32 -165 -3 C-162.79844922 -4.52251091 -160.61849862 -5.90164571 -158.3125 -7.25 C-157.62986084 -7.65186523 -156.94722168 -8.05373047 -156.24389648 -8.46777344 C-108.8719198 -35.93967077 -42.97928578 -36.22905998 0 0 Z M-112 15 C-112.93199219 15.30035156 -113.86398438 15.60070312 -114.82421875 15.91015625 C-133.3102451 22.44962346 -147.4804574 38.87856058 -156 56 C-158.04824867 60.8801751 -159.50525689 65.92728913 -161 71 C-161.57703679 72.58563891 -162.15937407 74.16937252 -162.75 75.75 C-164.43255286 80.72161099 -164.68345775 85.79408031 -165 91 C-156.69002358 91.73326857 -148.46215885 92.1489967 -140.12109375 92.1328125 C-138.99019821 92.13413177 -137.85930267 92.13545105 -136.69413757 92.1368103 C-132.94189799 92.13873706 -129.1897322 92.13232985 -125.4375 92.125 C-123.45436097 92.12364819 -121.47122194 92.12229688 -119.48808289 92.12098312 C-81.65683254 92.08683633 -43.82707264 91.51810491 -6 91 C-5.98008132 88.92394868 -5.96588703 86.84784193 -5.95410156 84.77172852 C-5.94558167 83.61560562 -5.93706177 82.45948273 -5.92828369 81.26832581 C-6.07508543 74.57813333 -8.1425939 68.38402165 -10 62 C-10.26554687 60.97003906 -10.53109375 59.94007813 -10.8046875 58.87890625 C-12.62085496 52.50502332 -15.48336154 47.10965249 -18.9375 41.5 C-19.35660645 40.81679688 -19.77571289 40.13359375 -20.20751953 39.4296875 C-22.72835898 35.49815693 -25.19011 32.78861932 -29 30 C-30.33333333 28.66666667 -31.66666667 27.33333333 -33 26 C-47.36681226 14.21598545 -62.98914111 10.60135635 -81.125 10.625 C-82.40802002 10.62661133 -83.69104004 10.62822266 -85.01293945 10.62988281 C-94.62879442 10.75401332 -102.93457866 11.76953543 -112 15 Z " fill="#141812" transform="translate(3037,482)"/>
<path d="M0 0 C2.2355226 0.00316164 4.46971736 -0.02041951 6.70507812 -0.0456543 C32.20977761 -0.15923798 56.84761238 7.87070468 75.86914062 25.31567383 C78.39363635 27.85062296 80.65374013 30.50848827 82.86914062 33.31567383 C83.51625 34.10329102 84.16335937 34.8909082 84.83007812 35.70239258 C90.3606319 42.79040116 93.76326828 50.2728657 97.10253906 58.53808594 C97.92697381 60.52907115 97.92697381 60.52907115 99.43554688 63.15161133 C101.41635934 67.52343177 102.16127592 71.92082254 102.99414062 76.62817383 C103.16300781 77.52729492 103.331875 78.42641602 103.50585938 79.3527832 C105.08195453 87.93443514 106.02285757 96.33866457 105.98939514 105.06666565 C105.99067678 106.31551675 105.99067678 106.31551675 105.99198431 107.58959717 C105.9936191 110.35321103 105.9881508 113.11676291 105.98266602 115.88037109 C105.98238369 117.87182107 105.98254277 119.86327115 105.98310852 121.85472107 C105.9833947 127.24245522 105.97752687 132.63016698 105.97053456 138.01789594 C105.96427126 143.6553163 105.96369487 149.29273721 105.96250916 154.93016052 C105.95940461 165.59715508 105.95120305 176.26413936 105.94115967 186.9311294 C105.92997129 199.07862677 105.92448121 211.22612463 105.91946423 223.37362587 C105.9090197 248.35431422 105.89143725 273.33499345 105.86914062 298.31567383 C101.56416292 298.39018747 97.25953329 298.44444606 92.95410156 298.48046875 C91.49146988 298.49549579 90.0288828 298.51592338 88.56640625 298.54199219 C86.45626782 298.5786465 84.34672836 298.59546059 82.23632812 298.60864258 C80.96901855 298.62435303 79.70170898 298.64006348 78.39599609 298.65625 C74.54839917 298.28470094 72.15924035 297.30416875 68.86914062 295.31567383 C65.23115768 290.89082379 64.25288988 285.12713884 63.29882812 279.62036133 C62.89610308 277.1682379 62.89610308 277.1682379 61.86914062 274.31567383 C60.45213744 270.06466426 59.68653862 265.71570982 58.86914062 261.31567383 C55.39429722 263.48745096 52.29185079 265.76150987 49.24414062 268.50317383 C20.59517901 294.02978207 -13.99282996 305.37970553 -52.13085938 303.31567383 C-56.54546076 302.91312659 -60.80201204 302.26132433 -65.13085938 301.31567383 C-66.15308594 301.09782227 -67.1753125 300.8799707 -68.22851562 300.65551758 C-88.37841366 295.9937839 -103.53205196 285.55906548 -115.06835938 268.44067383 C-116.13085938 266.31567383 -116.13085938 266.31567383 -116.13085938 263.31567383 C-116.79085937 263.31567383 -117.45085938 263.31567383 -118.13085938 263.31567383 C-126.25871172 243.84183472 -128.86681167 220.00652907 -120.80664062 200.03442383 C-115.54749592 189.10202853 -109.27759173 180.5851429 -99.88085938 172.87817383 C-99.00945313 172.15758789 -98.13804687 171.43700195 -97.24023438 170.69458008 C-90.4921792 165.53180922 -83.6570094 161.30580341 -75.88085938 157.87817383 C-75.01517334 157.4954834 -74.1494873 157.11279297 -73.25756836 156.71850586 C-37.39798102 141.19820497 0.0640833 136.46481448 38.63867188 133.86645508 C39.44942169 133.81038589 40.26017151 133.75431671 41.0954895 133.69654846 C46.03176519 133.37404443 50.92227003 133.2659264 55.86914062 133.31567383 C55.74819029 110.41811555 53.08346955 89.44783143 46.86914062 67.31567383 C46.20914063 67.31567383 45.54914062 67.31567383 44.86914062 67.31567383 C43.98041017 66.01860776 43.15910661 64.67515018 42.36914062 63.31567383 C35.70425768 53.05207685 25.03066172 46.82946409 13.22460938 44.20239258 C7.69656416 43.1619645 2.29592559 42.97141185 -3.31835938 43.00317383 C-4.32213623 43.00663818 -5.32591309 43.01010254 -6.36010742 43.01367188 C-14.5869454 43.13309265 -22.17515524 44.12627847 -30.13085938 46.31567383 C-30.88616943 46.5112085 -31.64147949 46.70674316 -32.41967773 46.90820312 C-38.80532794 48.66172393 -44.31804313 51.24746359 -50.06835938 54.50317383 C-50.94008789 54.98858643 -51.81181641 55.47399902 -52.70996094 55.97412109 C-58.41394785 59.20081738 -63.67093959 62.69008357 -68.88476562 66.65942383 C-74.35393336 70.69234056 -80.19022855 73.6666046 -87.13085938 73.31567383 C-91.85630552 72.30747604 -95.98838209 71.16198672 -99.13085938 67.31567383 C-99.13085938 66.65567383 -99.13085938 65.99567383 -99.13085938 65.31567383 C-100.61585938 64.82067383 -100.61585938 64.82067383 -102.13085938 64.31567383 C-103.68780947 61.91586353 -105.05193166 59.58589032 -106.38085938 57.06567383 C-106.75726562 56.39665039 -107.13367187 55.72762695 -107.52148438 55.03833008 C-109.13746049 52.01431595 -110.14354448 50.00945163 -110.08007812 46.53833008 C-108.97169794 43.94298717 -107.88007346 42.77630416 -105.69335938 41.00317383 C-104.9740625 40.41149414 -104.25476562 39.81981445 -103.51367188 39.21020508 C-102.72734375 38.58500977 -101.94101563 37.95981445 -101.13085938 37.31567383 C-100.30328125 36.63891602 -99.47570313 35.9621582 -98.62304688 35.26489258 C-96.14628596 33.2539445 -93.64778212 31.2760493 -91.13085938 29.31567383 C-90.5353125 28.85161133 -89.93976562 28.38754883 -89.32617188 27.90942383 C-84.25869665 24.12700213 -78.72497589 21.23744169 -73.13085938 18.31567383 C-72.06738281 17.7459082 -71.00390625 17.17614258 -69.90820312 16.58911133 C-48.0222529 5.18127964 -24.63163099 -0.07247755 0 0 Z M44.45117188 166.73364258 C43.18948685 166.81910591 43.18948685 166.81910591 41.90231323 166.90629578 C39.16136981 167.09636671 36.42150162 167.29811357 33.68164062 167.50317383 C32.75042389 167.57191711 31.81920715 167.6406604 30.85977173 167.71148682 C16.36986019 168.79773395 2.09625727 170.26623289 -12.13085938 173.31567383 C-13.44038574 173.59000244 -13.44038574 173.59000244 -14.77636719 173.86987305 C-31.07052312 177.36405758 -46.49857725 182.48608093 -60.13085938 192.31567383 C-60.72125 192.71141602 -61.31164063 193.1071582 -61.91992188 193.51489258 C-66.65589567 196.9757965 -69.63736528 202.09878901 -72.13085938 207.31567383 C-72.13085938 208.30567383 -72.13085938 209.29567383 -72.13085938 210.31567383 C-72.79085937 210.31567383 -73.45085938 210.31567383 -74.13085938 210.31567383 C-77.46796063 222.37006637 -75.80058514 235.33987818 -70.13085938 246.31567383 C-69.29554688 247.95536133 -69.29554688 247.95536133 -68.44335938 249.62817383 C-60.20300256 259.20480473 -50.4835106 264.5327087 -38.13085938 266.31567383 C-23.75010094 267.3891803 -9.8203147 267.02335982 3.86914062 262.31567383 C4.96742188 261.96504883 6.06570312 261.61442383 7.19726562 261.25317383 C24.58202278 255.20630177 38.57635312 243.7222755 51.86914062 231.31567383 C52.56569763 230.73577698 53.26225464 230.15588013 53.97991943 229.55841064 C56.42288891 226.65830683 56.35481222 225.11059419 56.32324219 221.35375977 C56.32294006 220.15281677 56.32263794 218.95187378 56.32232666 217.71453857 C56.30168152 216.42275696 56.28103638 215.13097534 56.25976562 213.80004883 C56.25230133 212.46055954 56.24660929 211.1210593 56.24261475 209.78155518 C56.22737275 206.26315946 56.1881048 202.74542868 56.14379883 199.22729492 C56.10281427 195.63445022 56.08459703 192.04149763 56.06445312 188.44848633 C56.02160808 181.40394417 55.95337509 174.3598525 55.86914062 167.31567383 C51.97333851 166.01707312 48.47979192 166.44313429 44.45117188 166.73364258 Z " fill="#131711" transform="translate(2417.130859375,453.684326171875)"/>
<path d="M0 0 C20.30319872 17.46405224 29.78614369 45.32005765 32.09518433 71.29519653 C32.18062087 72.2536158 32.26605741 73.21203507 32.35408294 74.19949734 C33.15933289 83.87927334 33.26853271 93.50721437 33.22705078 103.21435547 C33.22648441 105.1190541 33.22680762 107.02375316 33.22793579 108.92845154 C33.2285015 114.0200014 33.2168764 119.11145392 33.20278788 124.20298147 C33.19014767 129.55337605 33.18909968 134.9037737 33.18673706 140.25418091 C33.18056085 150.35056167 33.16420319 160.44689828 33.14403808 170.54325974 C33.12155777 182.05261366 33.11065537 193.56196986 33.10064721 205.07134032 C33.07983281 228.71425687 33.04320582 252.35711303 33 276 C15.84 276 -1.32 276 -19 276 C-19.01981934 270.30830566 -19.03963867 264.61661133 -19.06005859 258.75244141 C-19.12708162 239.90915387 -19.2046222 221.06592033 -19.28752708 202.2226963 C-19.33751798 190.802449 -19.38396176 179.38220838 -19.421875 167.96191406 C-19.454953 158.00086713 -19.49486991 148.03987432 -19.54279006 138.07888734 C-19.56789888 132.81111503 -19.58972507 127.54337788 -19.60334396 122.27556229 C-19.61630757 117.30318306 -19.63851118 112.33092545 -19.66738319 107.35861397 C-19.67634859 105.54722356 -19.68212287 103.73581363 -19.68421364 101.92440224 C-19.69634588 92.99865287 -19.92906175 84.17590869 -20.88711548 75.29598999 C-20.96331442 74.58235027 -21.03951337 73.86871055 -21.11802137 73.13344538 C-22.89018384 58.33437448 -28.60247753 42.8251228 -39.84375 32.5546875 C-55.74133927 21.09229524 -75.32829396 18.65381065 -94.42529297 21.34130859 C-99.06366016 22.21691354 -103.51399871 23.5267564 -108 25 C-108.99 25.30035156 -109.98 25.60070312 -111 25.91015625 C-126.51019479 30.99943891 -139.35866052 41.45163688 -151.1875 52.375 C-151.84790283 52.982229 -152.50830566 53.58945801 -153.1887207 54.21508789 C-153.80062256 54.79121826 -154.41252441 55.36734863 -155.04296875 55.9609375 C-155.58977295 56.47446777 -156.13657715 56.98799805 -156.69995117 57.51708984 C-159.89098515 61.15696597 -159.13344246 65.90090702 -159.11352539 70.44033813 C-159.11367425 71.3119925 -159.11382311 72.18364686 -159.11397648 73.08171499 C-159.11327987 76.01364808 -159.10542808 78.94551916 -159.09765625 81.87744141 C-159.09573791 83.97475652 -159.09427372 86.07207209 -159.0932312 88.16938782 C-159.09006583 92.69071928 -159.0837908 97.21203216 -159.07516479 101.73335648 C-159.06167688 108.87491977 -159.05575575 116.01647681 -159.05102539 123.15805054 C-159.03991228 138.31370864 -159.02037045 153.46935194 -159 168.625 C-158.97800961 184.9912991 -158.95742811 201.35759218 -158.94658184 217.72390306 C-158.94158235 224.83125955 -158.93169761 231.93858789 -158.91815186 239.04593301 C-158.91072261 243.45670985 -158.90738273 247.86748274 -158.9051857 252.278265 C-158.90330457 254.33224788 -158.89968574 256.38622997 -158.89425278 258.44020653 C-158.88709903 261.23136594 -158.88599623 264.02246221 -158.88647461 266.81362915 C-158.88287965 267.63744194 -158.87928469 268.46125472 -158.87558079 269.31003153 C-158.8859071 274.8859071 -158.8859071 274.8859071 -160 276 C-177.16 276 -194.32 276 -212 276 C-212 179.31 -212 82.62 -212 -17 C-177 -17 -177 -17 -170 -14 C-166.50788045 -9.15848393 -166.13823964 -3.59244698 -165.4375 2.1875 C-165.19165539 4.06010014 -164.94427286 5.93249905 -164.6953125 7.8046875 C-164.57833008 8.69897461 -164.46134766 9.59326172 -164.34082031 10.51464844 C-163.72040327 15.03889309 -162.89135437 19.52225508 -162 24 C-161.34 23.154375 -160.68 22.30875 -160 21.4375 C-156.7078383 17.50161954 -152.9254436 14.28688685 -149 11 C-148.1853125 10.29746094 -147.370625 9.59492188 -146.53125 8.87109375 C-105.63083043 -25.71381986 -43.6961956 -35.3252769 0 0 Z " fill="#131611" transform="translate(1407,476)"/>
<path d="M0 0 C1.09755615 0.00563965 2.1951123 0.0112793 3.32592773 0.01708984 C29.08103914 0.40072914 54.47056215 11.00176174 72.75 29.3125 C72.75 29.9725 72.75 30.6325 72.75 31.3125 C73.41 31.3125 74.07 31.3125 74.75 31.3125 C76.40847936 33.19231207 77.93089848 35.06557276 79.4375 37.0625 C79.88375732 37.65087646 80.33001465 38.23925293 80.78979492 38.84545898 C99.16181504 63.49004662 104.25714356 91.42817056 100.125 121.6796875 C98.2949994 132.13292252 93.86058299 141.10517436 88.75 150.3125 C88.34007812 151.15039062 87.93015625 151.98828125 87.5078125 152.8515625 C83.46100013 160.97472601 76.60158017 169.37446385 69.75 175.3125 C69.09 175.3125 68.43 175.3125 67.75 175.3125 C67.75 175.9725 67.75 176.6325 67.75 177.3125 C67.09 177.3125 66.43 177.3125 65.75 177.3125 C65.75 177.9725 65.75 178.6325 65.75 179.3125 C44.15212314 197.49032261 15.85005978 204.19742088 -11.74609375 202.0390625 C-20.56297549 200.87228414 -28.86968414 198.1937826 -37.25 195.3125 C-38.19101563 194.9928125 -39.13203125 194.673125 -40.1015625 194.34375 C-56.27054442 188.38945825 -73.33078555 175.13627599 -82.25 160.3125 C-82.25 159.6525 -82.25 158.9925 -82.25 158.3125 C-82.91 158.3125 -83.57 158.3125 -84.25 158.3125 C-90.05330843 150.4152143 -93.51998454 141.3262493 -96.63623047 132.12255859 C-97.15533897 130.59166342 -97.70164675 129.07003209 -98.25390625 127.55078125 C-105.96875098 103.80993055 -100.78965266 75.99595874 -90.17773438 54.12695312 C-87.87538428 49.62404104 -85.15854301 45.44183056 -82.25 41.3125 C-81.68796875 40.50425781 -81.1259375 39.69601562 -80.546875 38.86328125 C-77.62040911 34.79322068 -77.62040911 34.79322068 -76.25 33.3125 C-75.59 33.3125 -74.93 33.3125 -74.25 33.3125 C-73.981875 32.673125 -73.71375 32.03375 -73.4375 31.375 C-72.25 29.3125 -72.25 29.3125 -69.25 28.3125 C-69.25 27.6525 -69.25 26.9925 -69.25 26.3125 C-49.46043049 9.37571259 -26.17456365 -0.14173586 0 0 Z " fill="#121510" transform="translate(158.25,275.6875)"/>
<path d="M0 0 C18.15 0 36.3 0 55 0 C56 1 56 1 56.1241985 3.47741324 C56.12381878 4.59189241 56.12343906 5.70637158 56.12304783 6.85462284 C56.12503888 8.13502007 56.12702993 9.41541729 56.12908131 10.73461443 C56.12622771 12.17407439 56.1232821 13.61353417 56.12025452 15.05299377 C56.12069009 16.56765875 56.12156473 18.08232365 56.12284368 19.59698814 C56.12509147 23.77911591 56.12106351 27.96121832 56.11606562 32.14334285 C56.11176535 36.64575317 56.11320724 41.14816194 56.1139679 45.65057373 C56.1144934 53.45793054 56.11134384 61.26527903 56.10573006 69.07263374 C56.09761863 80.36089421 56.09500021 91.64915062 56.09374207 102.93741369 C56.09155098 121.24986336 56.08488937 139.5623086 56.07543945 157.87475586 C56.06626679 175.66837542 56.05918525 193.46199378 56.05493164 211.25561523 C56.05466892 212.35157989 56.05440619 213.44754454 56.05413551 214.57672025 C56.05283051 220.07460375 56.0515668 225.57248727 56.05032361 231.07037079 C56.03994924 276.71358361 56.02232939 322.35679157 56 368 C56.79054189 367.97038465 57.58108378 367.94076929 58.39558148 367.91025651 C62.03427862 367.77476296 65.6730514 367.64141231 69.31182861 367.50808716 C71.17664477 367.43817047 71.17664477 367.43817047 73.07913399 367.36684132 C83.90519982 366.97269874 94.71482569 366.85375795 105.546875 366.8671875 C107.48646564 366.86616712 109.42605614 366.86482497 111.36564636 366.8631897 C116.45226598 366.86054411 121.538854 366.86486525 126.62546921 366.87142944 C129.77717937 366.87503106 132.92888495 366.87662512 136.08059692 366.87768555 C169.06864401 366.89147861 202.0187494 367.25254956 235 368 C235 383.51 235 399.02 235 415 C157.45 415 79.9 415 0 415 C0 278.05 0 141.1 0 0 Z " fill="#121510" transform="translate(839,337)"/>
<path d="M0 0 C0 33 0 66 0 100 C28.05 100.33 56.1 100.66 85 101 C85 113.21 85 125.42 85 138 C56.95 138 28.9 138 0 138 C0.1196944 170.48344388 0.1196944 170.48344388 0.2578125 202.96679688 C0.31823092 216.21376965 0.37661815 229.46072926 0.421875 242.70776367 C0.45484493 252.35559577 0.49470381 262.00337077 0.54279006 271.6511398 C0.56800528 276.75821717 0.58980126 281.86525691 0.60334396 286.97237968 C0.61620947 291.78304183 0.63831215 296.5935746 0.66738319 301.40416527 C0.67642392 303.16612089 0.68214098 304.92809732 0.68421364 306.69007492 C0.70288114 320.15350049 1.1493001 331.06269109 10 342 C17.62407306 348.77188126 26.7611678 349.4421677 36.55859375 349.234375 C45.59391712 348.61902948 52.11832957 345.07846002 59.47241211 340.04907227 C64.18481384 336.97312344 67.37144204 336.36470918 73 337 C75.26469353 339.04900843 76.44109708 340.46741338 78 343 C78.47050781 343.75023437 78.94101563 344.50046875 79.42578125 345.2734375 C80.44939603 346.95036714 81.45283196 348.63975284 82.4375 350.33984375 C83.50003279 352.14880582 84.6063822 353.93258334 85.75 355.69140625 C86.306875 356.55636719 86.86375 357.42132812 87.4375 358.3125 C87.95183594 359.09238281 88.46617187 359.87226562 88.99609375 360.67578125 C90.26840633 363.62140766 90.07115559 365.00174257 89 368 C86.98274829 370.37055568 84.47460359 372.12150537 82 374 C81.01 374.804375 80.02 375.60875 79 376.4375 C57.56650822 391.33521851 28.51856637 395.71988601 3.0625 392.25 C-12.28842073 389.44831104 -26.63779274 383.11677753 -36.75 370.8828125 C-38 369 -38 369 -38 367 C-38.66 367 -39.32 367 -40 367 C-49.49397167 348.58169496 -52.29562403 333.36222064 -52.31884766 312.80737305 C-52.32816352 310.90399762 -52.33833461 309.00062622 -52.34928894 307.09725952 C-52.3764162 301.96803613 -52.39168671 296.83883994 -52.40471697 291.70956397 C-52.42042368 286.33505648 -52.44718959 280.96060391 -52.4727478 275.58613586 C-52.51940275 265.42574857 -52.55621089 255.26535079 -52.58942068 245.10491163 C-52.6277363 233.53043109 -52.67712153 221.9560059 -52.72740483 210.38157213 C-52.83052696 186.58775585 -52.91985108 162.79390397 -53 139 C-54.16047852 138.98018066 -55.32095703 138.96036133 -56.51660156 138.93994141 C-60.82557734 138.86382088 -65.13421828 138.77511334 -69.44287109 138.68261719 C-71.30706162 138.6443541 -73.1713253 138.60949654 -75.03564453 138.578125 C-77.71673716 138.53241644 -80.39732733 138.47443178 -83.078125 138.4140625 C-83.91055725 138.40251129 -84.7429895 138.39096008 -85.60064697 138.37905884 C-92.92367858 138.19263344 -92.92367858 138.19263344 -96 136 C-98.30287797 132.75326001 -98.23354407 129.82149533 -98.1953125 125.921875 C-98.18886719 124.76171875 -98.18242187 123.6015625 -98.17578125 122.40625 C-98.15902344 121.1996875 -98.14226563 119.993125 -98.125 118.75 C-98.11597656 117.52796875 -98.10695313 116.3059375 -98.09765625 115.046875 C-98.07409513 112.03105218 -98.04119706 109.01562508 -98 106 C-87.18077318 104.32912269 -76.35391037 102.74267249 -65.5 101.3125 C-64.51572021 101.18125732 -63.53144043 101.05001465 -62.51733398 100.91479492 C-61.59380127 100.79467041 -60.67026855 100.6745459 -59.71875 100.55078125 C-58.90341797 100.44419189 -58.08808594 100.33760254 -57.24804688 100.2277832 C-55 100 -55 100 -51 100 C-50.89042969 98.75347656 -50.78085938 97.50695312 -50.66796875 96.22265625 C-50.50817932 94.50257005 -50.34800149 92.7825199 -50.1875 91.0625 C-50.11724609 90.25103516 -50.04699219 89.43957031 -49.97460938 88.60351562 C-49.45645115 83.15249112 -48.61974892 77.81249972 -47.609375 72.43359375 C-46.26097248 65.15328955 -45.34280794 57.85869138 -44.53515625 50.5 C-44.41391891 49.40364731 -44.29268158 48.30729462 -44.16777039 47.17771912 C-43.66872166 42.63104863 -43.17574531 38.08388671 -42.70043945 33.53466797 C-42.34604921 30.167364 -41.97316331 26.8025056 -41.59765625 23.4375 C-41.44587669 21.91382813 -41.44587669 21.91382813 -41.29103088 20.359375 C-40.58332712 14.1554729 -39.45558695 8.31318891 -36 3 C-26.36672434 -4.22495675 -12.04159458 0 0 0 Z " fill="#131711" transform="translate(2210,364)"/>
<path d="M0 0 C17.16 0 34.32 0 52 0 C52 96.69 52 193.38 52 293 C34.84 293 17.68 293 0 293 C0 196.31 0 99.62 0 0 Z " fill="#121510" transform="translate(1093,459)"/>
<path d="M0 0 C7.99164008 5.97149577 12.3628975 14.22380042 14.37890625 23.890625 C15.72871795 34.9732895 12.98099923 43.68973425 6.5625 52.625 C0.9784694 59.44728046 -6.49828799 64.39456811 -15.25 65.9375 C-27.11863241 67.0642689 -37.25473039 65.77682023 -47.0625 58.3125 C-54.10861277 51.6290548 -58.6118491 43.03016174 -59.62109375 33.39453125 C-59.83836079 21.47040509 -57.31900532 12.26024372 -48.9296875 3.546875 C-34.80819299 -9.98348719 -16.22134568 -10.17809925 0 0 Z " fill="#141711" transform="translate(1141.25,337.0625)"/>
<path d="M0 0 C0.66 0.33 1.32 0.66 2 1 C-3.28 6.28 -8.56 11.56 -14 17 C-14.66 16.67 -15.32 16.34 -16 16 C-14.625 14 -14.625 14 -13 12 C-12.34 12 -11.68 12 -11 12 C-10.731875 11.360625 -10.46375 10.72125 -10.1875 10.0625 C-9 8 -9 8 -6 7 C-6 6.34 -6 5.68 -6 5 C-4.04072937 3.2856382 -2.04119788 1.61594832 0 0 Z " fill="#3E493C" transform="translate(95,297)"/>
<path d="M0 0 C0.66 0.33 1.32 0.66 2 1 C-2.95 5.95 -7.9 10.9 -13 16 C-13 13 -13 13 -10.8125 10.6875 C-9.884375 9.800625 -8.95625 8.91375 -8 8 C-7.11172526 6.94857276 -6.23643819 5.8860248 -5.375 4.8125 C-3 2 -3 2 0 0 Z " fill="#495046" transform="translate(2318,626)"/>
<path d="M0 0 C0.66 0.33 1.32 0.66 2 1 C-2.29 5.29 -6.58 9.58 -11 14 C-11.66 13.67 -12.32 13.34 -13 13 C-9.57338216 8.28840047 -5.40481284 4.74963472 -1 1 C-0.67 0.67 -0.34 0.34 0 0 Z " fill="#454D42" transform="translate(2591,478)"/>
<path d="M0 0 C0.66 0.33 1.32 0.66 2 1 C-1.63 4.63 -5.26 8.26 -9 12 C-9.66 11.67 -10.32 11.34 -11 11 C-7.33333333 7.33333333 -3.66666667 3.66666667 0 0 Z " fill="#495346" transform="translate(2591,635)"/>
</svg>
