<?xml version="1.0" encoding="UTF-8"?>
<svg version="1.1" xmlns="http://www.w3.org/2000/svg" width="3219" height="1073">
<path d="M0 0 C1.22507599 0.67415425 2.45361125 1.34211423 3.6875 2 C25.42412345 15.12399907 39.8320264 36.65131819 46 61 C50.76079693 82.4342702 49.3026195 105.41304315 39 125 C38.59056152 125.84413452 38.59056152 125.84413452 38.17285156 126.70532227 C35.3335299 132.54868169 32.07504847 138.10939212 28.75 143.6875 C28.1737085 144.65921143 27.59741699 145.63092285 27.00366211 146.63208008 C23.30065603 152.86153795 19.52099501 159.03669945 15.6953125 165.19140625 C13.49696198 168.83337404 11.50174281 172.56991181 9.49609375 176.3203125 C7.93172855 179.12228254 6.24365622 181.80629915 4.5 184.5 C1.58714295 189.0005242 -1.01111157 193.60120285 -3.54296875 198.32421875 C-6.47658235 203.71168609 -9.7071337 208.92051022 -12.9453125 214.12890625 C-16.65758424 220.10665181 -20.1859561 226.11601548 -23.50390625 232.3203125 C-25.06827145 235.12228254 -26.75634378 237.80629915 -28.5 240.5 C-31.96141509 245.85568401 -35.00268442 251.37511643 -38 257 C-39.12301891 259.06357936 -40.24796634 261.12611057 -41.375 263.1875 C-41.87773438 264.10917969 -42.38046875 265.03085937 -42.8984375 265.98046875 C-43.26195312 266.64691406 -43.62546875 267.31335938 -44 268 C-44.66 268 -45.32 268 -46 268 C-46.14888672 268.81210937 -46.14888672 268.81210937 -46.30078125 269.640625 C-47.19263584 272.65001143 -48.60387174 275.03520869 -50.1875 277.75 C-50.69893555 278.6306311 -50.69893555 278.6306311 -51.22070312 279.52905273 C-52.01263781 280.8909146 -52.80693377 282.25140491 -53.60302734 283.61083984 C-55.19688893 286.33672756 -56.78019744 289.06862065 -58.36328125 291.80078125 C-64.44614606 302.28384077 -70.56974015 312.72556307 -77 323 C-78.37803806 325.20643881 -79.75298184 327.41481284 -81.125 329.625 C-81.72570312 330.58664062 -82.32640625 331.54828125 -82.9453125 332.5390625 C-85.2122989 336.27541313 -87.2588108 340.12953634 -89.34033203 343.97119141 C-92.27066848 349.31890456 -95.3242043 354.59535851 -98.375 359.875 C-98.86989426 360.7322316 -98.86989426 360.7322316 -99.37478638 361.60678101 C-104.12094913 369.82332118 -108.94762337 377.96772939 -114 386 C-115.37851037 388.20614375 -116.75343053 390.41453437 -118.125 392.625 C-118.72570312 393.58664062 -119.32640625 394.54828125 -119.9453125 395.5390625 C-121.67944597 398.3943764 -123.27312717 401.31622542 -124.86328125 404.25390625 C-127.80560688 409.68405192 -130.90178337 415.00720404 -134.0625 420.3125 C-135.20585668 422.23820555 -136.34908199 424.16398909 -137.4921875 426.08984375 C-138.07194336 427.06550293 -138.65169922 428.04116211 -139.24902344 429.04638672 C-140.96729344 431.94482935 -142.67667354 434.84830893 -144.3828125 437.75390625 C-147.56994453 443.18041665 -150.77897886 448.59354798 -154 454 C-154.46035645 454.77698242 -154.92071289 455.55396484 -155.39501953 456.35449219 C-160.5496382 465.01819477 -165.78308539 472.8681332 -173 480 C-173.80695313 480.82886719 -174.61390625 481.65773438 -175.4453125 482.51171875 C-182.78415253 489.6643494 -190.94700825 494.33922205 -200 499 C-200.65202393 499.35263916 -201.30404785 499.70527832 -201.97583008 500.06860352 C-206.65079882 502.53752306 -211.15554947 504.06101046 -216.3125 505.1875 C-217.0545166 505.35475586 -217.7965332 505.52201172 -218.56103516 505.69433594 C-224.35812041 506.95626933 -230.06355647 507.78798416 -236 508 C-236.83015625 508.03996094 -237.6603125 508.07992187 -238.515625 508.12109375 C-265.48087573 508.80733516 -288.51485064 498.99269553 -309 482 C-309.67289062 481.49082031 -310.34578125 480.98164062 -311.0390625 480.45703125 C-327.4981943 467.64295832 -337.49573394 443.85477528 -341 424 C-341.43570244 419.28249759 -341.5254428 414.61085852 -341.5 409.875 C-341.49355469 408.60889893 -341.48710937 407.34279785 -341.48046875 406.03833008 C-341.14670436 388.77370821 -336.31811972 374.92995847 -328 360 C-327.23136726 358.5887614 -326.46314455 357.1772994 -325.6953125 355.765625 C-322.18013129 349.36458268 -318.54344877 343.14137364 -314.390625 337.12890625 C-312.22541588 333.81419003 -310.42864694 330.31140601 -308.56640625 326.8203125 C-306.98171483 323.96707757 -305.27490111 321.23841886 -303.5 318.5 C-300.64105355 314.07707847 -298.07208736 309.56815615 -295.58203125 304.9296875 C-290.56016161 295.6299289 -285.2128497 286.57137846 -279.50097656 277.6809082 C-276.68075335 273.24986407 -274.2863511 268.73001994 -272 264 C-271.34 264 -270.68 264 -270 264 C-269.88914062 263.44441406 -269.77828125 262.88882812 -269.6640625 262.31640625 C-267.4380869 254.55167959 -262.07106269 247.47243312 -257.72265625 240.75390625 C-255.46609043 237.14647109 -253.46666869 233.42462999 -251.45703125 229.67578125 C-248.52341765 224.28831391 -245.2928663 219.07948978 -242.0546875 213.87109375 C-238.34241576 207.89334819 -234.8140439 201.88398452 -231.49609375 195.6796875 C-229.46422856 192.0403676 -227.2071861 188.56771234 -224.90625 185.09375 C-222.65713766 181.44355128 -220.64113312 177.69167506 -218.6015625 173.92138672 C-216.08265713 169.3266883 -213.42306561 164.81875685 -210.75 160.3125 C-210.18788818 159.36205811 -209.62577637 158.41161621 -209.04663086 157.43237305 C-205.23322422 151.00930981 -201.3122924 144.663362 -197.32177734 138.34936523 C-194.53343536 133.91524662 -191.95704412 129.40459688 -189.4921875 124.78125 C-185.15264539 116.6928888 -180.61875009 108.77171509 -175.42578125 101.19921875 C-173.25766636 97.85497579 -171.44113547 94.33481793 -169.56640625 90.8203125 C-167.98171483 87.96707757 -166.27490111 85.23841886 -164.5 82.5 C-161.03858491 77.14431599 -157.99731558 71.62488357 -155 66 C-153.87698109 63.93642064 -152.75203366 61.87388943 -151.625 59.8125 C-151.12226563 58.89082031 -150.61953125 57.96914063 -150.1015625 57.01953125 C-149.73804688 56.35308594 -149.37453125 55.68664062 -149 55 C-148.34 55 -147.68 55 -147 55 C-146.91621094 54.484375 -146.83242188 53.96875 -146.74609375 53.4375 C-145.69586619 50.00639007 -143.87719219 47.07052341 -142.0625 44 C-138.8771213 38.58374332 -138.8771213 38.58374332 -136 33 C-135.34 33 -134.68 33 -134 33 C-133.85498047 32.1646875 -133.85498047 32.1646875 -133.70703125 31.3125 C-128.81260321 15.30420499 -109.97116784 3.04626515 -96.171875 -4.55859375 C-93.80751665 -5.78066241 -91.43104224 -6.91762784 -89 -8 C-88.37351562 -8.28359375 -87.74703125 -8.5671875 -87.1015625 -8.859375 C-80.67854189 -11.51530757 -73.7983072 -12.69081323 -67 -14 C-65.57880859 -14.28230469 -65.57880859 -14.28230469 -64.12890625 -14.5703125 C-41.57506526 -17.66759403 -19.11238849 -12.03587439 0 0 Z " fill="#DEE2D9" transform="translate(596,290)"/>
<path d="M0 0 C3.33059006 1.35526931 6.57409545 1.24948513 10.11503601 1.25233459 C11.2839312 1.26499359 11.2839312 1.26499359 12.47644043 1.27790833 C15.04714069 1.30365927 17.61772629 1.31581786 20.18852234 1.32826233 C21.97403881 1.34443587 23.75954642 1.36161572 25.54504395 1.37976074 C30.24144918 1.42543052 34.93786614 1.46025032 39.63438416 1.49195862 C47.16280985 1.54386013 54.69110604 1.60881018 62.21936989 1.68017387 C64.85459864 1.70307614 67.48981069 1.71929966 70.12509155 1.7348938 C71.72981452 1.74829393 73.33453573 1.76190816 74.93925476 1.77577209 C75.67743439 1.77838547 76.41561401 1.78099884 77.17616272 1.78369141 C82.21941448 1.83571697 82.21941448 1.83571697 83.33305359 2.94935608 C83.61349403 6.14892653 83.5649414 9.36397017 83.58305359 12.57435608 C83.61399109 13.91046936 83.61399109 13.91046936 83.64555359 15.27357483 C83.67894565 20.94187715 83.16482677 24.99052039 80.33305359 29.94935608 C70.58787261 38.34961389 50.54815574 38.17616169 38.33305359 37.94935608 C38.6591864 38.78337952 38.98531921 39.61740295 39.32133484 40.47669983 C48.27139986 63.52509737 52.43322314 90.05901523 42.45805359 113.69935608 C41.76023323 115.12123065 41.05170841 116.53789733 40.33305359 117.94935608 C39.97469421 118.7356842 39.61633484 119.52201233 39.24711609 120.33216858 C36.06012197 127.15533049 31.98402034 133.04228882 27.33305359 138.94935608 C26.68852234 139.78466858 26.04399109 140.61998108 25.37992859 141.48060608 C8.04932517 162.38316593 -20.44366494 172.24732656 -46.66694641 174.94935608 C-51.79618146 175.20649889 -56.90712012 175.23538212 -62.04194641 175.19935608 C-62.7181604 175.19725128 -63.39437439 175.19514648 -64.09107971 175.19297791 C-74.95218427 175.15336225 -85.6671212 174.7799253 -96.29585266 172.34779358 C-99.78021583 171.65210009 -101.75606295 171.50002766 -104.99507141 173.09779358 C-111.64381434 177.78713876 -116.10138333 184.25266682 -118.66694641 191.94935608 C-119.18021581 198.62185822 -117.69725797 203.19861138 -113.72944641 208.57435608 C-97.53961996 221.12973169 -71.86349314 220.48003129 -52.34468079 221.3611908 C-46.66650312 221.62021988 -40.99111499 221.9310124 -35.31538391 222.23841858 C-34.21023437 222.29752914 -33.10508484 222.35663971 -31.96644592 222.4175415 C41.26221453 226.41332622 41.26221453 226.41332622 62.33305359 248.94935608 C63.02528015 249.66736389 63.71750671 250.3853717 64.43070984 251.12513733 C71.75687505 259.09215994 74.54123456 265.68860539 76.71977234 276.28919983 C77.06427829 278.85730772 77.06427829 278.85730772 78.33305359 279.94935608 C78.58694427 283.67152148 78.51828899 287.40706645 78.52055359 291.13685608 C78.53279968 292.17906311 78.54504578 293.22127014 78.55766296 294.2950592 C78.56782177 299.62165946 78.39253609 303.96583016 76.33305359 308.94935608 C75.91495307 310.26074084 75.5096293 311.57623936 75.11430359 312.89466858 C74.9041864 313.57916077 74.69406921 314.26365295 74.47758484 314.96888733 C74.04571015 316.37967797 73.61604368 317.79114637 73.18852234 319.20326233 C72.14054713 322.60435978 71.07491007 325.83659403 69.33305359 328.94935608 C68.67305359 328.94935608 68.01305359 328.94935608 67.33305359 328.94935608 C67.08555359 329.81560608 66.83805359 330.68185608 66.58305359 331.57435608 C65.25505335 335.15995672 63.64674511 337.91263595 61.33305359 340.94935608 C60.67305359 340.94935608 60.01305359 340.94935608 59.33305359 340.94935608 C59.06492859 341.53201233 58.79680359 342.11466858 58.52055359 342.71498108 C57.31824368 344.97722208 55.99479446 346.75511926 54.33305359 348.69935608 C53.81742859 349.31294983 53.30180359 349.92654358 52.77055359 350.55873108 C51.33305359 351.94935608 51.33305359 351.94935608 49.33305359 351.94935608 C49.03721375 352.78080139 49.03721375 352.78080139 48.73539734 353.62904358 C38.84203953 369.99855483 9.67820432 379.38530676 -7.66694641 383.94935608 C-55.28874213 395.45316653 -111.55712325 393.66188892 -154.65034485 368.21351624 C-159.38940846 365.24270856 -163.5778697 361.76438532 -167.66694641 357.94935608 C-168.30503235 357.40150452 -168.94311829 356.85365295 -169.60054016 356.28919983 C-181.00925157 345.947673 -186.81551134 330.75778353 -187.90522766 315.64466858 C-188.15251259 303.74896204 -186.36299028 292.54171274 -180.66694641 281.94935608 C-180.00694641 281.94935608 -179.34694641 281.94935608 -178.66694641 281.94935608 C-178.43620422 281.23392639 -178.20546204 280.5184967 -177.96772766 279.78138733 C-171.5288285 265.76276302 -153.68434873 258.14141772 -140.66694641 251.94935608 C-143.75123272 248.75516202 -146.96629141 246.18103629 -150.56929016 243.60951233 C-155.52569402 239.68684633 -158.7093858 235.63159091 -161.41694641 229.94935608 C-161.7198761 229.34607483 -162.02280579 228.74279358 -162.33491516 228.12123108 C-166.53467427 219.5350569 -167.42774086 208.66403489 -164.60444641 199.44935608 C-164.0033769 197.93086468 -163.34936045 196.43307161 -162.66694641 194.94935608 C-162.12167297 193.75310608 -161.57639954 192.55685608 -161.01460266 191.32435608 C-160.40259978 190.03084532 -159.78668997 188.73917605 -159.16694641 187.44935608 C-158.87038147 186.8248053 -158.57381653 186.20025452 -158.26826477 185.55677795 C-156.02183821 181.06765335 -156.02183821 181.06765335 -152.66694641 179.94935608 C-152.36788391 179.19525452 -152.06882141 178.44115295 -151.76069641 177.66419983 C-148.42458665 169.38349883 -138.18433216 164.02793771 -130.66694641 159.94935608 C-133.54465818 156.90236715 -136.34201946 154.48377328 -139.86616516 152.23451233 C-148.85330241 145.82069854 -156.64594702 137.7982395 -161.66694641 127.94935608 C-161.66694641 127.28935608 -161.66694641 126.62935608 -161.66694641 125.94935608 C-162.32694641 125.94935608 -162.98694641 125.94935608 -163.66694641 125.94935608 C-169.37599222 113.34086769 -174.37976566 99.91864823 -174.66694641 85.94935608 C-174.70561829 84.93744202 -174.74429016 83.92552795 -174.78413391 82.88294983 C-175.20184526 63.59860915 -170.57067068 43.48135539 -158.66694641 27.94935608 C-157.97729797 27.03025452 -157.28764954 26.11115295 -156.57710266 25.16419983 C-137.14925209 0.34162097 -110.07436964 -9.00094323 -79.99897766 -13.61314392 C-54.56367222 -16.65184788 -22.33874109 -14.07967429 0 0 Z M-113.66694641 42.94935608 C-124.30415325 55.742209 -126.88158342 71.58856358 -125.66694641 87.94935608 C-123.8127285 102.61614869 -119.29538667 117.10563223 -107.41694641 126.82435608 C-102.14796613 130.52615248 -96.58260169 133.42447 -90.66694641 135.94935608 C-89.7117511 136.36572327 -88.75655579 136.78209045 -87.77241516 137.21107483 C-69.28148343 143.83989941 -45.91537111 141.70090799 -28.29194641 133.63685608 C-14.14589378 125.88463187 -6.69422984 115.12863434 -1.66694641 99.94935608 C-1.30729797 98.96966858 -0.94764954 97.98998108 -0.57710266 96.98060608 C3.0298811 84.96764728 1.85492618 71.50103059 -2.66694641 59.94935608 C-2.99436829 59.00060608 -3.32179016 58.05185608 -3.65913391 57.07435608 C-8.37812547 44.31680649 -17.52841508 35.27692255 -29.76850891 29.48060608 C-56.67780722 18.43430701 -93.18477778 20.60184709 -113.66694641 42.94935608 Z M-111.22944641 262.44935608 C-112.1408136 263.00494202 -113.05218079 263.56052795 -113.99116516 264.13294983 C-120.04468005 268.24227015 -125.68038453 272.56911826 -130.66694641 277.94935608 C-131.24444641 278.53330139 -131.82194641 279.1172467 -132.41694641 279.71888733 C-139.79830165 287.5154438 -142.09728485 296.84128801 -141.86616516 307.47279358 C-141.03416402 317.81570968 -136.85771315 325.50883768 -129.66694641 332.94935608 C-103.95449942 353.42981921 -65.45667534 354.05869638 -34.31538391 350.57435608 C-31.40015009 350.13432079 -28.54679132 349.58050319 -25.66694641 348.94935608 C-24.41655579 348.68252014 -23.16616516 348.4156842 -21.87788391 348.14076233 C-4.27469667 344.18434565 10.89739615 337.33008694 22.33305359 322.94935608 C23.07555359 322.16560608 23.81805359 321.38185608 24.58305359 320.57435608 C30.37280052 311.88973569 30.79988026 300.40856766 28.82914734 290.38685608 C26.21930746 282.51259634 19.38211368 277.7062184 12.33305359 273.94935608 C0.501839 269.23242058 -11.24822584 266.85888417 -23.92866516 265.94935608 C-24.98585251 265.86873428 -26.04303986 265.78811249 -27.13226318 265.70504761 C-30.53922843 265.44700348 -33.94678036 265.19795826 -37.35444641 264.94935608 C-39.70261897 264.7735419 -42.05076343 264.59735197 -44.39888 264.42079163 C-58.39484276 263.37551569 -72.3941578 262.38593423 -86.40400696 261.5450592 C-88.05396667 261.44547913 -88.05396667 261.44547913 -89.73725891 261.34388733 C-90.74635315 261.28475159 -91.75544739 261.22561584 -92.79512024 261.16468811 C-95.5914078 260.95502003 -98.34443226 260.60758807 -101.12397766 260.24232483 C-105.21946533 259.81732918 -107.64043005 260.24764338 -111.22944641 262.44935608 Z " fill="#DADED5" transform="translate(2732.666946411133,468.05064392089844)"/>
<path d="M0 0 C0.73702148 0.25765137 1.47404297 0.51530273 2.23339844 0.78076172 C17.44863835 6.24713005 31.6643879 14.53879303 44 25 C45.14275391 25.87591797 45.14275391 25.87591797 46.30859375 26.76953125 C51.80787655 31.14417736 51.80787655 31.14417736 52.6875 35.0625 C51.91132705 38.37887535 50.68666271 41.04834026 49 44 C48.34 44 47.68 44 47 44 C46.90332031 44.6909375 46.80664062 45.381875 46.70703125 46.09375 C45.85567111 49.5932635 44.41159132 52.33978122 42.6875 55.5 C42.09324219 56.6034375 41.49898437 57.706875 40.88671875 58.84375 C35.68492406 67.5457171 35.68492406 67.5457171 30 69 C21.74418517 69.7644273 16.09562813 66.25387237 9.4375 61.8125 C-18.12752286 43.78452408 -47.34878451 34.62188232 -80.5703125 40.25 C-98.76024433 44.22775275 -115.26140991 51.77976978 -126.4375 67.4375 C-129.43466885 72.31761643 -131.31085988 77.54868417 -133 83 C-133.35835937 84.03511719 -133.71671875 85.07023437 -134.0859375 86.13671875 C-136.92845471 98.15060561 -136.82071812 113.95365315 -131 125 C-129.4493495 127.46874103 -127.80052205 129.69933293 -126 132 C-126 132.66 -126 133.32 -126 134 C-125.34 134 -124.68 134 -124 134 C-122.66099464 135.66211317 -121.32873137 137.32966216 -120 139 C-109.44114973 148.36509491 -96.95354295 154.20300513 -83.8984375 159.234375 C-83.1332782 159.53044647 -82.3681189 159.82651794 -81.57977295 160.13156128 C-71.53833281 163.98476539 -61.39169762 167.54647053 -51.25 171.125 C-49.28246062 171.82135622 -47.31501235 172.51796989 -45.34765625 173.21484375 C-44.38807007 173.55462753 -43.42848389 173.89441132 -42.43981934 174.24449158 C-40.54860583 174.91416695 -38.65741083 175.5838946 -36.76623535 176.25367737 C-32.79484884 177.65957545 -28.82287429 179.06342355 -24.84570312 180.45288086 C-18.10396585 182.82333621 -11.5031255 185.34739641 -5 188.3125 C-4.15042725 188.69929932 -3.30085449 189.08609863 -2.42553711 189.48461914 C24.42637909 201.89516864 46.46688976 219.84606463 57.55859375 247.92578125 C62.03666113 260.13580507 62.26690734 272.34624429 62.3125 285.1875 C62.31635712 285.86441895 62.32021423 286.54133789 62.32418823 287.23876953 C62.36754045 302.71246488 60.0451619 316.45806277 55 331 C54.63003906 332.10214844 54.26007812 333.20429687 53.87890625 334.33984375 C49.1834633 347.48383458 42.22459464 359.52883852 33 370 C32.29101562 370.84046875 31.58203125 371.6809375 30.8515625 372.546875 C25.74180375 378.46343777 20.27101234 383.34794264 14 388 C13.24332031 388.58394531 12.48664062 389.16789062 11.70703125 389.76953125 C-20.48961362 413.66084395 -66.47327814 419.32724056 -105.30859375 413.8203125 C-135.02233166 408.94067523 -162.07638859 398.46902801 -186 380 C-187.20269531 379.11248047 -187.20269531 379.11248047 -188.4296875 378.20703125 C-195.02495782 373.26644619 -200.99004469 367.6235284 -207 362 C-206.3198464 358.04539262 -204.37347591 354.85129153 -202.375 351.4375 C-201.83866943 350.51529663 -201.83866943 350.51529663 -201.29150391 349.57446289 C-200.20173638 347.71183281 -199.1020202 345.85540128 -198 344 C-197.071875 342.4221875 -197.071875 342.4221875 -196.125 340.8125 C-192.31600056 334.55485806 -189.01933417 330.32698294 -182.625 326.625 C-177.40720556 325.38266799 -173.85101508 325.96845836 -169.23828125 328.5390625 C-164.04608618 331.94622842 -159.11588005 335.66327624 -154.1875 339.4375 C-131.65748841 356.48168845 -107.04633545 366.16161111 -78.62402344 366.24023438 C-76.532784 366.24984927 -74.44256843 366.28089292 -72.3515625 366.3125 C-52.43880585 366.47045962 -32.79816185 361.55627259 -17 349 C-16.10667969 348.09378906 -15.21335937 347.18757813 -14.29296875 346.25390625 C-12 344 -12 344 -10 344 C-9.73832031 343.43152344 -9.47664063 342.86304688 -9.20703125 342.27734375 C-7.90647521 339.82354385 -6.36801948 337.77214092 -4.6875 335.5625 C-0.58196239 329.78908774 1.73888825 323.67324366 4 317 C4.35449219 315.96359375 4.70898438 314.9271875 5.07421875 313.859375 C7.25706158 307.11743006 7.21996648 300.8816398 7.25 293.8125 C7.270625 292.61818359 7.29125 291.42386719 7.3125 290.19335938 C7.37340381 276.36058086 2.65184154 264.17707484 -6.91796875 253.9609375 C-15.81744844 245.57906357 -25.88079316 239.86542213 -37 235 C-37.92127686 234.59483154 -38.84255371 234.18966309 -39.79174805 233.7722168 C-48.4094002 230.1599101 -57.21575256 227.22408 -66.10546875 224.35546875 C-66.74861841 224.14774652 -67.39176807 223.9400243 -68.05440712 223.72600746 C-74.11676288 221.76989435 -80.18246276 219.82431679 -86.25317383 217.89428711 C-111.39302181 209.89277439 -136.68747313 201.4782208 -157 184 C-157.66902344 183.45214844 -158.33804687 182.90429688 -159.02734375 182.33984375 C-162.45513331 179.506301 -165.44300931 176.6820666 -168 173 C-168 172.34 -168 171.68 -168 171 C-168.66 171 -169.32 171 -170 171 C-175.07620035 163.8507377 -179.3742074 155.97396534 -183 148 C-183.28488281 147.38382813 -183.56976562 146.76765625 -183.86328125 146.1328125 C-191.79043045 127.18895852 -191.3215976 103.91956572 -188 84 C-187.81566406 82.865625 -187.63132812 81.73125 -187.44140625 80.5625 C-185.64816628 71.47378067 -181.99751338 63.29928194 -178 55 C-177.525625 54.00871094 -177.05125 53.01742187 -176.5625 51.99609375 C-163.01370941 25.55285757 -137.39450682 7.1521625 -109.875 -2.75 C-107.25248629 -3.5475686 -104.64743725 -4.30001015 -102 -5 C-100.92540527 -5.29414795 -100.92540527 -5.29414795 -99.82910156 -5.59423828 C-67.99907198 -13.89447841 -30.77616503 -10.78508318 0 0 Z " fill="#DBDFD6" transform="translate(2045,342)"/>
<path d="M0 0 C1.01775513 -0.00315216 2.03551025 -0.00630432 3.08410645 -0.009552 C4.19137085 -0.00752777 5.29863525 -0.00550354 6.43945312 -0.00341797 C7.56766479 -0.00437469 8.69587646 -0.00533142 9.85827637 -0.00631714 C12.24910538 -0.00699915 14.63993624 -0.00514344 17.03076172 -0.00097656 C20.70479464 0.00437137 24.37870529 -0.0009209 28.05273438 -0.00732422 C30.3691409 -0.00666344 32.68554734 -0.00538229 35.00195312 -0.00341797 C36.66284973 -0.00645432 36.66284973 -0.00645432 38.3572998 -0.009552 C39.37505493 -0.00639984 40.39281006 -0.00324768 41.44140625 0 C42.79256531 0.00119339 42.79256531 0.00119339 44.17102051 0.00241089 C46.22070312 0.12939453 46.22070312 0.12939453 47.22070312 1.12939453 C47.31703221 2.46902554 47.34442283 3.81369526 47.34375095 5.15678501 C47.345742 6.02962495 47.34773305 6.9024649 47.34978443 7.80175453 C47.34687159 8.77157877 47.34395875 9.741403 47.34095764 10.74061584 C47.34181207 11.76235836 47.34266649 12.78410087 47.34354681 13.83680528 C47.34520468 17.28860046 47.33967523 20.74034791 47.33422852 24.19213867 C47.33394668 26.65530903 47.3341043 29.11847947 47.33467102 31.58164978 C47.33489934 36.89914129 47.33204793 42.21661772 47.32643318 47.5341053 C47.31832037 55.22238248 47.31570319 62.91065371 47.31444519 70.5989347 C47.31225433 83.0714123 47.30559331 95.54388337 47.29614258 108.01635742 C47.28696935 120.13517219 47.27988808 132.25398519 47.27563477 144.37280273 C47.27537204 145.11928891 47.27510932 145.86577508 47.27483863 146.63488204 C47.27353364 150.37962921 47.27226992 154.12437639 47.27102673 157.86912358 C47.26065304 188.95588531 47.24295967 220.04263893 47.22070312 251.12939453 C49.27536151 251.14640016 51.33006123 251.15845082 53.38476562 251.16845703 C54.52896973 251.17570801 55.67317383 251.18295898 56.85205078 251.19042969 C64.72605314 251.04776404 70.18293069 250.06157933 75.84570312 244.37158203 C77.22070312 243.12939453 77.22070312 243.12939453 79.22070312 243.12939453 C79.58615234 242.27087891 79.58615234 242.27087891 79.95898438 241.39501953 C81.44587611 238.72505915 83.20154221 236.99110446 85.40820312 234.87939453 C88.95125777 231.47905487 92.18932166 227.91105327 95.40209961 224.20410156 C98.2446003 220.96130779 101.19884701 217.8277849 104.15820312 214.69189453 C104.795 214.01449219 105.43179687 213.33708984 106.08789062 212.63916016 C109.55506227 208.95233339 113.02975171 205.27263818 116.50585938 201.59423828 C117.2104126 200.84779053 117.91496582 200.10134277 118.64086914 199.33227539 C119.98502155 197.9086004 121.3304729 196.48615018 122.67749023 195.06518555 C125.82217159 191.73497246 128.9057683 188.37004157 131.90820312 184.91064453 C134.40911191 182.0299577 136.98095522 179.28735892 139.72070312 176.62939453 C143.16334093 173.23343656 146.37434937 169.72326574 149.51757812 166.05126953 C151.83774288 163.43310197 154.32038708 161.00189655 156.83789062 158.57470703 C158.32924797 157.15829676 158.32924797 157.15829676 159.22070312 155.12939453 C159.88070313 155.12939453 160.54070312 155.12939453 161.22070312 155.12939453 C161.45144531 154.57123047 161.6821875 154.01306641 161.91992188 153.43798828 C163.56603821 150.51650253 165.63143444 148.52884787 168.03320312 146.19189453 C168.88527344 145.35787109 169.73734375 144.52384766 170.61523438 143.66455078 C171.90494141 142.40964844 171.90494141 142.40964844 173.22070312 141.12939453 C173.94644531 140.26185547 174.6721875 139.39431641 175.41992188 138.50048828 C182.24898489 132.71911973 191.13338758 132.70360192 199.69726562 132.83642578 C201.27415665 132.84279305 201.27415665 132.84279305 202.88290405 132.84928894 C206.20410995 132.86593314 209.52468407 132.90355839 212.84570312 132.94189453 C215.11262138 132.9569598 217.37954924 132.97064496 219.64648438 132.98291016 C225.17143549 133.01578971 230.69602415 133.06584444 236.22070312 133.12939453 C236.22070312 137.42141287 236.21508415 137.63403347 233.46679688 140.45751953 C232.86673828 141.084729 232.26667969 141.71193848 231.6484375 142.3581543 C230.99166016 143.02516357 230.33488281 143.69217285 229.65820312 144.37939453 C228.28157784 145.81007319 226.90528547 147.24107226 225.52929688 148.67236328 C224.81757324 149.40632324 224.10584961 150.1402832 223.37255859 150.89648438 C219.94444377 154.45372719 216.5861683 158.07550492 213.22070312 161.69189453 C209.69968698 165.47258383 206.15671931 169.21553372 202.49023438 172.85595703 C200.18913821 175.1413362 197.99192927 177.45377948 195.90820312 179.94189453 C193.14452283 183.15273208 190.23450716 186.15206619 187.22070312 189.12939453 C183.61351186 192.69299436 180.22592424 196.34864309 176.93164062 200.19970703 C174.47375352 202.97184454 171.82446708 205.53490142 169.18554688 208.13330078 C167.29839569 210.0504663 165.53384937 212.02514775 163.78320312 214.06689453 C160.45889686 217.9401688 156.87478591 221.49812778 153.23632812 225.07470703 C151.06260721 227.21974403 151.06260721 227.21974403 148.78320312 230.19189453 C148.26757812 230.83126953 147.75195312 231.47064453 147.22070312 232.12939453 C146.56070312 232.12939453 145.90070313 232.12939453 145.22070312 232.12939453 C144.97707031 232.70173828 144.7334375 233.27408203 144.48242188 233.86376953 C142.99553014 236.53372992 141.23986404 238.2676846 139.03320312 240.37939453 C136.13490669 243.20835373 133.35084502 246.04960308 130.72070312 249.12939453 C126.05803538 254.55464813 121.19325243 260.147695 115.22070312 264.12939453 C115.99414062 264.86802734 116.76757812 265.60666016 117.56445312 266.36767578 C123.44568815 272.06524055 128.68432406 277.7436107 133.37304688 284.49267578 C135.77984666 287.92732664 138.40002121 291.15936562 141.03710938 294.41845703 C143.54311841 297.52967397 146.00813791 300.67127567 148.47070312 303.81689453 C152.35872328 308.7776588 156.2771333 313.71268636 160.22070312 318.62939453 C164.6273529 324.12345497 168.99630052 329.6453942 173.33984375 335.18945312 C176.71788165 339.49855345 180.12981479 343.77926622 183.56445312 348.04345703 C184.38429688 349.07599609 184.38429688 349.07599609 185.22070312 350.12939453 C185.78789063 350.83837891 186.35507813 351.54736328 186.93945312 352.27783203 C188.22070312 354.12939453 188.22070312 354.12939453 188.22070312 356.12939453 C188.88070313 356.12939453 189.54070312 356.12939453 190.22070312 356.12939453 C191.56054688 357.60595703 191.56054688 357.60595703 193.15820312 359.75439453 C193.78082031 360.57810547 194.4034375 361.40181641 195.04492188 362.25048828 C195.76292969 363.20052734 196.4809375 364.15056641 197.22070312 365.12939453 C198.96094895 367.36625894 200.71587802 369.59145865 202.47070312 371.81689453 C203.42397578 373.02901801 204.3770987 374.24125926 205.33007812 375.45361328 C205.80896484 376.06253418 206.28785156 376.67145508 206.78125 377.29882812 C208.63968628 379.66221944 210.49723802 382.02630466 212.35449219 384.390625 C213.26755869 385.55267998 214.18097193 386.7144626 215.09472656 387.87597656 C217.3942331 390.79972814 219.68798938 393.72766446 221.97070312 396.66455078 C227.03657016 403.16844142 232.18637413 409.56507681 237.60546875 415.7800293 C240.15637239 418.73584587 242.50961048 421.60620725 244.22070312 425.12939453 C243.89070313 426.11939453 243.56070312 427.10939453 243.22070312 428.12939453 C235.94294916 428.06225817 228.66572662 427.9723975 221.38842773 427.86694336 C218.91420821 427.83374649 216.43991391 427.80569835 213.96557617 427.78295898 C210.40315979 427.74931752 206.84142541 427.69699466 203.27929688 427.64111328 C202.17798935 427.63472336 201.07668182 427.62833344 199.94200134 427.62174988 C193.04674459 427.49058294 187.58151828 427.03483206 182.17382812 422.35986328 C181.33078125 421.34859375 181.33078125 421.34859375 180.47070312 420.31689453 C179.81585937 419.53572266 179.16101562 418.75455078 178.48632812 417.94970703 C177.73867187 417.01900391 176.99101563 416.08830078 176.22070312 415.12939453 C175.74955078 414.5502832 175.27839844 413.97117187 174.79296875 413.37451172 C173.25999966 411.48725208 171.73792282 409.59183411 170.22070312 407.69189453 C169.72731445 407.07660889 169.23392578 406.46132324 168.72558594 405.82739258 C165.22070312 401.36567428 165.22070312 401.36567428 165.22070312 399.12939453 C164.56070312 399.12939453 163.90070313 399.12939453 163.22070312 399.12939453 C162.56070312 397.47939453 161.90070313 395.82939453 161.22070312 394.12939453 C160.56070312 394.12939453 159.90070313 394.12939453 159.22070312 394.12939453 C157.91601562 392.68798828 157.91601562 392.68798828 156.34570312 390.56689453 C153.12205164 386.29990356 149.82220637 382.10839689 146.47070312 377.94189453 C142.09549444 372.48976386 137.76082066 367.00832402 133.46069336 361.49682617 C130.89407576 358.21971013 128.28806568 354.98000032 125.64257812 351.76611328 C125.04243896 351.03577881 124.4422998 350.30544434 123.82397461 349.55297852 C122.64811025 348.1257501 121.46805704 346.70196046 120.28344727 345.28198242 C119.75356201 344.63865967 119.22367676 343.99533691 118.67773438 343.33251953 C118.20311768 342.76178711 117.72850098 342.19105469 117.23950195 341.60302734 C116.22070312 340.12939453 116.22070312 340.12939453 116.22070312 338.12939453 C115.56070312 338.12939453 114.90070313 338.12939453 114.22070312 338.12939453 C112.93701172 336.65625 112.93701172 336.65625 111.49414062 334.62158203 C108.41497114 330.37722045 105.16890707 326.30907132 101.84570312 322.25439453 C100.69829029 320.84837088 99.5511541 319.44212142 98.40429688 318.03564453 C97.85628418 317.36404297 97.30827148 316.69244141 96.74365234 316.00048828 C94.7858699 313.59515891 92.84420842 311.1772764 90.90820312 308.75439453 C90.2971875 307.99126953 89.68617187 307.22814453 89.05664062 306.44189453 C87.73956941 304.78294526 86.43353279 303.11521253 85.13476562 301.44189453 C84.44125 300.55501953 83.74773437 299.66814453 83.03320312 298.75439453 C82.42089844 297.96291016 81.80859375 297.17142578 81.17773438 296.35595703 C75.54396443 289.94627865 70.42575068 288.6091563 62.16094971 287.97013855 C59.89488872 287.82845134 57.62855622 287.70016602 55.36132812 287.57861328 C54.5764502 287.53458374 53.79157227 287.4905542 52.98291016 287.44519043 C51.06229443 287.33775873 49.14151413 287.23327622 47.22070312 287.12939453 C47.22162492 287.84999526 47.22254671 288.57059599 47.22349644 289.3130331 C47.24555081 306.82161374 47.26211426 324.33019086 47.2725153 341.83878231 C47.27767845 350.30569392 47.2847215 358.77259628 47.29614258 367.23950195 C47.30608884 374.61656547 47.31255641 381.99362228 47.31479162 389.37069231 C47.31609883 393.27921507 47.31918529 397.18771865 47.32643318 401.09623528 C47.33319249 404.77085895 47.33532027 408.44545546 47.33381081 412.12008476 C47.3342195 414.12019064 47.33961516 416.12029351 47.34512329 418.12039185 C47.34374863 419.29974808 47.34237396 420.47910431 47.34095764 421.69419861 C47.34187943 422.72568496 47.34280123 423.75717131 47.34375095 424.81991482 C47.22070312 427.12939453 47.22070312 427.12939453 46.22070312 428.12939453 C44.63007003 428.22793876 43.03508835 428.25738147 41.44140625 428.25878906 C40.42365112 428.26194122 39.405896 428.26509338 38.3572998 428.26834106 C37.2500354 428.26631683 36.142771 428.2642926 35.00195312 428.26220703 C33.87374146 428.26316376 32.74552979 428.26412048 31.58312988 428.2651062 C29.19230087 428.26578821 26.80147001 428.2639325 24.41064453 428.25976562 C20.73661161 428.25441769 17.06270096 428.25970996 13.38867188 428.26611328 C11.07226535 428.2654525 8.75585891 428.26417135 6.43945312 428.26220703 C5.33218872 428.26423126 4.22492432 428.26625549 3.08410645 428.26834106 C2.06635132 428.2651889 1.04859619 428.26203674 0 428.25878906 C-0.90077271 428.25799347 -1.80154541 428.25719788 -2.72961426 428.25637817 C-4.77929688 428.12939453 -4.77929688 428.12939453 -5.77929688 427.12939453 C-5.87836026 424.8734274 -5.90485451 422.61428122 -5.90513802 420.35614014 C-5.90659146 419.6360387 -5.9080449 418.91593726 -5.90954238 418.17401457 C-5.91322857 415.73040972 -5.90970393 413.28686624 -5.90628052 410.84326172 C-5.9074313 409.08594607 -5.90901854 407.32863066 -5.91100776 405.57131577 C-5.91520693 400.71842882 -5.91310776 395.86556138 -5.91002154 391.01267433 C-5.90777004 385.78835539 -5.91124581 380.56403994 -5.91400146 375.33972168 C-5.91846084 365.09583621 -5.91748195 354.85195804 -5.91458882 344.60807228 C-5.91233545 336.28668787 -5.91202198 327.96530552 -5.91311264 319.6439209 C-5.91326587 318.46204122 -5.91341911 317.28016155 -5.91357698 316.06246734 C-5.91389669 313.6619126 -5.9142209 311.26135786 -5.91454957 308.86080313 C-5.91740486 286.32184968 -5.91411659 263.78290029 -5.90874921 241.24394751 C-5.90428113 221.8815424 -5.90505704 202.51914328 -5.90966797 183.15673828 C-5.91501288 160.70144171 -5.91713016 138.24614871 -5.91405571 115.79085159 C-5.91373714 113.39885712 -5.91342277 111.00686264 -5.91311264 108.61486816 C-5.91295836 107.43779289 -5.91280409 106.26071762 -5.91264514 105.04797339 C-5.91177973 96.73132222 -5.91324336 88.41467329 -5.91559219 80.09802246 C-5.91838947 69.97036264 -5.91765346 59.84271058 -5.91231145 49.71505165 C-5.90967345 44.54238584 -5.90867102 39.36973299 -5.9119606 34.19706726 C-5.91492157 29.46983204 -5.91333412 24.74262189 -5.90798305 20.01538897 C-5.906858 18.29737768 -5.90745196 16.57936432 -5.90985884 14.86135435 C-5.9128614 12.54175495 -5.90981985 10.22224358 -5.90513802 7.90264893 C-5.90497566 6.60948383 -5.90481331 5.31631874 -5.90464604 3.98396683 C-5.70053931 -0.6641488 -4.20117233 0.00371062 0 0 Z " fill="#DADED5" transform="translate(1489.779296875,324.87060546875)"/>
<path d="M0 0 C0.61617187 0.49242187 1.23234375 0.98484375 1.8671875 1.4921875 C20.26143706 16.61634825 30.85529546 39.01521031 36.38085938 61.69262695 C36.85358117 63.45433581 37.41028726 65.19371726 38.00317383 66.91870117 C41.23441131 76.90680999 41.34716776 87.40751335 41.31567383 97.80517578 C41.31246306 100.02554285 41.3362589 102.2446354 41.36132812 104.46484375 C41.36359721 105.89322751 41.36430644 107.3216148 41.36328125 108.75 C41.36775269 110.66039062 41.36775269 110.66039062 41.37231445 112.609375 C40.96528193 116.31617345 40.31962 118.10419284 38 121 C33.77557989 124.24974543 29.98691575 124.4199187 24.84391785 124.36076355 C24.0270188 124.36332682 23.21011976 124.3658901 22.3684662 124.36853105 C19.63370773 124.37346885 16.89950245 124.35697617 14.16479492 124.34057617 C12.20349134 124.3397299 10.24218681 124.34020505 8.28088379 124.34190369 C2.95688633 124.34276505 -2.3669087 124.32511629 -7.69085908 124.30418181 C-13.25488909 124.28543866 -18.81892364 124.28366643 -24.38298035 124.28010559 C-34.9191089 124.2707782 -45.45514416 124.24615496 -55.99123162 124.21605712 C-67.98626946 124.18253477 -79.98131174 124.16603254 -91.97638476 124.15097082 C-116.65097491 124.11960606 -141.32548223 124.06683201 -166 124 C-165.68697312 127.69674075 -165.37063192 131.39319082 -165.05371094 135.08959961 C-164.96552094 136.13157249 -164.87733093 137.17354538 -164.78646851 138.2470932 C-164.19950847 145.06885627 -163.51785925 151.8285631 -162.25 158.5625 C-161.99947876 159.91359863 -161.99947876 159.91359863 -161.74389648 161.29199219 C-160.18679095 169.08938486 -157.60091558 175.89169911 -154 183 C-153.36384766 184.34578125 -153.36384766 184.34578125 -152.71484375 185.71875 C-147.10410576 197.72220201 -147.10410576 197.72220201 -138 207 C-137.401875 207.78375 -136.80375 208.5675 -136.1875 209.375 C-133.21901733 212.93717921 -129.81259759 215.39207734 -126 218 C-125.2575 218.50789062 -124.515 219.01578125 -123.75 219.5390625 C-101.78202387 233.63036298 -72.22628575 235.42557172 -47.19628906 229.97070312 C-31.88340458 226.20615627 -18.0697337 219.30971508 -4.453125 211.515625 C-1.55228751 209.8633843 1.35799 208.24284777 4.3203125 206.703125 C4.93148926 206.38504883 5.54266602 206.06697266 6.17236328 205.73925781 C9.66659808 204.32588045 12.25128507 204.51629485 16 205 C21.28400596 207.90982246 24.59567507 211.71068577 28.25 216.375 C28.77851563 217.02210938 29.30703125 217.66921875 29.8515625 218.3359375 C35.4946639 225.43994333 35.4946639 225.43994333 36 230 C32.84743499 235.80907424 28.43386237 239.47293957 23.1875 243.375 C22.43686279 243.93662842 21.68622559 244.49825684 20.9128418 245.0769043 C2.42736926 258.64765777 -18.50763586 266.75362349 -41 271 C-41.74282227 271.14276367 -42.48564453 271.28552734 -43.25097656 271.43261719 C-82.01439651 278.69565798 -123.07135443 274.89186748 -156.82421875 253.18359375 C-159.26516216 251.51268761 -161.6391603 249.78184274 -164 248 C-164.75667969 247.44699219 -165.51335938 246.89398437 -166.29296875 246.32421875 C-176.78564276 238.468258 -186.66756083 228.57709737 -193 217 C-193 216.34 -193 215.68 -193 215 C-193.66 215 -194.32 215 -195 215 C-201.3900544 203.67234866 -206.65293918 192.56806962 -210.35742188 180.08911133 C-211.03604927 177.88279877 -211.79503987 175.7134058 -212.55859375 173.53515625 C-214.04878417 169.09470435 -214.91452385 164.68463176 -215.625 160.0625 C-215.74617188 159.32837891 -215.86734375 158.59425781 -215.9921875 157.83789062 C-221.20562512 125.33890719 -221.51875857 88.87649035 -209 58 C-208.65453125 57.01386719 -208.3090625 56.02773438 -207.953125 55.01171875 C-204.64376263 45.7296373 -199.9841021 37.45885738 -195 29 C-194.34 29 -193.68 29 -193 29 C-192.75121094 28.28070313 -192.50242187 27.56140625 -192.24609375 26.8203125 C-187.81494621 16.79119487 -176.18645248 5.05787756 -167 -1 C-166.34 -1 -165.68 -1 -165 -1 C-165 -1.66 -165 -2.32 -165 -3 C-162.77716515 -4.51832982 -160.5727756 -5.89968566 -158.25 -7.25 C-157.56478271 -7.65186523 -156.87956543 -8.05373047 -156.17358398 -8.46777344 C-145.10310599 -14.89969669 -134.31193458 -19.59141519 -122 -23 C-120.41251953 -23.44859375 -120.41251953 -23.44859375 -118.79296875 -23.90625 C-77.79383898 -34.43234237 -32.92344327 -26.91460191 0 0 Z M-141.3125 34.4375 C-149.11480535 43.62380629 -154.82924372 53.72412137 -159 65 C-159.44279297 66.07507813 -159.44279297 66.07507813 -159.89453125 67.171875 C-163.12110606 75.1191036 -164 82.40558062 -164 91 C-112.19 91 -60.38 91 -7 91 C-6.92397163 78.83190744 -6.92397163 78.83190744 -8.75 67.1875 C-8.93264404 66.37273193 -9.11528809 65.55796387 -9.3034668 64.71850586 C-10.61049184 59.12443867 -12.16641089 54.02402806 -15 49 C-15.515625 48.02675781 -16.03125 47.05351563 -16.5625 46.05078125 C-19.65312577 40.44212332 -22.74377231 35.69724825 -27.51953125 31.40234375 C-29 30 -29 30 -31 27 C-32.63661676 25.95154239 -34.30904952 24.9583654 -36 24 C-36.94875 23.37222656 -37.8975 22.74445313 -38.875 22.09765625 C-69.57822629 2.10218013 -116.21760164 7.45619698 -141.3125 34.4375 Z " fill="#DADED6" transform="translate(3037,482)"/>
<path d="M0 0 C2.18695402 2.14671143 2.18695402 2.14671143 4.77734375 4.1171875 C11.14300789 9.30479042 15.18851349 17.02159737 19.18359375 24.078125 C19.61671875 24.81289063 20.04984375 25.54765625 20.49609375 26.3046875 C24.57428091 33.72189039 26.50907116 41.75157329 28.5769043 49.90332031 C29.18163708 52.17899737 29.18163708 52.17899737 30.15208626 54.73825932 C31.27466968 58.37301514 31.86674919 61.92587273 32.29440308 65.69078064 C32.37871169 66.42825529 32.4630203 67.16572994 32.54988372 67.92555231 C33.49970949 77.03242863 33.44810834 86.12975506 33.41064453 95.27563477 C33.41007886 97.23870844 33.41040001 99.20178253 33.41152954 101.16485596 C33.41209799 106.43851254 33.40042696 111.71207616 33.38638163 116.98571134 C33.37378858 122.5176452 33.37269706 128.04958173 33.37033081 133.58152771 C33.36414104 144.03223382 33.34776447 154.48289756 33.32763183 164.93358511 C33.30519445 176.8418484 33.29425978 188.75011382 33.28424096 200.65839303 C33.26339574 225.13166041 33.22826898 249.60489032 33.18359375 274.078125 C29.37161263 274.27732913 25.55901226 274.46032938 21.74609375 274.640625 C20.67681641 274.69669922 19.60753906 274.75277344 18.50585938 274.81054688 C0.67537611 275.62845895 0.67537611 275.62845895 -4.81640625 271.078125 C-9.46456913 265.57056024 -10.29247825 259.47415625 -11.56640625 252.515625 C-11.78683594 251.39220703 -12.00726562 250.26878906 -12.234375 249.11132812 C-13.14230955 244.36581928 -13.95124366 239.92398261 -13.81640625 235.078125 C-14.47640625 235.078125 -15.13640625 235.078125 -15.81640625 235.078125 C-16.06390625 235.67625 -16.31140625 236.274375 -16.56640625 236.890625 C-17.9971315 239.39439419 -19.38556445 240.55884888 -21.81640625 242.078125 C-22.47640625 242.078125 -23.13640625 242.078125 -23.81640625 242.078125 C-24.14640625 243.068125 -24.47640625 244.058125 -24.81640625 245.078125 C-50.79788082 270.07807719 -86.14341639 279.64882918 -121.27734375 279.2890625 C-144.5366015 278.74752761 -165.31662903 270.81029345 -181.81640625 254.078125 C-186.72096728 248.57124945 -192.81640625 240.66953766 -192.81640625 233.078125 C-193.47640625 233.078125 -194.13640625 233.078125 -194.81640625 233.078125 C-195.29941828 231.37087492 -195.77762583 229.66226526 -196.25390625 227.953125 C-196.65416016 226.52613281 -196.65416016 226.52613281 -197.0625 225.0703125 C-198.88552845 217.83487316 -199.03270315 210.8762321 -199.06640625 203.453125 C-199.08703125 202.34066406 -199.10765625 201.22820312 -199.12890625 200.08203125 C-199.17009854 191.23598701 -197.60590966 183.44663523 -194.81640625 175.078125 C-194.15640625 175.078125 -193.49640625 175.078125 -192.81640625 175.078125 C-192.54828125 173.86125 -192.28015625 172.644375 -192.00390625 171.390625 C-186.12457561 153.86304305 -165.92421439 141.59960369 -150.38671875 133.82421875 C-134.14994963 126.00301988 -117.001644 121.40581509 -99.50390625 117.328125 C-98.30822021 117.0482373 -98.30822021 117.0482373 -97.08837891 116.76269531 C-82.00956934 113.41184874 -66.81023275 111.60587069 -51.4152832 110.57006836 C-48.72339483 110.38856777 -46.0326517 110.19422718 -43.34179688 109.99804688 C-35.1545568 109.4145144 -27.02974647 108.89864514 -18.81640625 109.078125 C-18.88653094 104.26199228 -18.975048 99.44662815 -19.07885742 94.63110352 C-19.11160988 93.00130937 -19.13978649 91.37141524 -19.1628418 89.74145508 C-19.44180546 70.51670363 -20.94858447 51.38128901 -33.81640625 36.078125 C-34.42742188 35.25441406 -35.0384375 34.43070313 -35.66796875 33.58203125 C-43.95150629 23.92794477 -56.61730119 20.21858755 -68.81640625 19.078125 C-97.57348055 17.45181473 -121.6458897 26.64626021 -144.50390625 43.828125 C-150.05334162 47.84120117 -155.92698505 49.93930265 -162.81640625 49.078125 C-172.60319274 45.75961694 -177.11835144 37.77159299 -181.81640625 29.078125 C-183.00398805 26.62428879 -183.82399111 24.84267853 -183.796875 22.109375 C-182.26670985 18.93931173 -179.72716918 16.86759077 -177.12890625 14.578125 C-176.61134766 14.10503906 -176.09378906 13.63195312 -175.56054688 13.14453125 C-172.17484749 10.10035322 -168.64867889 7.55291687 -164.81640625 5.078125 C-163.42027648 4.03685567 -162.02443982 2.99519322 -160.62890625 1.953125 C-149.39866383 -5.91314162 -136.96382054 -12.08291259 -123.81640625 -15.921875 C-122.47786181 -16.42916576 -121.14397594 -16.94902103 -119.81640625 -17.484375 C-82.42293783 -31.6125027 -29.92345927 -28.83439056 0 0 Z M-52.00390625 144.328125 C-53.06899918 144.4279921 -53.06899918 144.4279921 -54.15560913 144.52987671 C-81.4751039 147.12037701 -115.93890882 151.21153797 -136.81640625 171.078125 C-137.45964844 171.68140625 -138.10289062 172.2846875 -138.765625 172.90625 C-147.13777683 181.54167704 -148.37133577 191.06544197 -148.30029297 202.64111328 C-148.05512023 210.4029592 -146.29319605 217.1245454 -142.81640625 224.078125 C-142.15640625 224.078125 -141.49640625 224.078125 -140.81640625 224.078125 C-140.56890625 224.635 -140.32140625 225.191875 -140.06640625 225.765625 C-137.09211694 231.26806023 -133.78497715 234.00604734 -128.19140625 236.765625 C-127.04414063 237.34699219 -125.896875 237.92835938 -124.71484375 238.52734375 C-116.60660358 242.04465556 -108.16373332 242.41251819 -99.44140625 242.328125 C-98.42844482 242.32135742 -97.4154834 242.31458984 -96.37182617 242.30761719 C-89.35845293 242.21060873 -82.63251443 241.84907758 -75.81640625 240.078125 C-74.92179687 239.85640625 -74.0271875 239.6346875 -73.10546875 239.40625 C-59.65043533 235.49876084 -46.45278937 228.12838081 -35.81640625 219.078125 C-34.57420453 218.21265659 -33.32446158 217.35788238 -32.06640625 216.515625 C-28.70755697 214.15514336 -26.3665297 211.29933356 -23.81640625 208.078125 C-22.95249268 207.47202393 -22.0885791 206.86592285 -21.19848633 206.24145508 C-17.33711418 201.11367001 -18.20301849 195.70222709 -18.328125 189.46484375 C-18.33745838 188.12678857 -18.34457202 186.78871623 -18.3495636 185.45063782 C-18.36859306 181.94030014 -18.41765572 178.43100802 -18.4730835 174.92108154 C-18.52436542 171.33490135 -18.54709651 167.74855108 -18.57226562 164.16210938 C-18.62578076 157.1336869 -18.71104254 150.10595624 -18.81640625 143.078125 C-29.95559507 142.92270651 -40.91074106 143.26360859 -52.00390625 144.328125 Z " fill="#DADED5" transform="translate(2490.81640625,477.921875)"/>
<path d="M0 0 C0.99303635 0.00323273 0.99303635 0.00323273 2.00613403 0.00653076 C18.15146282 0.09086603 31.64508844 2.56867925 46.3125 9.3125 C47.4365625 9.82683594 48.560625 10.34117187 49.71875 10.87109375 C58.27568881 15.11900266 64.66473421 20.58821316 71.3125 27.3125 C72.05371094 28.04339844 72.79492188 28.77429688 73.55859375 29.52734375 C96.08962388 53.11245716 99.83352033 88.13921983 99.66894531 119.15356445 C99.66973914 121.12560619 99.67184539 123.09764775 99.67514038 125.06968689 C99.68020219 130.34521994 99.66689388 135.6205525 99.64961338 140.89605355 C99.63442108 146.43950122 99.63574806 151.98294797 99.63494873 157.52641296 C99.63127795 166.80646126 99.61640836 176.0864346 99.59375 185.36645508 C99.5646947 197.29096298 99.55450657 209.21541129 99.5500679 221.13995075 C99.54609824 231.40782456 99.53361094 241.67568536 99.51972103 251.94354987 C99.51561991 255.24237333 99.51269585 258.54119632 99.50992584 261.84002113 C99.50505011 267.00055162 99.4948763 272.16104554 99.48048782 277.321558 C99.47595097 279.2191332 99.4731229 281.11671333 99.47208023 283.01429367 C99.47034507 285.59207059 99.46249106 288.16975478 99.45294189 290.74751282 C99.45380838 291.507783 99.45467486 292.26805318 99.4555676 293.05136186 C99.42671048 298.19828952 99.42671048 298.19828952 98.3125 299.3125 C96.7218669 299.41104422 95.12688523 299.44048694 93.53320312 299.44189453 C92.515448 299.44504669 91.49769287 299.44819885 90.44909668 299.45144653 C88.78820007 299.44841019 88.78820007 299.44841019 87.09375 299.4453125 C85.96553833 299.44626923 84.83732666 299.44722595 83.67492676 299.44821167 C81.28409774 299.44889368 78.89326689 299.44703797 76.50244141 299.44287109 C72.82840849 299.43752316 69.15449783 299.44281543 65.48046875 299.44921875 C63.16406223 299.44855797 60.84765578 299.44727682 58.53125 299.4453125 C57.4239856 299.44733673 56.31672119 299.44936096 55.17590332 299.45144653 C54.15814819 299.44829437 53.14039307 299.44514221 52.09179688 299.44189453 C51.19102417 299.44109894 50.29025146 299.44030334 49.36218262 299.43948364 C47.3125 299.3125 47.3125 299.3125 46.3125 298.3125 C46.20899822 295.78351525 46.1709123 293.28151688 46.17446899 290.75183105 C46.17164771 289.95034433 46.16882643 289.1488576 46.16591966 288.3230834 C46.15753376 285.61576998 46.15623194 282.90849725 46.15478516 280.20117188 C46.15011938 278.26803979 46.14497622 276.33490881 46.13938904 274.40177917 C46.12808194 270.22531741 46.11965996 266.04886288 46.11326981 261.87239075 C46.10259955 255.25584247 46.08235271 248.63934553 46.06015015 242.02282715 C45.99820803 223.20257954 45.94435249 204.38233349 45.91113281 185.56201172 C45.89272254 175.17758953 45.86369774 164.79325202 45.8231281 154.40889215 C45.80214754 148.91701816 45.78661377 143.42525052 45.78432083 137.93333435 C45.78215561 132.75243506 45.76609744 127.57175635 45.73993111 122.39092445 C45.73280464 120.50170932 45.7306043 118.61246727 45.73403358 116.72324181 C45.76577074 95.89163279 43.90296811 75.50097176 29.3125 59.3125 C28.549375 58.425625 27.78625 57.53875 27 56.625 C13.23880502 44.78397177 -3.83777086 42.28876078 -21.38671875 43.5859375 C-49.0360108 46.24142231 -69.16756954 60.35160553 -88.6875 79.3125 C-89.20644565 79.76128096 -89.7253913 80.21006193 -90.26006258 80.67244232 C-92.74199848 83.52406858 -92.10350302 87.25920513 -92.07949829 90.86672974 C-92.08543955 91.75063475 -92.09138081 92.63453977 -92.09750211 93.54522979 C-92.11386413 96.51872373 -92.10883527 99.4918025 -92.10400391 102.46533203 C-92.11137981 104.59220867 -92.12008352 106.71908105 -92.13002014 108.84594727 C-92.15339935 114.63079818 -92.15849572 120.41554189 -92.16067934 126.20043421 C-92.16632693 132.24318725 -92.18959042 138.28586974 -92.21127319 144.32858276 C-92.24984157 155.7772643 -92.2740328 167.22592573 -92.29239786 178.6746558 C-92.32577907 199.1929159 -92.38340591 219.71111595 -92.44638956 240.22930419 C-92.46794382 247.43700085 -92.48317768 254.64467654 -92.49322915 261.85239816 C-92.50022304 266.32546078 -92.51109963 270.79850833 -92.52287102 275.27156067 C-92.52744765 277.35456407 -92.5302808 279.43757211 -92.53129387 281.52058029 C-92.5328541 284.35116413 -92.54040228 287.18166935 -92.54946899 290.01223755 C-92.54840074 290.84772318 -92.54733249 291.68320881 -92.54623187 292.54401219 C-92.57346405 298.19846405 -92.57346405 298.19846405 -93.6875 299.3125 C-95.2781331 299.41104422 -96.87311477 299.44048694 -98.46679688 299.44189453 C-99.484552 299.44504669 -100.50230713 299.44819885 -101.55090332 299.45144653 C-102.65816772 299.4494223 -103.76543213 299.44739807 -104.90625 299.4453125 C-106.03446167 299.44626923 -107.16267334 299.44722595 -108.32507324 299.44821167 C-110.71590226 299.44889368 -113.10673311 299.44703797 -115.49755859 299.44287109 C-119.17159151 299.43752316 -122.84550217 299.44281543 -126.51953125 299.44921875 C-128.83593777 299.44855797 -131.15234422 299.44727682 -133.46875 299.4453125 C-134.5760144 299.44733673 -135.68327881 299.44936096 -136.82409668 299.45144653 C-137.84185181 299.44829437 -138.85960693 299.44514221 -139.90820312 299.44189453 C-140.80897583 299.44109894 -141.70974854 299.44030334 -142.63781738 299.43948364 C-144.6875 299.3125 -144.6875 299.3125 -145.6875 298.3125 C-145.78536626 296.74961786 -145.81305521 295.18229916 -145.81334114 293.6163559 C-145.81594889 292.59434664 -145.81855664 291.57233739 -145.82124341 290.51935816 C-145.81901268 289.38290527 -145.81678196 288.24645238 -145.81448364 287.07556152 C-145.81604363 285.87893182 -145.81760362 284.68230212 -145.81921089 283.44941092 C-145.8225242 280.11292005 -145.82131168 276.77648498 -145.81822467 273.43999743 C-145.81597245 269.84759495 -145.81944929 266.25519752 -145.82220459 262.66279602 C-145.8266632 255.61935073 -145.82568542 248.57591606 -145.82279195 241.53247035 C-145.82053827 235.81072376 -145.82022524 230.08898017 -145.82131577 224.36723328 C-145.821469 223.55447665 -145.82162223 222.74172002 -145.82178011 221.9043344 C-145.82209982 220.25350066 -145.82242403 218.60266692 -145.8227527 216.95183319 C-145.82560776 201.45325044 -145.82232006 185.9546736 -145.81695233 170.45609182 C-145.81248427 157.14276268 -145.8132602 143.82944226 -145.81787109 130.51611328 C-145.8232164 115.07493207 -145.82533306 99.63375603 -145.82225883 84.19257402 C-145.82194026 82.54763826 -145.82162589 80.90270249 -145.82131577 79.25776672 C-145.82116149 78.44831812 -145.82100721 77.63886951 -145.82084826 76.80489215 C-145.81998298 71.08661691 -145.82144623 65.36834493 -145.82379532 59.65007019 C-145.82659304 52.68628905 -145.82585566 45.72251919 -145.82051457 38.75873935 C-145.81787717 35.20223423 -145.81687314 31.64574794 -145.82016373 28.08924294 C-145.82366903 24.24263067 -145.81949829 20.39604961 -145.81448364 16.54943848 C-145.81671436 15.41298559 -145.81894509 14.2765327 -145.82124341 13.10564184 C-145.81863566 12.08363259 -145.81602791 11.06162333 -145.81334114 10.0086441 C-145.81317879 9.11950144 -145.81301644 8.23035878 -145.81284916 7.3142724 C-145.6875 5.3125 -145.6875 5.3125 -144.6875 4.3125 C-142.33266284 4.17429414 -140.00926706 4.09939372 -137.65234375 4.07421875 C-136.9402626 4.066147 -136.22818146 4.05807526 -135.49452209 4.04975891 C-133.98050381 4.03589615 -132.46645398 4.02518384 -130.95239258 4.01733398 C-128.65839093 4.00024869 -126.36587934 3.95640292 -124.07226562 3.91210938 C-110.07299741 3.76054117 -110.07299741 3.76054117 -103.6875 8.3125 C-101.26300835 11.07810057 -100.23393973 13.22801959 -99.6015625 16.8359375 C-99.36808105 18.15223145 -99.36808105 18.15223145 -99.12988281 19.49511719 C-98.37520491 24.3013992 -97.69367624 29.1135102 -97.0625 33.9375 C-96.86140625 35.44376953 -96.86140625 35.44376953 -96.65625 36.98046875 C-96.33043123 39.42410952 -96.00756186 41.86809973 -95.6875 44.3125 C-91.35779325 40.65737773 -87.17039015 36.90538852 -83.0625 33 C-60.23233009 11.89313274 -31.06201614 -0.1373297 0 0 Z " fill="#D9DDD5" transform="translate(1340.6875,453.6875)"/>
<path d="M0 0 C18.48 0 36.96 0 56 0 C56 121.11 56 242.22 56 367 C115.07 367 174.14 367 235 367 C235 383.17 235 399.34 235 416 C205.07941109 416.0220266 175.15882663 416.04049799 145.23823181 416.05106533 C141.70952106 416.05231611 138.18081033 416.05361042 134.65209961 416.05493164 C133.94956745 416.05519395 133.24703529 416.05545626 132.52321427 416.05572652 C121.13310082 416.06008329 109.74299239 416.06797087 98.35288192 416.0771528 C86.67419914 416.08648915 74.9955193 416.09198067 63.31683296 416.09408849 C56.75347426 416.09539605 50.19012698 416.09848469 43.62677193 416.10573006 C37.45699264 416.11248616 31.28722953 416.1146178 25.1174469 416.11310768 C22.8457728 416.11338419 20.5740982 416.11539173 18.30242729 416.11920547 C15.215519 416.12413633 12.12867286 416.12300055 9.04176331 416.12025452 C8.1303033 416.12316736 7.21884329 416.1260802 6.27976328 416.12908131 C0.11412121 416.11412121 0.11412121 416.11412121 -1 415 C-1.09898632 412.80654969 -1.12555748 410.60983674 -1.12584114 408.41415405 C-1.12729458 407.7143131 -1.12874802 407.01447215 -1.13024551 406.29342389 C-1.13393149 403.9187393 -1.13040716 401.54411785 -1.12698364 399.16943359 C-1.12813444 397.46161554 -1.12972168 395.75379774 -1.13171089 394.04598045 C-1.13590994 389.3299122 -1.13381094 384.61386403 -1.13072467 379.89779568 C-1.12847312 374.82071734 -1.13194895 369.74364258 -1.13470459 364.66656494 C-1.13916392 354.71144102 -1.1381851 344.75632461 -1.13529195 334.80120039 C-1.13303855 326.71436978 -1.13272512 318.62754128 -1.13381577 310.54071045 C-1.133969 309.39213511 -1.13412223 308.24355977 -1.13428011 307.06017911 C-1.13459982 304.72726838 -1.13492403 302.39435764 -1.1352527 300.06144691 C-1.13810797 278.15771489 -1.13481974 256.25398706 -1.12945233 234.35025573 C-1.12498425 215.53363193 -1.12576017 196.71701431 -1.13037109 177.90039062 C-1.13571603 156.07794658 -1.13783327 134.25550621 -1.13475883 112.4330616 C-1.13444026 110.10847092 -1.13412589 107.78388023 -1.13381577 105.45928955 C-1.13366149 104.3153836 -1.13350721 103.17147765 -1.13334826 101.99290788 C-1.13248287 93.91069665 -1.13394647 85.82848773 -1.13629532 77.74627686 C-1.13909263 67.90407981 -1.13835653 58.06189074 -1.13301457 48.21969461 C-1.13037662 43.19284787 -1.12937408 38.16601445 -1.13266373 33.13916779 C-1.13562477 28.54516275 -1.13403712 23.9511835 -1.12868617 19.35718083 C-1.12756116 17.68762146 -1.12815501 16.01805994 -1.13056196 14.34850192 C-1.1335647 12.09425145 -1.13052279 9.84009154 -1.12584114 7.58584595 C-1.12567879 6.32913401 -1.12551644 5.07242207 -1.12534916 3.77762794 C-1 1 -1 1 0 0 Z " fill="#D9DDD5" transform="translate(839,337)"/>
<path d="M0 0 C5.03268205 4.3991976 5.03268205 4.3991976 7.10546875 6.56640625 C7.10546875 7.22640625 7.10546875 7.88640625 7.10546875 8.56640625 C7.76546875 8.56640625 8.42546875 8.56640625 9.10546875 8.56640625 C20.83520674 22.00868599 28.37417391 38.19571609 32.10546875 55.56640625 C32.37230469 56.73236328 32.37230469 56.73236328 32.64453125 57.921875 C36.31500219 78.98042436 33.93460022 101.51448583 24.10546875 120.56640625 C23.8115625 121.22253906 23.51765625 121.87867188 23.21484375 122.5546875 C21.10015007 127.19740135 18.34375105 131.3598977 15.48046875 135.56640625 C15.08375977 136.15534668 14.68705078 136.74428711 14.27832031 137.35107422 C13.27423617 138.79492503 12.19534971 140.1861709 11.10546875 141.56640625 C10.44546875 141.56640625 9.78546875 141.56640625 9.10546875 141.56640625 C8.85925781 142.13230469 8.61304688 142.69820312 8.359375 143.28125 C-0.08319726 158.66724618 -21.63032141 168.94065868 -37.67797852 173.63330078 C-64.19044066 181.16674945 -92.12246825 178.80677288 -116.48217773 165.69702148 C-123.13883108 161.95180155 -129.20467431 157.66673327 -134.89453125 152.56640625 C-136.32732422 151.29216797 -136.32732422 151.29216797 -137.7890625 149.9921875 C-150.15175282 138.55101427 -159.95774588 123.45777249 -164.51953125 107.19140625 C-164.72320312 106.50046875 -164.926875 105.80953125 -165.13671875 105.09765625 C-172.02562046 81.16313878 -171.11643536 53.73466475 -158.89453125 31.56640625 C-158.45496094 30.6846875 -158.01539063 29.80296875 -157.5625 28.89453125 C-153.82205969 21.59912701 -149.29085339 14.75059142 -143.89453125 8.56640625 C-143.23453125 8.56640625 -142.57453125 8.56640625 -141.89453125 8.56640625 C-141.64703125 7.98890625 -141.39953125 7.41140625 -141.14453125 6.81640625 C-139.71153137 4.23700646 -138.11028449 2.50519033 -135.89453125 0.56640625 C-135.23453125 0.56640625 -134.57453125 0.56640625 -133.89453125 0.56640625 C-133.89453125 -0.09359375 -133.89453125 -0.75359375 -133.89453125 -1.43359375 C-94.59151364 -33.87204322 -38.50208441 -32.3708483 0 0 Z " fill="#DDE1D8" transform="translate(225.89453125,300.43359375)"/>
<path d="M0 0 C0 33 0 66 0 100 C27.59949699 99.96038385 27.59949699 99.96038385 55.19897461 99.90991211 C60.52648926 99.90539551 60.52648926 99.90539551 63.01734924 99.90455627 C64.76397455 99.90301665 66.51059877 99.89949135 68.25721741 99.89442444 C70.89667621 99.88714756 73.53606984 99.88609256 76.17553711 99.88647461 C76.95888144 99.8828765 77.74222578 99.87927839 78.54930782 99.87557125 C83.88597366 99.88597366 83.88597366 99.88597366 85 101 C85.08858646 103.73894085 85.11523479 106.4525327 85.09765625 109.19140625 C85.09553383 110.42116432 85.09553383 110.42116432 85.09336853 111.67576599 C85.08775289 114.30471382 85.07519779 116.93357773 85.0625 119.5625 C85.05748701 121.34049357 85.05292376 123.11848846 85.04882812 124.89648438 C85.03777839 129.26435545 85.02050331 133.63216348 85 138 C77.1485387 138.13245212 69.29704736 138.26295023 61.44551563 138.39115143 C57.79723873 138.45077833 54.14897408 138.51100549 50.50073242 138.57275391 C46.96047533 138.63265003 43.42019269 138.69077467 39.87988853 138.74781799 C37.91476424 138.77989935 35.9496679 138.81367944 33.98457336 138.84753418 C22.9894107 139.02228032 11.99629896 139.02276911 1 139 C0.95320007 162.11417248 0.91797205 185.2283371 0.89637566 208.34254742 C0.88607985 219.0757932 0.87205203 229.80900948 0.84912109 240.54223633 C0.82913521 249.90147463 0.81627125 259.26069155 0.81182301 268.61995059 C0.80922442 273.57180702 0.80315215 278.52360231 0.78853989 283.47543907 C0.77487371 288.14489587 0.77079547 292.81426686 0.77378464 297.48374176 C0.77323849 299.18920929 0.76931524 300.89467996 0.76158905 302.60013008 C0.23618868 323.13428482 0.23618868 323.13428482 9 341 C18.05056757 348.27980435 27.63539631 349.9409245 39 349 C46.9478737 347.51484988 53.55605809 343.81774394 60.31640625 339.53125 C63.88604174 337.35685275 66.43142965 336.06862056 70.625 335.5625 C78.75555995 339.02551627 83.36197038 350.32415729 87 358 C87 358.66 87 359.32 87 360 C87.66 360 88.32 360 89 360 C90.29258459 362.12896286 91.06313218 363.42011925 90.7890625 365.9375 C87.59091604 374.29701154 72.98039125 380.2062854 65.09765625 383.88867188 C43.15475091 393.60368007 16.25509724 397.28189914 -7 390 C-8.1034375 389.6596875 -9.206875 389.319375 -10.34375 388.96875 C-22.36217811 384.81284495 -31.08234144 377.82212877 -39 368 C-39.65871094 367.26652344 -40.31742188 366.53304688 -40.99609375 365.77734375 C-43.60909007 362.15582254 -45.06271214 358.41149244 -46.625 354.25 C-47.07359375 353.10917969 -47.07359375 353.10917969 -47.53125 351.9453125 C-53.39912142 336.62653312 -53.14914474 320.81068436 -53.11352539 304.63354492 C-53.11324274 302.81884259 -53.11340277 301.00414014 -53.1139679 299.18943787 C-53.11425283 294.30192362 -53.10840554 289.4144343 -53.10139394 284.5269258 C-53.09510949 279.40469603 -53.09455259 274.28246558 -53.09336853 269.16023254 C-53.09027015 259.47793456 -53.08207703 249.79564797 -53.07201904 240.11335498 C-53.06081136 229.08303518 -53.05533576 218.05271481 -53.05032361 207.02239072 C-53.03989306 184.34825418 -53.02232273 161.67412773 -53 139 C-53.8564209 139.00523682 -54.7128418 139.01047363 -55.59521484 139.01586914 C-58.8194961 139.03306821 -62.04375371 139.04552583 -65.26806641 139.05493164 C-66.65479306 139.05991293 -68.04151459 139.06670039 -69.42822266 139.07543945 C-91.3530607 139.20999622 -91.3530607 139.20999622 -96.0625 135.75 C-99.77422572 130.48174414 -99.15325838 124.59184433 -99.125 118.375 C-99.12886719 117.51648438 -99.13273437 116.65796875 -99.13671875 115.7734375 C-99.13542969 114.9484375 -99.13414062 114.1234375 -99.1328125 113.2734375 C-99.13168457 112.52497559 -99.13055664 111.77651367 -99.12939453 111.00537109 C-99 109 -99 109 -98 106 C-91.05268719 104.00586392 -83.91637305 103.26015516 -76.75 102.4375 C-75.64986572 102.30819092 -74.54973145 102.17888184 -73.41625977 102.0456543 C-65.95404749 101.18354787 -58.50095544 100.43246065 -51 100 C-50.95101562 99.17757812 -50.90203125 98.35515625 -50.8515625 97.5078125 C-50.77679687 96.39148438 -50.70203125 95.27515625 -50.625 94.125 C-50.55539063 93.03445313 -50.48578125 91.94390625 -50.4140625 90.8203125 C-50.10131587 87.93478226 -49.66843594 85.29674828 -49.05957031 82.47558594 C-47.92021115 76.868287 -47.24820071 71.25566232 -46.6328125 65.5703125 C-46.38435057 63.36976501 -46.13564462 61.16924506 -45.88671875 58.96875 C-45.50624714 55.56253046 -45.12840138 52.15606621 -44.75537109 48.74902344 C-43.5000653 37.3398733 -42.18603409 25.96360302 -40.0546875 14.6796875 C-39.83705246 13.46262619 -39.83705246 13.46262619 -39.61502075 12.22097778 C-38.66969367 7.53580131 -37.46620867 4.49329173 -34 1 C-24.17398524 -3.4357438 -10.20782009 -1.13420223 0 0 Z " fill="#DADED5" transform="translate(2210,364)"/>
<path d="M0 0 C1.01775513 -0.00315216 2.03551025 -0.00630432 3.08410645 -0.009552 C4.19137085 -0.00752777 5.29863525 -0.00550354 6.43945312 -0.00341797 C7.56766479 -0.00437469 8.69587646 -0.00533142 9.85827637 -0.00631714 C12.24910538 -0.00699915 14.63993624 -0.00514344 17.03076172 -0.00097656 C20.70479464 0.00437137 24.37870529 -0.0009209 28.05273438 -0.00732422 C30.3691409 -0.00666344 32.68554734 -0.00538229 35.00195312 -0.00341797 C36.66284973 -0.00645432 36.66284973 -0.00645432 38.3572998 -0.009552 C39.37505493 -0.00639984 40.39281006 -0.00324768 41.44140625 0 C42.79256531 0.00119339 42.79256531 0.00119339 44.17102051 0.00241089 C46.22070312 0.12939453 46.22070312 0.12939453 47.22070312 1.12939453 C47.31856938 2.69227667 47.34625833 4.25959537 47.34654427 5.82553864 C47.34915201 6.84754789 47.35175976 7.86955714 47.35444653 8.92253637 C47.35221581 10.05898926 47.34998509 11.19544215 47.34768677 12.36633301 C47.34924676 13.56296271 47.35080675 14.75959241 47.35241401 15.99248362 C47.35572732 19.32897448 47.35451481 22.66540955 47.35142779 26.0018971 C47.34917558 29.59429958 47.35265241 33.18669701 47.35540771 36.77909851 C47.35986633 43.8225438 47.35888854 50.86597847 47.35599507 57.90942419 C47.3537414 63.63117077 47.35342836 69.35291436 47.35451889 75.07466125 C47.35467212 75.88741789 47.35482536 76.70017452 47.35498323 77.53756014 C47.35530294 79.18839387 47.35562715 80.83922761 47.35595582 82.49006134 C47.35881088 97.98864409 47.35552319 113.48722093 47.35015546 128.98580271 C47.3456874 142.29913185 47.34646332 155.61245227 47.35107422 168.92578125 C47.35641953 184.36696246 47.35853619 199.8081385 47.35546196 215.24932051 C47.35514339 216.89425627 47.35482902 218.53919204 47.35451889 220.18412781 C47.35428748 221.39830072 47.35428748 221.39830072 47.35405139 222.63700238 C47.3531861 228.35527763 47.35464936 234.0735496 47.35699844 239.79182434 C47.35979616 246.75560548 47.35905879 253.71937534 47.3537177 260.68315518 C47.3510803 264.2396603 47.35007627 267.79614659 47.35336685 271.3526516 C47.35687216 275.19926386 47.35270142 279.04584492 47.34768677 282.89245605 C47.34991749 284.02890894 47.35214821 285.16536183 47.35444653 286.33625269 C47.35053491 287.86926657 47.35053491 287.86926657 47.34654427 289.43325043 C47.34638191 290.32239309 47.34621956 291.21153575 47.34605229 292.12762213 C47.22070312 294.12939453 47.22070312 294.12939453 46.22070312 295.12939453 C44.63007003 295.22793876 43.03508835 295.25738147 41.44140625 295.25878906 C40.42365112 295.26194122 39.405896 295.26509338 38.3572998 295.26834106 C37.2500354 295.26631683 36.142771 295.2642926 35.00195312 295.26220703 C33.87374146 295.26316376 32.74552979 295.26412048 31.58312988 295.2651062 C29.19230087 295.26578821 26.80147001 295.2639325 24.41064453 295.25976562 C20.73661161 295.25441769 17.06270096 295.25970996 13.38867188 295.26611328 C11.07226535 295.2654525 8.75585891 295.26417135 6.43945312 295.26220703 C5.33218872 295.26423126 4.22492432 295.26625549 3.08410645 295.26834106 C2.06635132 295.2651889 1.04859619 295.26203674 0 295.25878906 C-0.90077271 295.25799347 -1.80154541 295.25719788 -2.72961426 295.25637817 C-4.77929688 295.12939453 -4.77929688 295.12939453 -5.77929688 294.12939453 C-5.87716313 292.56651239 -5.90485208 290.99919369 -5.90513802 289.43325043 C-5.90774576 288.41124117 -5.91035351 287.38923192 -5.91304028 286.33625269 C-5.91080956 285.1997998 -5.90857884 284.06334691 -5.90628052 282.89245605 C-5.90784051 281.69582635 -5.9094005 280.49919665 -5.91100776 279.26630545 C-5.91432107 275.92981459 -5.91310856 272.59337951 -5.91002154 269.25689197 C-5.90776933 265.66448948 -5.91124616 262.07209205 -5.91400146 258.47969055 C-5.91846008 251.43624526 -5.91748229 244.39281059 -5.91458882 237.34936488 C-5.91233515 231.6276183 -5.91202211 225.9058747 -5.91311264 220.18412781 C-5.91326587 219.37137118 -5.91341911 218.55861455 -5.91357698 217.72122893 C-5.91389669 216.07039519 -5.9142209 214.41956145 -5.91454957 212.76872772 C-5.91740463 197.27014497 -5.91411694 181.77156813 -5.90874921 166.27298635 C-5.90428115 152.95965721 -5.90505707 139.64633679 -5.90966797 126.33300781 C-5.91501328 110.8918266 -5.91712994 95.45065057 -5.91405571 80.00946856 C-5.91373714 78.36453279 -5.91342277 76.71959702 -5.91311264 75.07466125 C-5.91295836 74.26521265 -5.91280409 73.45576404 -5.91264514 72.62178668 C-5.91177985 66.90351144 -5.91324311 61.18523946 -5.91559219 55.46696472 C-5.91838991 48.50318358 -5.91765254 41.53941372 -5.91231145 34.57563388 C-5.90967405 31.01912876 -5.90867002 27.46264247 -5.9119606 23.90613747 C-5.91546591 20.05952521 -5.91129517 16.21294414 -5.90628052 12.36633301 C-5.90851124 11.22988012 -5.91074196 10.09342723 -5.91304028 8.92253637 C-5.91043253 7.90052712 -5.90782479 6.87851787 -5.90513802 5.82553864 C-5.90497566 4.93639597 -5.90481331 4.04725331 -5.90464604 3.13116693 C-5.65984368 -0.77822184 -3.37736413 0.002983 0 0 Z " fill="#D8DCD3" transform="translate(1097.779296875,457.87060546875)"/>
<path d="M0 0 C7.93957383 5.64443652 13.7560159 13.39050548 16.13671875 22.8984375 C17.92503158 33.64428156 16.03524386 42.3213677 10.76171875 51.77734375 C3.92313705 60.37441789 -3.89814937 66.27513363 -14.9453125 68.30859375 C-26.78248325 69.35250172 -36.33695002 66.54922479 -45.578125 59.21875 C-48.74414826 56.32046655 -51.14490624 53.15110079 -53.42578125 49.52734375 C-53.84085938 48.90730469 -54.2559375 48.28726563 -54.68359375 47.6484375 C-59.23975622 39.50788147 -58.67915096 28.35662535 -56.765625 19.45703125 C-53.21440215 9.64889196 -46.47561623 2.48093763 -37.42578125 -2.47265625 C-36.83539062 -2.81296875 -36.245 -3.15328125 -35.63671875 -3.50390625 C-24.63665343 -8.73741751 -9.97059427 -6.05300168 0 0 Z " fill="#DADED5" transform="translate(1139.42578125,335.47265625)"/>
<path d="M0 0 C0.66 0.33 1.32 0.66 2 1 C-3.61 6.61 -9.22 12.22 -15 18 C-15.66 17.67 -16.32 17.34 -17 17 C-15.625 15 -15.625 15 -14 13 C-13.34 13 -12.68 13 -12 13 C-11.7525 12.4225 -11.505 11.845 -11.25 11.25 C-9.81700012 8.67060021 -8.21575324 6.93878408 -6 5 C-5.34 5 -4.68 5 -4 5 C-4 4.34 -4 3.68 -4 3 C-2 1.375 -2 1.375 0 0 Z " fill="#9CA098" transform="translate(96,296)"/>
<path d="M0 0 C0.66 0.33 1.32 0.66 2 1 C-3.28 6.28 -8.56 11.56 -14 17 C-14.66 16.67 -15.32 16.34 -16 16 C-11.03093773 10.1719243 -5.90436923 4.8836671 0 0 Z " fill="#9A9D96" transform="translate(2321,623)"/>
<path d="M0 0 C0.66 0.33 1.32 0.66 2 1 C-2.95 5.95 -7.9 10.9 -13 16 C-13.66 15.67 -14.32 15.34 -15 15 C-10.3143947 9.52331848 -5.59753384 4.54799625 0 0 Z " fill="#91948D" transform="translate(2593,476)"/>
<path d="M0 0 C0.66 0.33 1.32 0.66 2 1 C-1.96 4.96 -5.92 8.92 -10 13 C-10.66 12.67 -11.32 12.34 -12 12 C-8.32167983 7.47384007 -4.58913637 3.60575001 0 0 Z " fill="#90948C" transform="translate(2592,634)"/>
<path d="M0 0 C0.66 0.33 1.32 0.66 2 1 C-0.97 3.97 -3.94 6.94 -7 10 C-7.66 9.67 -8.32 9.34 -9 9 C-6.31941902 5.42589203 -3.57410797 2.68058098 0 0 Z " fill="#8B8D87" transform="translate(1098,335)"/>
</svg>
